<?xml version="1.0" encoding="UTF-8" standalone="no"?>
<!DOCTYPE svg PUBLIC "-//W3C//DTD SVG 1.1//EN"
 "http://www.w3.org/Graphics/SVG/1.1/DTD/svg11.dtd">
<!-- Generated by graphviz version 14.1.2 (0)
 -->
<!-- Title: Architecture Pages: 1 -->
<svg width="833pt" height="477pt"
 viewBox="0.00 0.00 833.00 477.00" xmlns="http://www.w3.org/2000/svg" xmlns:xlink="http://www.w3.org/1999/xlink">
<g id="graph0" class="graph" transform="scale(1 1) rotate(0) translate(4 472.92)">
<title>Architecture</title>
<polygon fill="#ffffff" stroke="none" points="-4,4 -4,-472.92 829,-472.92 829,4 -4,4"/>
<g id="clust1" class="cluster">
<title>cluster_game</title>
<path fill="#1565c0" stroke="#1565c0" d="M325,-8C325,-8 634,-8 634,-8 640,-8 646,-14 646,-20 646,-20 646,-87.77 646,-87.77 646,-93.77 640,-99.77 634,-99.77 634,-99.77 325,-99.77 325,-99.77 319,-99.77 313,-93.77 313,-87.77 313,-87.77 313,-20 313,-20 313,-14 319,-8 325,-8"/>
<text xml:space="preserve" text-anchor="middle" x="479.5" y="-87.22" font-family="Helvetica,sans-Serif" font-size="9.00" fill="#1565c0">Game Stack</text>
<text xml:space="preserve" text-anchor="middle" x="479.5" y="-75.97" font-family="Helvetica,sans-Serif" font-size="9.00" fill="#1565c0">(always running)</text>
</g>
<g id="clust2" class="cluster">
<title>cluster_metrics</title>
<path fill="#2e7d32" stroke="#2e7d32" d="M20,-139.77C20,-139.77 290,-139.77 290,-139.77 296,-139.77 302,-145.77 302,-151.77 302,-151.77 302,-448.92 302,-448.92 302,-454.92 296,-460.92 290,-460.92 290,-460.92 20,-460.92 20,-460.92 14,-460.92 8,-454.92 8,-448.92 8,-448.92 8,-151.77 8,-151.77 8,-145.77 14,-139.77 20,-139.77"/>
<text xml:space="preserve" text-anchor="middle" x="155" y="-448.37" font-family="Helvetica,sans-Serif" font-size="9.00" fill="#2e7d32">Metrics Stack</text>
<text xml:space="preserve" text-anchor="middle" x="155" y="-437.12" font-family="Helvetica,sans-Serif" font-size="9.00" fill="#2e7d32">(opt&#45;in, localhost only)</text>
</g>
<g id="clust3" class="cluster">
<title>cluster_console</title>
<path fill="#e65100" stroke="#e65100" d="M461,-144.4C461,-144.4 707,-144.4 707,-144.4 713,-144.4 719,-150.4 719,-156.4 719,-156.4 719,-214.9 719,-214.9 719,-220.9 713,-226.9 707,-226.9 707,-226.9 461,-226.9 461,-226.9 455,-226.9 449,-220.9 449,-214.9 449,-214.9 449,-156.4 449,-156.4 449,-150.4 455,-144.4 461,-144.4"/>
<text xml:space="preserve" text-anchor="middle" x="584" y="-214.35" font-family="Helvetica,sans-Serif" font-size="9.00" fill="#e65100">Console API</text>
<text xml:space="preserve" text-anchor="middle" x="584" y="-203.1" font-family="Helvetica,sans-Serif" font-size="9.00" fill="#e65100">(middleware layer)</text>
</g>
<g id="clust4" class="cluster">
<title>cluster_addon</title>
<path fill="#6a1b9a" stroke="#6a1b9a" d="M667,-262.54C667,-262.54 805,-262.54 805,-262.54 811,-262.54 817,-268.54 817,-274.54 817,-274.54 817,-448.92 817,-448.92 817,-454.92 811,-460.92 805,-460.92 805,-460.92 667,-460.92 667,-460.92 661,-460.92 655,-454.92 655,-448.92 655,-448.92 655,-274.54 655,-274.54 655,-268.54 661,-262.54 667,-262.54"/>
<text xml:space="preserve" text-anchor="middle" x="736" y="-448.37" font-family="Helvetica,sans-Serif" font-size="9.00" fill="#6a1b9a">Addon (Dune Ops Observability)</text>
<text xml:space="preserve" text-anchor="middle" x="736" y="-437.12" font-family="Helvetica,sans-Serif" font-size="9.00" fill="#6a1b9a">(iframe in Console Web UI)</text>
</g>
<g id="clust5" class="cluster">
<title>cluster_external</title>
<path fill="#616161" stroke="#616161" d="M359,-257.9C359,-257.9 629,-257.9 629,-257.9 635,-257.9 641,-263.9 641,-269.9 641,-269.9 641,-326.42 641,-326.42 641,-332.42 635,-338.42 629,-338.42 629,-338.42 359,-338.42 359,-338.42 353,-338.42 347,-332.42 347,-326.42 347,-326.42 347,-269.9 347,-269.9 347,-263.9 353,-257.9 359,-257.9"/>
<text xml:space="preserve" text-anchor="middle" x="494" y="-325.87" font-family="Helvetica,sans-Serif" font-size="9.00" fill="#616161">External</text>
</g>
<!-- pg -->
<g id="node1" class="node">
<title>pg</title>
<path fill="#90caf9" stroke="#1565c0" d="M625.67,-56.63C625.67,-56.63 576.33,-56.63 576.33,-56.63 570.33,-56.63 564.33,-50.63 564.33,-44.63 564.33,-44.63 564.33,-32.63 564.33,-32.63 564.33,-26.63 570.33,-20.63 576.33,-20.63 576.33,-20.63 625.67,-20.63 625.67,-20.63 631.67,-20.63 637.67,-26.63 637.67,-32.63 637.67,-32.63 637.67,-44.64 637.67,-44.64 637.67,-50.63 631.67,-56.63 625.67,-56.63"/>
<text xml:space="preserve" text-anchor="middle" x="601" y="-41.34" font-family="Helvetica,sans-Serif" font-size="9.00">PostgreSQL</text>
<text xml:space="preserve" text-anchor="middle" x="601" y="-30.08" font-family="Helvetica,sans-Serif" font-size="9.00">:5432</text>
</g>
<!-- rmq -->
<g id="node2" class="node">
<title>rmq</title>
<path fill="#90caf9" stroke="#1565c0" d="M405.3,-61.27C405.3,-61.27 332.7,-61.27 332.7,-61.27 326.7,-61.27 320.7,-55.27 320.7,-49.27 320.7,-49.27 320.7,-28 320.7,-28 320.7,-22 326.7,-16 332.7,-16 332.7,-16 405.3,-16 405.3,-16 411.3,-16 417.3,-22 417.3,-28 417.3,-28 417.3,-49.27 417.3,-49.27 417.3,-55.27 411.3,-61.27 405.3,-61.27"/>
<text xml:space="preserve" text-anchor="middle" x="369" y="-46.96" font-family="Helvetica,sans-Serif" font-size="9.00">RabbitMQ</text>
<text xml:space="preserve" text-anchor="middle" x="369" y="-35.71" font-family="Helvetica,sans-Serif" font-size="9.00">(admin + game)</text>
<text xml:space="preserve" text-anchor="middle" x="369" y="-24.46" font-family="Helvetica,sans-Serif" font-size="9.00">:15672, :15692</text>
</g>
<!-- game -->
<g id="node3" class="node">
<title>game</title>
<path fill="#90caf9" stroke="#1565c0" d="M516.42,-56.63C516.42,-56.63 465.57,-56.63 465.57,-56.63 459.57,-56.63 453.57,-50.63 453.57,-44.63 453.57,-44.63 453.57,-32.63 453.57,-32.63 453.57,-26.63 459.57,-20.63 465.57,-20.63 465.57,-20.63 516.42,-20.63 516.42,-20.63 522.42,-20.63 528.42,-26.63 528.42,-32.63 528.42,-32.63 528.42,-44.64 528.42,-44.64 528.42,-50.63 522.42,-56.63 516.42,-56.63"/>
<text xml:space="preserve" text-anchor="middle" x="491" y="-41.34" font-family="Helvetica,sans-Serif" font-size="9.00">Dune Game</text>
<text xml:space="preserve" text-anchor="middle" x="491" y="-30.08" font-family="Helvetica,sans-Serif" font-size="9.00">Servers</text>
</g>
<!-- prom -->
<g id="node4" class="node">
<title>prom</title>
<path fill="#a5d6a7" stroke="#2e7d32" d="M210.8,-306.54C210.8,-306.54 159.2,-306.54 159.2,-306.54 153.2,-306.54 147.2,-300.54 147.2,-294.54 147.2,-294.54 147.2,-282.54 147.2,-282.54 147.2,-276.54 153.2,-270.54 159.2,-270.54 159.2,-270.54 210.8,-270.54 210.8,-270.54 216.8,-270.54 222.8,-276.54 222.8,-282.54 222.8,-282.54 222.8,-294.54 222.8,-294.54 222.8,-300.54 216.8,-306.54 210.8,-306.54"/>
<text xml:space="preserve" text-anchor="middle" x="185" y="-291.24" font-family="Helvetica,sans-Serif" font-size="9.00">Prometheus</text>
<text xml:space="preserve" text-anchor="middle" x="185" y="-279.99" font-family="Helvetica,sans-Serif" font-size="9.00">:9090</text>
</g>
<!-- prom&#45;&gt;rmq -->
<g id="edge4" class="edge">
<title>prom&#45;&gt;rmq</title>
<path fill="none" stroke="#2e7d32" stroke-width="2" d="M221.39,-270.16C258.92,-252.25 312,-226.9 312,-226.9 312,-226.9 342.65,-126.2 359,-72.49"/>
<polygon fill="#2e7d32" stroke="#2e7d32" stroke-width="2" points="361.9,-74.97 361.47,-64.38 355.21,-72.93 361.9,-74.97"/>
<text xml:space="preserve" text-anchor="middle" x="350.03" y="-172.75" font-family="Times,serif" font-size="7.00">scrape</text>
<text xml:space="preserve" text-anchor="middle" x="350.03" y="-163.75" font-family="Times,serif" font-size="7.00">:15692</text>
</g>
<!-- prom&#45;&gt;prom -->
<g id="edge5" class="edge">
<title>prom&#45;&gt;prom</title>
<path fill="none" stroke="#2e7d32" stroke-width="2" d="M222.97,-297.48C241.91,-298.72 258.8,-295.74 258.8,-288.54 258.8,-282.8 248.07,-279.75 234.13,-279.37"/>
<polygon fill="#2e7d32" stroke="#2e7d32" stroke-width="2" points="235.92,-275.83 226,-279.54 236.07,-282.83 235.92,-275.83"/>
<text xml:space="preserve" text-anchor="middle" x="268.93" y="-290.89" font-family="Times,serif" font-size="7.00">self</text>
<text xml:space="preserve" text-anchor="middle" x="268.93" y="-281.89" font-family="Times,serif" font-size="7.00">:9090</text>
</g>
<!-- cadvisor -->
<g id="node5" class="node">
<title>cadvisor</title>
<path fill="#c8e6c9" stroke="#388e3c" d="M159.92,-188.4C159.92,-188.4 124.08,-188.4 124.08,-188.4 118.08,-188.4 112.08,-182.4 112.08,-176.4 112.08,-176.4 112.08,-164.4 112.08,-164.4 112.08,-158.4 118.08,-152.4 124.08,-152.4 124.08,-152.4 159.92,-152.4 159.92,-152.4 165.92,-152.4 171.92,-158.4 171.92,-164.4 171.92,-164.4 171.92,-176.4 171.92,-176.4 171.92,-182.4 165.92,-188.4 159.92,-188.4"/>
<text xml:space="preserve" text-anchor="middle" x="142" y="-173.1" font-family="Helvetica,sans-Serif" font-size="9.00">cAdvisor</text>
<text xml:space="preserve" text-anchor="middle" x="142" y="-161.85" font-family="Helvetica,sans-Serif" font-size="9.00">:8080</text>
</g>
<!-- prom&#45;&gt;cadvisor -->
<g id="edge1" class="edge">
<title>prom&#45;&gt;cadvisor</title>
<path fill="none" stroke="#2e7d32" stroke-width="2" d="M174.98,-270.04C168.02,-257.9 160,-243.9 160,-243.9 160,-243.9 154.07,-220.01 149.01,-199.65"/>
<polygon fill="#2e7d32" stroke="#2e7d32" stroke-width="2" points="152.8,-200.39 147,-191.52 146.01,-202.07 152.8,-200.39"/>
<text xml:space="preserve" text-anchor="middle" x="172" y="-237.25" font-family="Times,serif" font-size="7.00">scrape</text>
</g>
<!-- node_exp -->
<g id="node6" class="node">
<title>node_exp</title>
<path fill="#c8e6c9" stroke="#388e3c" d="M282.43,-188.4C282.43,-188.4 219.57,-188.4 219.57,-188.4 213.57,-188.4 207.57,-182.4 207.57,-176.4 207.57,-176.4 207.57,-164.4 207.57,-164.4 207.57,-158.4 213.57,-152.4 219.57,-152.4 219.57,-152.4 282.43,-152.4 282.43,-152.4 288.43,-152.4 294.43,-158.4 294.43,-164.4 294.43,-164.4 294.43,-176.4 294.43,-176.4 294.43,-182.4 288.43,-188.4 282.43,-188.4"/>
<text xml:space="preserve" text-anchor="middle" x="251" y="-173.1" font-family="Helvetica,sans-Serif" font-size="9.00">Node Exporter</text>
<text xml:space="preserve" text-anchor="middle" x="251" y="-161.85" font-family="Helvetica,sans-Serif" font-size="9.00">:9100</text>
</g>
<!-- prom&#45;&gt;node_exp -->
<g id="edge2" class="edge">
<title>prom&#45;&gt;node_exp</title>
<path fill="none" stroke="#2e7d32" stroke-width="2" d="M194.88,-270.15C205.68,-251.14 223.13,-220.44 235.71,-198.32"/>
<polygon fill="#2e7d32" stroke="#2e7d32" stroke-width="2" points="237.87,-201.59 239.77,-191.16 231.79,-198.13 237.87,-201.59"/>
<text xml:space="preserve" text-anchor="middle" x="226.05" y="-237.25" font-family="Times,serif" font-size="7.00">scrape</text>
</g>
<!-- pg_exp -->
<g id="node7" class="node">
<title>pg_exp</title>
<path fill="#c8e6c9" stroke="#388e3c" d="M64.3,-193.04C64.3,-193.04 27.7,-193.04 27.7,-193.04 21.7,-193.04 15.7,-187.04 15.7,-181.04 15.7,-181.04 15.7,-159.77 15.7,-159.77 15.7,-153.77 21.7,-147.77 27.7,-147.77 27.7,-147.77 64.3,-147.77 64.3,-147.77 70.3,-147.77 76.3,-153.77 76.3,-159.77 76.3,-159.77 76.3,-181.04 76.3,-181.04 76.3,-187.04 70.3,-193.04 64.3,-193.04"/>
<text xml:space="preserve" text-anchor="middle" x="46" y="-178.73" font-family="Helvetica,sans-Serif" font-size="9.00">Postgres</text>
<text xml:space="preserve" text-anchor="middle" x="46" y="-167.48" font-family="Helvetica,sans-Serif" font-size="9.00">Exporter</text>
<text xml:space="preserve" text-anchor="middle" x="46" y="-156.23" font-family="Helvetica,sans-Serif" font-size="9.00">:9187</text>
</g>
<!-- prom&#45;&gt;pg_exp -->
<g id="edge3" class="edge">
<title>prom&#45;&gt;pg_exp</title>
<path fill="none" stroke="#2e7d32" stroke-width="2" d="M159.17,-270.33C132.26,-252.4 94,-226.9 94,-226.9 94,-226.9 83.49,-214.76 72.31,-201.83"/>
<polygon fill="#2e7d32" stroke="#2e7d32" stroke-width="2" points="76.14,-200.9 66.95,-195.63 70.85,-205.48 76.14,-200.9"/>
<text xml:space="preserve" text-anchor="middle" x="130.41" y="-237.25" font-family="Times,serif" font-size="7.00">scrape</text>
</g>
<!-- r2_graf -->
<g id="node8" class="node">
<title>r2_graf</title>
<path fill="#66bb6a" stroke="#2e7d32" d="M162.55,-422.42C162.55,-422.42 115.45,-422.42 115.45,-422.42 109.45,-422.42 103.45,-416.42 103.45,-410.42 103.45,-410.42 103.45,-398.42 103.45,-398.42 103.45,-392.42 109.45,-386.42 115.45,-386.42 115.45,-386.42 162.55,-386.42 162.55,-386.42 168.55,-386.42 174.55,-392.42 174.55,-398.42 174.55,-398.42 174.55,-410.42 174.55,-410.42 174.55,-416.42 168.55,-422.42 162.55,-422.42"/>
<text xml:space="preserve" text-anchor="middle" x="139" y="-407.12" font-family="Helvetica,sans-Serif" font-size="9.00">Grafana</text>
<text xml:space="preserve" text-anchor="middle" x="139" y="-395.87" font-family="Helvetica,sans-Serif" font-size="9.00">:3000 (R2)</text>
</g>
<!-- r2_graf&#45;&gt;prom -->
<g id="edge6" class="edge">
<title>r2_graf&#45;&gt;prom</title>
<path fill="none" stroke="#1b5e20" stroke-dasharray="5,2" d="M145.64,-386.01C152.04,-369.25 160.75,-346.42 160.75,-346.42 160.75,-346.42 167.04,-331.67 173.21,-317.2"/>
<polygon fill="#1b5e20" stroke="#1b5e20" points="176.3,-318.88 177,-308.31 169.86,-316.14 176.3,-318.88"/>
<text xml:space="preserve" text-anchor="middle" x="170.88" y="-353.27" font-family="Times,serif" font-size="7.00">query</text>
</g>
<!-- r2_am -->
<g id="node9" class="node">
<title>r2_am</title>
<path fill="#66bb6a" stroke="#2e7d32" d="M281.55,-422.42C281.55,-422.42 222.45,-422.42 222.45,-422.42 216.45,-422.42 210.45,-416.42 210.45,-410.42 210.45,-410.42 210.45,-398.42 210.45,-398.42 210.45,-392.42 216.45,-386.42 222.45,-386.42 222.45,-386.42 281.55,-386.42 281.55,-386.42 287.55,-386.42 293.55,-392.42 293.55,-398.42 293.55,-398.42 293.55,-410.42 293.55,-410.42 293.55,-416.42 287.55,-422.42 281.55,-422.42"/>
<text xml:space="preserve" text-anchor="middle" x="252" y="-407.12" font-family="Helvetica,sans-Serif" font-size="9.00">Alertmanager</text>
<text xml:space="preserve" text-anchor="middle" x="252" y="-395.87" font-family="Helvetica,sans-Serif" font-size="9.00">:9093 (R2)</text>
</g>
<!-- r2_am&#45;&gt;prom -->
<g id="edge7" class="edge">
<title>r2_am&#45;&gt;prom</title>
<path fill="none" stroke="#1b5e20" stroke-dasharray="5,2" d="M241.82,-386.13C231,-367.73 213.73,-338.38 201.07,-316.85"/>
<polygon fill="#1b5e20" stroke="#1b5e20" points="204.13,-315.15 196.04,-308.3 198.09,-318.7 204.13,-315.15"/>
<text xml:space="preserve" text-anchor="middle" x="238.92" y="-353.27" font-family="Times,serif" font-size="7.00">alerts</text>
</g>
<!-- operator -->
<g id="node14" class="node">
<title>operator</title>
<path fill="#e0e0e0" stroke="#616161" d="M408.55,-306.54C408.55,-306.54 367.45,-306.54 367.45,-306.54 361.45,-306.54 355.45,-300.54 355.45,-294.54 355.45,-294.54 355.45,-282.54 355.45,-282.54 355.45,-276.54 361.45,-270.54 367.45,-270.54 367.45,-270.54 408.55,-270.54 408.55,-270.54 414.55,-270.54 420.55,-276.54 420.55,-282.54 420.55,-282.54 420.55,-294.54 420.55,-294.54 420.55,-300.54 414.55,-306.54 408.55,-306.54"/>
<text xml:space="preserve" text-anchor="middle" x="388" y="-291.24" font-family="Helvetica,sans-Serif" font-size="9.00">Operator</text>
<text xml:space="preserve" text-anchor="middle" x="388" y="-279.99" font-family="Helvetica,sans-Serif" font-size="9.00">(browser)</text>
</g>
<!-- r2_am&#45;&gt;operator -->
<g id="edge16" class="edge">
<title>r2_am&#45;&gt;operator</title>
<path fill="none" stroke="#b71c1c" stroke-dasharray="5,2" d="M272.66,-386.13C295.52,-366.98 332.57,-335.96 358.49,-314.25"/>
<polygon fill="#b71c1c" stroke="#b71c1c" points="360.57,-317.07 365.99,-307.97 356.08,-311.71 360.57,-317.07"/>
<text xml:space="preserve" text-anchor="middle" x="339.12" y="-357.77" font-family="Times,serif" font-size="7.00">webhook/</text>
<text xml:space="preserve" text-anchor="middle" x="339.12" y="-348.77" font-family="Times,serif" font-size="7.00">email (R2)</text>
</g>
<!-- api -->
<g id="node10" class="node">
<title>api</title>
<path fill="#ffcc80" stroke="#e65100" d="M518.67,-188.4C518.67,-188.4 469.32,-188.4 469.32,-188.4 463.32,-188.4 457.32,-182.4 457.32,-176.4 457.32,-176.4 457.32,-164.4 457.32,-164.4 457.32,-158.4 463.32,-152.4 469.32,-152.4 469.32,-152.4 518.67,-152.4 518.67,-152.4 524.67,-152.4 530.67,-158.4 530.67,-164.4 530.67,-164.4 530.67,-176.4 530.67,-176.4 530.67,-182.4 524.67,-188.4 518.67,-188.4"/>
<text xml:space="preserve" text-anchor="middle" x="494" y="-173.1" font-family="Helvetica,sans-Serif" font-size="9.00">Console API</text>
<text xml:space="preserve" text-anchor="middle" x="494" y="-161.85" font-family="Helvetica,sans-Serif" font-size="9.00">(server.js)</text>
</g>
<!-- api&#45;&gt;pg -->
<g id="edge8" class="edge">
<title>api&#45;&gt;pg</title>
<path fill="none" stroke="#e65100" stroke-width="2" d="M508.21,-152.17C526.44,-130.07 558.22,-91.52 579.44,-65.78"/>
<polygon fill="#e65100" stroke="#e65100" stroke-width="2" points="581.15,-69.22 584.81,-59.27 575.74,-64.76 581.15,-69.22"/>
<text xml:space="preserve" text-anchor="middle" x="551.79" y="-114.62" font-family="Times,serif" font-size="7.00">SQL</text>
</g>
<!-- api&#45;&gt;rmq -->
<g id="edge9" class="edge">
<title>api&#45;&gt;rmq</title>
<path fill="none" stroke="#e65100" stroke-width="2" d="M477.4,-152.17C457.23,-131.24 422.86,-95.55 398.22,-69.97"/>
<polygon fill="#e65100" stroke="#e65100" stroke-width="2" points="401.83,-68.67 392.37,-63.9 396.79,-73.53 401.83,-68.67"/>
<text xml:space="preserve" text-anchor="middle" x="457.5" y="-114.62" font-family="Times,serif" font-size="7.00">RPC</text>
</g>
<!-- api&#45;&gt;game -->
<g id="edge10" class="edge">
<title>api&#45;&gt;game</title>
<path fill="none" stroke="#e65100" stroke-width="2" d="M493.6,-152.17C493.11,-130.75 492.25,-93.87 491.66,-68.19"/>
<polygon fill="#e65100" stroke="#e65100" stroke-width="2" points="495.2,-69.88 491.47,-59.97 488.2,-70.04 495.2,-69.88"/>
<text xml:space="preserve" text-anchor="middle" x="501.94" y="-119.12" font-family="Times,serif" font-size="7.00">CLI</text>
<text xml:space="preserve" text-anchor="middle" x="501.94" y="-110.12" font-family="Times,serif" font-size="7.00">dune</text>
</g>
<!-- catalog -->
<g id="node15" class="node">
<title>catalog</title>
<path fill="#e0e0e0" stroke="#616161" d="M519.05,-311.17C519.05,-311.17 468.95,-311.17 468.95,-311.17 462.95,-311.17 456.95,-305.17 456.95,-299.17 456.95,-299.17 456.95,-277.9 456.95,-277.9 456.95,-271.9 462.95,-265.9 468.95,-265.9 468.95,-265.9 519.05,-265.9 519.05,-265.9 525.05,-265.9 531.05,-271.9 531.05,-277.9 531.05,-277.9 531.05,-299.17 531.05,-299.17 531.05,-305.17 525.05,-311.17 519.05,-311.17"/>
<text xml:space="preserve" text-anchor="middle" x="494" y="-296.86" font-family="Helvetica,sans-Serif" font-size="9.00">Community</text>
<text xml:space="preserve" text-anchor="middle" x="494" y="-285.61" font-family="Helvetica,sans-Serif" font-size="9.00">Catalog</text>
<text xml:space="preserve" text-anchor="middle" x="494" y="-274.36" font-family="Helvetica,sans-Serif" font-size="9.00">(GitHub)</text>
</g>
<!-- api&#45;&gt;catalog -->
<g id="edge14" class="edge">
<title>api&#45;&gt;catalog</title>
<path fill="none" stroke="#616161" stroke-dasharray="1,5" d="M492.91,-188.76C491.72,-207.56 490,-234.9 490,-234.9 490,-234.9 490,-243.9 490,-243.9 490,-243.9 490.4,-248.31 490.96,-254.33"/>
<polygon fill="#616161" stroke="#616161" points="487.44,-254.32 491.84,-263.96 494.41,-253.68 487.44,-254.32"/>
<text xml:space="preserve" text-anchor="middle" x="499" y="-237.25" font-family="Times,serif" font-size="7.00">fetch</text>
</g>
<!-- bridge -->
<g id="node11" class="node">
<title>bridge</title>
<path fill="#ffcc80" stroke="#e65100" d="M699.3,-188.4C699.3,-188.4 578.7,-188.4 578.7,-188.4 572.7,-188.4 566.7,-182.4 566.7,-176.4 566.7,-176.4 566.7,-164.4 566.7,-164.4 566.7,-158.4 572.7,-152.4 578.7,-152.4 578.7,-152.4 699.3,-152.4 699.3,-152.4 705.3,-152.4 711.3,-158.4 711.3,-164.4 711.3,-164.4 711.3,-176.4 711.3,-176.4 711.3,-182.4 705.3,-188.4 699.3,-188.4"/>
<text xml:space="preserve" text-anchor="middle" x="639" y="-173.1" font-family="Helvetica,sans-Serif" font-size="9.00">Bridge Actions</text>
<text xml:space="preserve" text-anchor="middle" x="639" y="-161.85" font-family="Helvetica,sans-Serif" font-size="9.00">(6 routes: players, ops, db)</text>
</g>
<!-- addon -->
<g id="node12" class="node">
<title>addon</title>
<path fill="#ce93d8" stroke="#6a1b9a" d="M734,-422.42C734,-422.42 704,-422.42 704,-422.42 698,-422.42 692,-416.42 692,-410.42 692,-410.42 692,-398.42 692,-398.42 692,-392.42 698,-386.42 704,-386.42 704,-386.42 734,-386.42 734,-386.42 740,-386.42 746,-392.42 746,-398.42 746,-398.42 746,-410.42 746,-410.42 746,-416.42 740,-422.42 734,-422.42"/>
<text xml:space="preserve" text-anchor="middle" x="719" y="-401.5" font-family="Helvetica,sans-Serif" font-size="9.00">Web UI</text>
</g>
<!-- providers -->
<g id="node13" class="node">
<title>providers</title>
<path fill="#e1bee7" stroke="#8e24aa" d="M756.8,-306.54C756.8,-306.54 681.2,-306.54 681.2,-306.54 675.2,-306.54 669.2,-300.54 669.2,-294.54 669.2,-294.54 669.2,-282.54 669.2,-282.54 669.2,-276.54 675.2,-270.54 681.2,-270.54 681.2,-270.54 756.8,-270.54 756.8,-270.54 762.8,-270.54 768.8,-276.54 768.8,-282.54 768.8,-282.54 768.8,-294.54 768.8,-294.54 768.8,-300.54 762.8,-306.54 756.8,-306.54"/>
<text xml:space="preserve" text-anchor="middle" x="719" y="-291.24" font-family="Helvetica,sans-Serif" font-size="9.00">Data Providers</text>
<text xml:space="preserve" text-anchor="middle" x="719" y="-279.99" font-family="Helvetica,sans-Serif" font-size="9.00">(sample | bridge)</text>
</g>
<!-- addon&#45;&gt;providers -->
<g id="edge11" class="edge">
<title>addon&#45;&gt;providers</title>
<path fill="none" stroke="#6a1b9a" stroke-width="2" d="M719,-386.13C719,-368.15 719,-339.71 719,-318.33"/>
<polygon fill="#6a1b9a" stroke="#6a1b9a" stroke-width="2" points="722.5,-320.03 719,-310.03 715.5,-320.03 722.5,-320.03"/>
</g>
<!-- providers&#45;&gt;bridge -->
<g id="edge12" class="edge">
<title>providers&#45;&gt;bridge</title>
<path fill="none" stroke="#6a1b9a" stroke-dasharray="5,2" d="M707.02,-270.15C693.81,-250.97 672.4,-219.89 657.13,-197.72"/>
<polygon fill="#6a1b9a" stroke="#6a1b9a" points="660.21,-196.03 651.66,-189.78 654.45,-200 660.21,-196.03"/>
<text xml:space="preserve" text-anchor="middle" x="712.14" y="-237.25" font-family="Times,serif" font-size="7.00">POST /bridge</text>
</g>
<!-- operator&#45;&gt;api -->
<g id="edge13" class="edge">
<title>operator&#45;&gt;api</title>
<path fill="none" stroke="#616161" stroke-dasharray="1,5" d="M403.87,-270.15C421.61,-250.71 450.51,-219.05 470.79,-196.83"/>
<polygon fill="#616161" stroke="#616161" points="473.19,-199.39 477.35,-189.65 468.02,-194.68 473.19,-199.39"/>
<text xml:space="preserve" text-anchor="middle" x="448.15" y="-237.25" font-family="Times,serif" font-size="7.00">Web UI</text>
</g>
<!-- catalog&#45;&gt;api -->
<g id="edge15" class="edge">
<title>catalog&#45;&gt;api</title>
<path fill="none" stroke="#616161" stroke-dasharray="1,5" d="M503.61,-265.47C508.32,-254.64 513,-243.9 513,-243.9 513,-243.9 513,-234.9 513,-234.9 513,-234.9 507.49,-216.5 502.41,-199.51"/>
<polygon fill="#616161" stroke="#616161" points="505.85,-198.78 499.63,-190.21 499.14,-200.79 505.85,-198.78"/>
<text xml:space="preserve" text-anchor="middle" x="522.75" y="-237.25" font-family="Times,serif" font-size="7.00">index</text>
</g>
<!-- upstream -->
<g id="node16" class="node">
<title>upstream</title>
<path fill="#e0e0e0" stroke="#616161" d="M620.92,-306.54C620.92,-306.54 579.08,-306.54 579.08,-306.54 573.08,-306.54 567.08,-300.54 567.08,-294.54 567.08,-294.54 567.08,-282.54 567.08,-282.54 567.08,-276.54 573.08,-270.54 579.08,-270.54 579.08,-270.54 620.92,-270.54 620.92,-270.54 626.92,-270.54 632.92,-276.54 632.92,-282.54 632.92,-282.54 632.92,-294.54 632.92,-294.54 632.92,-300.54 626.92,-306.54 620.92,-306.54"/>
<text xml:space="preserve" text-anchor="middle" x="600" y="-291.24" font-family="Helvetica,sans-Serif" font-size="9.00">Red&#45;Blink</text>
<text xml:space="preserve" text-anchor="middle" x="600" y="-279.99" font-family="Helvetica,sans-Serif" font-size="9.00">Upstream</text>
</g>
</g>
</svg>
