<?xml version="1.0" encoding="UTF-8" standalone="no"?>
<!DOCTYPE svg PUBLIC "-//W3C//DTD SVG 1.1//EN"
 "http://www.w3.org/Graphics/SVG/1.1/DTD/svg11.dtd">
<!-- Generated by graphviz version 14.1.2 (0)
 -->
<!-- Title: DataFlow Pages: 1 -->
<svg width="466pt" height="768pt"
 viewBox="0.00 0.00 466.00 768.00" xmlns="http://www.w3.org/2000/svg" xmlns:xlink="http://www.w3.org/1999/xlink">
<g id="graph0" class="graph" transform="scale(1 1) rotate(0) translate(4 764.06)">
<title>DataFlow</title>
<polygon fill="#ffffff" stroke="none" points="-4,4 -4,-764.06 462,-764.06 462,4 -4,4"/>
<g id="clust1" class="cluster">
<title>cluster_source</title>
<path fill="#1565c0" stroke="#1565c0" d="M20,-658.79C20,-658.79 438,-658.79 438,-658.79 444,-658.79 450,-664.79 450,-670.79 450,-670.79 450,-740.06 450,-740.06 450,-746.06 444,-752.06 438,-752.06 438,-752.06 20,-752.06 20,-752.06 14,-752.06 8,-746.06 8,-740.06 8,-740.06 8,-670.79 8,-670.79 8,-664.79 14,-658.79 20,-658.79"/>
<text xml:space="preserve" text-anchor="middle" x="229" y="-738.56" font-family="Helvetica,sans-Serif" font-size="10.00" fill="#1565c0">Data Sources</text>
</g>
<g id="clust2" class="cluster">
<title>cluster_infra</title>
<path fill="#2e7d32" stroke="#2e7d32" d="M122,-368.04C122,-368.04 307,-368.04 307,-368.04 313,-368.04 319,-374.04 319,-380.04 319,-380.04 319,-615.79 319,-615.79 319,-621.79 313,-627.79 307,-627.79 307,-627.79 122,-627.79 122,-627.79 116,-627.79 110,-621.79 110,-615.79 110,-615.79 110,-380.04 110,-380.04 110,-374.04 116,-368.04 122,-368.04"/>
<text xml:space="preserve" text-anchor="middle" x="214.5" y="-614.29" font-family="Helvetica,sans-Serif" font-size="10.00" fill="#2e7d32">Core Infrastructure</text>
</g>
<g id="clust3" class="cluster">
<title>cluster_addon</title>
<path fill="#6a1b9a" stroke="#6a1b9a" d="M77,-8C77,-8 226,-8 226,-8 232,-8 238,-14 238,-20 238,-20 238,-189.52 238,-189.52 238,-195.52 232,-201.52 226,-201.52 226,-201.52 77,-201.52 77,-201.52 71,-201.52 65,-195.52 65,-189.52 65,-189.52 65,-20 65,-20 65,-14 71,-8 77,-8"/>
<text xml:space="preserve" text-anchor="middle" x="151.5" y="-188.02" font-family="Helvetica,sans-Serif" font-size="10.00" fill="#6a1b9a">Addon (Dune Ops Observability)</text>
</g>
<g id="clust4" class="cluster">
<title>cluster_classify</title>
<path fill="#e65100" stroke="#e65100" d="M194,-232.52C194,-232.52 360,-232.52 360,-232.52 366,-232.52 372,-238.52 372,-244.52 372,-244.52 372,-325.04 372,-325.04 372,-331.04 366,-337.04 360,-337.04 360,-337.04 194,-337.04 194,-337.04 188,-337.04 182,-331.04 182,-325.04 182,-325.04 182,-244.52 182,-244.52 182,-238.52 188,-232.52 194,-232.52"/>
<text xml:space="preserve" text-anchor="middle" x="277" y="-323.54" font-family="Helvetica,sans-Serif" font-size="10.00" fill="#e65100">Telemetry Classification</text>
</g>
<!-- pg -->
<g id="node1" class="node">
<title>pg</title>
<path fill="#90caf9" stroke="#1565c0" d="M130.01,-723.31C130.01,-723.31 27.98,-723.31 27.98,-723.31 21.98,-723.31 15.98,-717.31 15.98,-711.31 15.98,-711.31 15.98,-678.79 15.98,-678.79 15.98,-672.79 21.98,-666.79 27.98,-666.79 27.98,-666.79 130.01,-666.79 130.01,-666.79 136.01,-666.79 142.01,-672.79 142.01,-678.79 142.01,-678.79 142.01,-711.31 142.01,-711.31 142.01,-717.31 136.01,-723.31 130.01,-723.31"/>
<text xml:space="preserve" text-anchor="middle" x="79" y="-709" font-family="Helvetica,sans-Serif" font-size="9.00">PostgreSQL</text>
<text xml:space="preserve" text-anchor="middle" x="79" y="-697.75" font-family="Helvetica,sans-Serif" font-size="9.00">(dune database)</text>
<text xml:space="preserve" text-anchor="middle" x="79" y="-686.5" font-family="Helvetica,sans-Serif" font-size="9.00">player_state, farm_state</text>
<text xml:space="preserve" text-anchor="middle" x="79" y="-675.25" font-family="Helvetica,sans-Serif" font-size="9.00">inventories, markers</text>
</g>
<!-- bridge -->
<g id="node6" class="node">
<title>bridge</title>
<path fill="#ffcc80" stroke="#e65100" d="M299.26,-501.04C299.26,-501.04 240.74,-501.04 240.74,-501.04 234.74,-501.04 228.74,-495.04 228.74,-489.04 228.74,-489.04 228.74,-477.04 228.74,-477.04 228.74,-471.04 234.74,-465.04 240.74,-465.04 240.74,-465.04 299.26,-465.04 299.26,-465.04 305.26,-465.04 311.26,-471.04 311.26,-477.04 311.26,-477.04 311.26,-489.04 311.26,-489.04 311.26,-495.04 305.26,-501.04 299.26,-501.04"/>
<text xml:space="preserve" text-anchor="middle" x="270" y="-485.74" font-family="Helvetica,sans-Serif" font-size="9.00">Bridge Actions</text>
<text xml:space="preserve" text-anchor="middle" x="270" y="-474.49" font-family="Helvetica,sans-Serif" font-size="9.00">(7 routes)</text>
</g>
<!-- pg&#45;&gt;bridge -->
<g id="edge1" class="edge">
<title>pg&#45;&gt;bridge</title>
<path fill="none" stroke="#1565c0" stroke-width="2" d="M89.01,-666.59C103.01,-628.17 126.75,-563.04 126.75,-563.04 126.75,-563.04 186.19,-530.26 228.49,-506.93"/>
<polygon fill="#1565c0" stroke="#1565c0" stroke-width="2" points="228.85,-510.73 235.91,-502.84 225.47,-504.6 228.85,-510.73"/>
<text xml:space="preserve" text-anchor="middle" x="148.88" y="-578.89" font-family="Times,serif" font-size="7.00">SQL queries</text>
</g>
<!-- rmq_src -->
<g id="node2" class="node">
<title>rmq_src</title>
<path fill="#90caf9" stroke="#1565c0" d="M430.14,-717.68C430.14,-717.68 319.86,-717.68 319.86,-717.68 313.86,-717.68 307.86,-711.68 307.86,-705.68 307.86,-705.68 307.86,-684.41 307.86,-684.41 307.86,-678.41 313.86,-672.41 319.86,-672.41 319.86,-672.41 430.14,-672.41 430.14,-672.41 436.14,-672.41 442.14,-678.41 442.14,-684.41 442.14,-684.41 442.14,-705.68 442.14,-705.68 442.14,-711.68 436.14,-717.68 430.14,-717.68"/>
<text xml:space="preserve" text-anchor="middle" x="375" y="-703.38" font-family="Helvetica,sans-Serif" font-size="9.00">RabbitMQ</text>
<text xml:space="preserve" text-anchor="middle" x="375" y="-692.12" font-family="Helvetica,sans-Serif" font-size="9.00">(heartbeats exchange)</text>
<text xml:space="preserve" text-anchor="middle" x="375" y="-680.88" font-family="Helvetica,sans-Serif" font-size="9.00">server commands, events</text>
</g>
<!-- rmq_src&#45;&gt;bridge -->
<g id="edge2" class="edge">
<title>rmq_src&#45;&gt;bridge</title>
<path fill="none" stroke="#1565c0" stroke-width="2" d="M366.64,-672.04C349.08,-625.86 310,-523.04 310,-523.04 310,-523.04 303.46,-516.67 295.67,-509.07"/>
<polygon fill="#1565c0" stroke="#1565c0" stroke-width="2" points="299.43,-507.85 289.83,-503.37 294.55,-512.86 299.43,-507.85"/>
<text xml:space="preserve" text-anchor="middle" x="356.46" y="-578.89" font-family="Times,serif" font-size="7.00">RPC</text>
</g>
<!-- host -->
<g id="node3" class="node">
<title>host</title>
<path fill="#90caf9" stroke="#1565c0" d="M260.26,-717.68C260.26,-717.68 189.74,-717.68 189.74,-717.68 183.74,-717.68 177.74,-711.68 177.74,-705.68 177.74,-705.68 177.74,-684.41 177.74,-684.41 177.74,-678.41 183.74,-672.41 189.74,-672.41 189.74,-672.41 260.26,-672.41 260.26,-672.41 266.26,-672.41 272.26,-678.41 272.26,-684.41 272.26,-684.41 272.26,-705.68 272.26,-705.68 272.26,-711.68 266.26,-717.68 260.26,-717.68"/>
<text xml:space="preserve" text-anchor="middle" x="225" y="-703.38" font-family="Helvetica,sans-Serif" font-size="9.00">Host / Containers</text>
<text xml:space="preserve" text-anchor="middle" x="225" y="-692.12" font-family="Helvetica,sans-Serif" font-size="9.00">/proc, cgroups</text>
<text xml:space="preserve" text-anchor="middle" x="225" y="-680.88" font-family="Helvetica,sans-Serif" font-size="9.00">Docker daemon</text>
</g>
<!-- prom -->
<g id="node4" class="node">
<title>prom</title>
<path fill="#a5d6a7" stroke="#2e7d32" d="M248.64,-599.04C248.64,-599.04 201.36,-599.04 201.36,-599.04 195.36,-599.04 189.36,-593.04 189.36,-587.04 189.36,-587.04 189.36,-575.04 189.36,-575.04 189.36,-569.04 195.36,-563.04 201.36,-563.04 201.36,-563.04 248.64,-563.04 248.64,-563.04 254.64,-563.04 260.64,-569.04 260.64,-575.04 260.64,-575.04 260.64,-587.04 260.64,-587.04 260.64,-593.04 254.64,-599.04 248.64,-599.04"/>
<text xml:space="preserve" text-anchor="middle" x="225" y="-583.74" font-family="Helvetica,sans-Serif" font-size="9.00">Prometheus</text>
<text xml:space="preserve" text-anchor="middle" x="225" y="-572.49" font-family="Helvetica,sans-Serif" font-size="9.00">:9090</text>
</g>
<!-- host&#45;&gt;prom -->
<g id="edge3" class="edge">
<title>host&#45;&gt;prom</title>
<path fill="none" stroke="#1565c0" stroke-width="2" d="M225,-671.92C225,-654.37 225,-629.71 225,-610.66"/>
<polygon fill="#1565c0" stroke="#1565c0" stroke-width="2" points="228.5,-612.38 225,-602.38 221.5,-612.38 228.5,-612.38"/>
<text xml:space="preserve" text-anchor="middle" x="237" y="-638.14" font-family="Times,serif" font-size="7.00">scrape</text>
</g>
<!-- console -->
<g id="node5" class="node">
<title>console</title>
<path fill="#ffcc80" stroke="#e65100" d="M197.51,-412.04C197.51,-412.04 152.49,-412.04 152.49,-412.04 146.49,-412.04 140.49,-406.04 140.49,-400.04 140.49,-400.04 140.49,-388.04 140.49,-388.04 140.49,-382.04 146.49,-376.04 152.49,-376.04 152.49,-376.04 197.51,-376.04 197.51,-376.04 203.51,-376.04 209.51,-382.04 209.51,-388.04 209.51,-388.04 209.51,-400.04 209.51,-400.04 209.51,-406.04 203.51,-412.04 197.51,-412.04"/>
<text xml:space="preserve" text-anchor="middle" x="175" y="-396.74" font-family="Helvetica,sans-Serif" font-size="9.00">Console API</text>
<text xml:space="preserve" text-anchor="middle" x="175" y="-385.49" font-family="Helvetica,sans-Serif" font-size="9.00">(server.js)</text>
</g>
<!-- prom&#45;&gt;console -->
<g id="edge4" class="edge">
<title>prom&#45;&gt;console</title>
<path fill="none" stroke="#2e7d32" stroke-width="2" d="M213.66,-562.9C198.3,-539.66 172.75,-501.04 172.75,-501.04 172.75,-501.04 172.75,-465.04 172.75,-465.04 172.75,-465.04 173.45,-443.12 174.08,-423.81"/>
<polygon fill="#2e7d32" stroke="#2e7d32" stroke-width="2" points="177.52,-425.48 174.35,-415.37 170.53,-425.25 177.52,-425.48"/>
<text xml:space="preserve" text-anchor="middle" x="191.88" y="-480.89" font-family="Times,serif" font-size="7.00">query (R3)</text>
</g>
<!-- prom&#45;&gt;bridge -->
<g id="edge11" class="edge">
<title>prom&#45;&gt;bridge</title>
<path fill="none" stroke="#b71c1c" stroke-dasharray="5,2" d="M233.05,-562.88C239.72,-548.63 249.35,-528.1 257.1,-511.56"/>
<polygon fill="#b71c1c" stroke="#b71c1c" points="260.16,-513.29 261.23,-502.75 253.82,-510.32 260.16,-513.29"/>
<text xml:space="preserve" text-anchor="middle" x="276.28" y="-534.39" font-family="Times,serif" font-size="7.00">metrics.query</text>
<text xml:space="preserve" text-anchor="middle" x="276.28" y="-525.39" font-family="Times,serif" font-size="7.00">(R3)</text>
</g>
<!-- providers -->
<g id="node7" class="node">
<title>providers</title>
<path fill="#e1bee7" stroke="#6a1b9a" d="M201.64,-172.77C201.64,-172.77 130.36,-172.77 130.36,-172.77 124.36,-172.77 118.36,-166.77 118.36,-160.77 118.36,-160.77 118.36,-148.77 118.36,-148.77 118.36,-142.77 124.36,-136.77 130.36,-136.77 130.36,-136.77 201.64,-136.77 201.64,-136.77 207.64,-136.77 213.64,-142.77 213.64,-148.77 213.64,-148.77 213.64,-160.77 213.64,-160.77 213.64,-166.77 207.64,-172.77 201.64,-172.77"/>
<text xml:space="preserve" text-anchor="middle" x="166" y="-157.47" font-family="Helvetica,sans-Serif" font-size="9.00">Data Providers</text>
<text xml:space="preserve" text-anchor="middle" x="166" y="-146.22" font-family="Helvetica,sans-Serif" font-size="9.00">(sample | bridge)</text>
</g>
<!-- console&#45;&gt;providers -->
<g id="edge7" class="edge">
<title>console&#45;&gt;providers</title>
<path fill="none" stroke="#6a1b9a" stroke-width="2" d="M160.39,-375.63C146.59,-359.19 128,-337.04 128,-337.04 128,-337.04 128,-232.52 128,-232.52 128,-232.52 141.42,-205.42 152.3,-183.43"/>
<polygon fill="#6a1b9a" stroke="#6a1b9a" stroke-width="2" points="154.73,-186.41 156.03,-175.9 148.46,-183.31 154.73,-186.41"/>
<text xml:space="preserve" text-anchor="middle" x="150.5" y="-272.25" font-family="Times,serif" font-size="7.00">bridge POST</text>
</g>
<!-- classify -->
<g id="node9" class="node">
<title>classify</title>
<path fill="#ffe0b2" stroke="#e65100" d="M352.39,-308.29C352.39,-308.29 201.61,-308.29 201.61,-308.29 195.61,-308.29 189.61,-302.29 189.61,-296.29 189.61,-296.29 189.61,-252.52 189.61,-252.52 189.61,-246.52 195.61,-240.52 201.61,-240.52 201.61,-240.52 352.39,-240.52 352.39,-240.52 358.39,-240.52 364.39,-246.52 364.39,-252.52 364.39,-252.52 364.39,-296.29 364.39,-296.29 364.39,-302.29 358.39,-308.29 352.39,-308.29"/>
<text xml:space="preserve" text-anchor="middle" x="277" y="-293.98" font-family="Helvetica,sans-Serif" font-size="9.00">Metric Classification</text>
<text xml:space="preserve" text-anchor="middle" x="277" y="-282.73" font-family="Helvetica,sans-Serif" font-size="9.00">Privacy: Safe | Sensitive | Unsafe</text>
<text xml:space="preserve" text-anchor="middle" x="277" y="-271.48" font-family="Helvetica,sans-Serif" font-size="9.00">Cardinality: Low | Med | High</text>
<text xml:space="preserve" text-anchor="middle" x="277" y="-260.23" font-family="Helvetica,sans-Serif" font-size="9.00">Source: DB | Runtime | Log</text>
<text xml:space="preserve" text-anchor="middle" x="277" y="-248.98" font-family="Helvetica,sans-Serif" font-size="9.00">Permission: ops:read | players:read</text>
</g>
<!-- console&#45;&gt;classify -->
<g id="edge6" class="edge">
<title>console&#45;&gt;classify</title>
<path fill="none" stroke="#e65100" stroke-dasharray="5,2" d="M190.05,-375.68C203.43,-360.25 223.54,-337.06 241.04,-316.87"/>
<polygon fill="#e65100" stroke="#e65100" points="243.46,-319.43 247.37,-309.58 238.17,-314.84 243.46,-319.43"/>
<text xml:space="preserve" text-anchor="middle" x="241.24" y="-347.39" font-family="Times,serif" font-size="7.00">validate metric</text>
</g>
<!-- bridge&#45;&gt;console -->
<g id="edge5" class="edge">
<title>bridge&#45;&gt;console</title>
<path fill="none" stroke="#2e7d32" stroke-width="2" d="M251.23,-464.85C237.27,-452.07 218,-434.42 202.33,-420.07"/>
<polygon fill="#2e7d32" stroke="#2e7d32" stroke-width="2" points="206.03,-418.71 196.29,-414.53 201.3,-423.87 206.03,-418.71"/>
<text xml:space="preserve" text-anchor="middle" x="235.1" y="-436.39" font-family="Times,serif" font-size="7.00">JSON</text>
</g>
<!-- ui -->
<g id="node8" class="node">
<title>ui</title>
<path fill="#ce93d8" stroke="#8e24aa" d="M210.76,-83.77C210.76,-83.77 143.24,-83.77 143.24,-83.77 137.24,-83.77 131.24,-77.77 131.24,-71.77 131.24,-71.77 131.24,-28 131.24,-28 131.24,-22 137.24,-16 143.24,-16 143.24,-16 210.76,-16 210.76,-16 216.76,-16 222.76,-22 222.76,-28 222.76,-28 222.76,-71.77 222.76,-71.77 222.76,-77.77 216.76,-83.77 210.76,-83.77"/>
<text xml:space="preserve" text-anchor="middle" x="177" y="-69.46" font-family="Helvetica,sans-Serif" font-size="9.00">Web UI Panels</text>
<text xml:space="preserve" text-anchor="middle" x="177" y="-58.21" font-family="Helvetica,sans-Serif" font-size="9.00">Player Summary</text>
<text xml:space="preserve" text-anchor="middle" x="177" y="-46.96" font-family="Helvetica,sans-Serif" font-size="9.00">KPI Dashboard</text>
<text xml:space="preserve" text-anchor="middle" x="177" y="-35.71" font-family="Helvetica,sans-Serif" font-size="9.00">OPS Health</text>
<text xml:space="preserve" text-anchor="middle" x="177" y="-24.46" font-family="Helvetica,sans-Serif" font-size="9.00">SOC/OPS Center</text>
</g>
<!-- providers&#45;&gt;ui -->
<g id="edge8" class="edge">
<title>providers&#45;&gt;ui</title>
<path fill="none" stroke="#6a1b9a" stroke-width="2" d="M167.87,-136.32C169.07,-125.1 170.68,-109.98 172.22,-95.57"/>
<polygon fill="#6a1b9a" stroke="#6a1b9a" stroke-width="2" points="175.53,-97.59 173.11,-87.27 168.57,-96.84 175.53,-97.59"/>
<text xml:space="preserve" text-anchor="middle" x="196.72" y="-108.12" font-family="Times,serif" font-size="7.00">rendered data</text>
</g>
<!-- classify&#45;&gt;providers -->
<g id="edge9" class="edge">
<title>classify&#45;&gt;providers</title>
<path fill="none" stroke="#6a1b9a" stroke-width="2" d="M245.78,-240.32C228.04,-221.52 206.17,-198.34 189.82,-181.01"/>
<polygon fill="#6a1b9a" stroke="#6a1b9a" stroke-width="2" points="193.76,-180.09 184.35,-175.22 188.67,-184.9 193.76,-180.09"/>
<text xml:space="preserve" text-anchor="middle" x="245.45" y="-211.87" font-family="Times,serif" font-size="7.00">allow/block</text>
</g>
<!-- operator -->
<g id="node10" class="node">
<title>operator</title>
<path fill="#e0e0e0" stroke="#616161" d="M298.39,-172.77C298.39,-172.77 261.61,-172.77 261.61,-172.77 255.61,-172.77 249.61,-166.77 249.61,-160.77 249.61,-160.77 249.61,-148.77 249.61,-148.77 249.61,-142.77 255.61,-136.77 261.61,-136.77 261.61,-136.77 298.39,-136.77 298.39,-136.77 304.39,-136.77 310.39,-142.77 310.39,-148.77 310.39,-148.77 310.39,-160.77 310.39,-160.77 310.39,-166.77 304.39,-172.77 298.39,-172.77"/>
<text xml:space="preserve" text-anchor="middle" x="280" y="-157.47" font-family="Helvetica,sans-Serif" font-size="9.00">Operator</text>
<text xml:space="preserve" text-anchor="middle" x="280" y="-146.22" font-family="Helvetica,sans-Serif" font-size="9.00">(browser)</text>
</g>
<!-- operator&#45;&gt;ui -->
<g id="edge10" class="edge">
<title>operator&#45;&gt;ui</title>
<path fill="none" stroke="#616161" stroke-dasharray="5,2" d="M262.67,-136.44C248.92,-122.69 232,-105.77 232,-105.77 232,-105.77 226.05,-99.83 218.06,-91.86"/>
<polygon fill="#616161" stroke="#616161" points="220.88,-89.73 211.33,-85.15 215.94,-94.69 220.88,-89.73"/>
<text xml:space="preserve" text-anchor="middle" x="259.55" y="-108.12" font-family="Times,serif" font-size="7.00">Dashboard</text>
</g>
</g>
</svg>
