<?xml version="1.0" encoding="UTF-8" standalone="no"?>
<!DOCTYPE svg PUBLIC "-//W3C//DTD SVG 1.1//EN"
 "http://www.w3.org/Graphics/SVG/1.1/DTD/svg11.dtd">
<!-- Generated by graphviz version 14.1.2 (0)
 -->
<!-- Title: DeathPollerArch Pages: 1 -->
<svg width="289pt" height="469pt"
 viewBox="0.00 0.00 289.00 469.00" xmlns="http://www.w3.org/2000/svg" xmlns:xlink="http://www.w3.org/1999/xlink">
<g id="graph0" class="graph" transform="scale(1 1) rotate(0) translate(4 465.06)">
<title>DeathPollerArch</title>
<polygon fill="#ffffff" stroke="none" points="-4,4 -4,-465.06 285,-465.06 285,4 -4,4"/>
<g id="clust1" class="cluster">
<title>cluster_db</title>
<path fill="#1565c0" stroke="#1565c0" d="M21,-348.54C21,-348.54 260,-348.54 260,-348.54 266,-348.54 272,-354.54 272,-360.54 272,-360.54 272,-441.06 272,-441.06 272,-447.06 266,-453.06 260,-453.06 260,-453.06 21,-453.06 21,-453.06 15,-453.06 9,-447.06 9,-441.06 9,-441.06 9,-360.54 9,-360.54 9,-354.54 15,-348.54 21,-348.54"/>
<text xml:space="preserve" text-anchor="middle" x="140.5" y="-439.56" font-family="Helvetica,sans-Serif" font-size="10.00" fill="#1565c0">PostgreSQL (dune schema)</text>
</g>
<g id="clust2" class="cluster">
<title>cluster_poller</title>
<path fill="#e65100" stroke="#e65100" d="M20,-86.62C20,-86.62 120,-86.62 120,-86.62 126,-86.62 132,-92.62 132,-98.62 132,-98.62 132,-305.54 132,-305.54 132,-311.54 126,-317.54 120,-317.54 120,-317.54 20,-317.54 20,-317.54 14,-317.54 8,-311.54 8,-305.54 8,-305.54 8,-98.62 8,-98.62 8,-92.62 14,-86.62 20,-86.62"/>
<text xml:space="preserve" text-anchor="middle" x="70" y="-304.04" font-family="Helvetica,sans-Serif" font-size="10.00" fill="#e65100">Console API (Node.js)</text>
</g>
<g id="clust3" class="cluster">
<title>cluster_bridge</title>
<path fill="#6a1b9a" stroke="#6a1b9a" d="M165,-81C165,-81 261,-81 261,-81 267,-81 273,-87 273,-93 273,-93 273,-288.66 273,-288.66 273,-294.66 267,-300.66 261,-300.66 261,-300.66 165,-300.66 165,-300.66 159,-300.66 153,-294.66 153,-288.66 153,-288.66 153,-93 153,-93 153,-87 159,-81 165,-81"/>
<text xml:space="preserve" text-anchor="middle" x="213" y="-287.16" font-family="Helvetica,sans-Serif" font-size="10.00" fill="#6a1b9a">Addon Bridge</text>
</g>
<!-- ps -->
<g id="node1" class="node">
<title>ps</title>
<path fill="#90caf9" stroke="#1565c0" d="M110.52,-418.68C110.52,-418.68 29.48,-418.68 29.48,-418.68 23.48,-418.68 17.48,-412.68 17.48,-406.68 17.48,-406.68 17.48,-374.16 17.48,-374.16 17.48,-368.16 23.48,-362.16 29.48,-362.16 29.48,-362.16 110.52,-362.16 110.52,-362.16 116.52,-362.16 122.52,-368.16 122.52,-374.16 122.52,-374.16 122.52,-406.68 122.52,-406.68 122.52,-412.68 116.52,-418.68 110.52,-418.68"/>
<text xml:space="preserve" text-anchor="middle" x="70" y="-404.37" font-family="Helvetica,sans-Serif" font-size="9.00">player_state</text>
<text xml:space="preserve" text-anchor="middle" x="70" y="-393.12" font-family="Helvetica,sans-Serif" font-size="9.00">(VIEW)</text>
<text xml:space="preserve" text-anchor="middle" x="70" y="-381.87" font-family="Helvetica,sans-Serif" font-size="9.00">player_controller_id</text>
<text xml:space="preserve" text-anchor="middle" x="70" y="-370.62" font-family="Helvetica,sans-Serif" font-size="9.00">life_state</text>
</g>
<!-- poller -->
<g id="node3" class="node">
<title>poller</title>
<path fill="#ffcc80" stroke="#e65100" d="M112.39,-288.79C112.39,-288.79 27.61,-288.79 27.61,-288.79 21.61,-288.79 15.61,-282.79 15.61,-276.79 15.61,-276.79 15.61,-210.52 15.61,-210.52 15.61,-204.52 21.61,-198.52 27.61,-198.52 27.61,-198.52 112.39,-198.52 112.39,-198.52 118.39,-198.52 124.39,-204.52 124.39,-210.52 124.39,-210.52 124.39,-276.79 124.39,-276.79 124.39,-282.79 118.39,-288.79 112.39,-288.79"/>
<text xml:space="preserve" text-anchor="middle" x="70" y="-274.48" font-family="Helvetica,sans-Serif" font-size="9.00">deathPoller.js</text>
<text xml:space="preserve" text-anchor="middle" x="70" y="-263.23" font-family="Helvetica,sans-Serif" font-size="9.00">(every 10s)</text>
<text xml:space="preserve" text-anchor="middle" x="70" y="-251.98" font-family="Helvetica,sans-Serif" font-size="9.00">1. query life_state</text>
<text xml:space="preserve" text-anchor="middle" x="70" y="-240.73" font-family="Helvetica,sans-Serif" font-size="9.00">2. load snapshot</text>
<text xml:space="preserve" text-anchor="middle" x="70" y="-229.48" font-family="Helvetica,sans-Serif" font-size="9.00">3. detect transitions</text>
<text xml:space="preserve" text-anchor="middle" x="70" y="-218.23" font-family="Helvetica,sans-Serif" font-size="9.00">4. INSERT deaths</text>
<text xml:space="preserve" text-anchor="middle" x="70" y="-206.98" font-family="Helvetica,sans-Serif" font-size="9.00">5. save snapshot</text>
</g>
<!-- ps&#45;&gt;poller -->
<g id="edge1" class="edge">
<title>ps&#45;&gt;poller</title>
<path fill="none" stroke="#1565c0" stroke-width="2" d="M68.88,-361.98C68.31,-348.26 67.75,-334.54 67.75,-334.54 67.75,-334.54 67.75,-325.54 67.75,-325.54 67.75,-325.54 68.06,-314.25 68.46,-300.11"/>
<polygon fill="#1565c0" stroke="#1565c0" stroke-width="2" points="71.91,-302 68.69,-291.91 64.91,-301.81 71.91,-302"/>
<text xml:space="preserve" text-anchor="middle" x="82.38" y="-327.89" font-family="Times,serif" font-size="7.00">SELECT</text>
</g>
<!-- pdl -->
<g id="node2" class="node">
<title>pdl</title>
<path fill="#a5d6a7" stroke="#2e7d32" d="M251.51,-424.31C251.51,-424.31 170.49,-424.31 170.49,-424.31 164.49,-424.31 158.49,-418.31 158.49,-412.31 158.49,-412.31 158.49,-368.54 158.49,-368.54 158.49,-362.54 164.49,-356.54 170.49,-356.54 170.49,-356.54 251.51,-356.54 251.51,-356.54 257.51,-356.54 263.51,-362.54 263.51,-368.54 263.51,-368.54 263.51,-412.31 263.51,-412.31 263.51,-418.31 257.51,-424.31 251.51,-424.31"/>
<text xml:space="preserve" text-anchor="middle" x="211" y="-410" font-family="Helvetica,sans-Serif" font-size="9.00">player_death_log</text>
<text xml:space="preserve" text-anchor="middle" x="211" y="-398.75" font-family="Helvetica,sans-Serif" font-size="9.00">(NEW)</text>
<text xml:space="preserve" text-anchor="middle" x="211" y="-387.5" font-family="Helvetica,sans-Serif" font-size="9.00">player_controller_id</text>
<text xml:space="preserve" text-anchor="middle" x="211" y="-376.25" font-family="Helvetica,sans-Serif" font-size="9.00">death_time</text>
<text xml:space="preserve" text-anchor="middle" x="211" y="-365" font-family="Helvetica,sans-Serif" font-size="9.00">death_cause</text>
</g>
<!-- bridge -->
<g id="node5" class="node">
<title>bridge</title>
<path fill="#ce93d8" stroke="#6a1b9a" d="M253.14,-271.91C253.14,-271.91 172.86,-271.91 172.86,-271.91 166.86,-271.91 160.86,-265.91 160.86,-259.91 160.86,-259.91 160.86,-227.39 160.86,-227.39 160.86,-221.39 166.86,-215.39 172.86,-215.39 172.86,-215.39 253.14,-215.39 253.14,-215.39 259.14,-215.39 265.14,-221.39 265.14,-227.39 265.14,-227.39 265.14,-259.91 265.14,-259.91 265.14,-265.91 259.14,-271.91 253.14,-271.91"/>
<text xml:space="preserve" text-anchor="middle" x="213" y="-257.6" font-family="Helvetica,sans-Serif" font-size="9.00">ops.combat.deaths</text>
<text xml:space="preserve" text-anchor="middle" x="213" y="-246.35" font-family="Helvetica,sans-Serif" font-size="9.00">(ops:read)</text>
<text xml:space="preserve" text-anchor="middle" x="213" y="-235.1" font-family="Helvetica,sans-Serif" font-size="9.00">SELECT aggregate</text>
<text xml:space="preserve" text-anchor="middle" x="213" y="-223.85" font-family="Helvetica,sans-Serif" font-size="9.00">from death_log</text>
</g>
<!-- pdl&#45;&gt;bridge -->
<g id="edge4" class="edge">
<title>pdl&#45;&gt;bridge</title>
<path fill="none" stroke="#6a1b9a" stroke-width="2" d="M211.46,-356.21C211.76,-334.6 212.15,-306.32 212.46,-283.65"/>
<polygon fill="#6a1b9a" stroke="#6a1b9a" stroke-width="2" points="215.94,-285.44 212.58,-275.39 208.94,-285.34 215.94,-285.44"/>
<text xml:space="preserve" text-anchor="middle" x="226.51" y="-327.89" font-family="Times,serif" font-size="7.00">SELECT</text>
</g>
<!-- poller&#45;&gt;pdl -->
<g id="edge2" class="edge">
<title>poller&#45;&gt;pdl</title>
<path fill="none" stroke="#e65100" stroke-width="2" d="M113.42,-289.24C131.67,-307.97 152.77,-329.64 170.67,-348.02"/>
<polygon fill="#e65100" stroke="#e65100" stroke-width="2" points="167.06,-349.32 176.54,-354.04 172.07,-344.44 167.06,-349.32"/>
<text xml:space="preserve" text-anchor="middle" x="171.53" y="-327.89" font-family="Times,serif" font-size="7.00">INSERT</text>
</g>
<!-- snap -->
<g id="node4" class="node">
<title>snap</title>
<polygon fill="#ffe0b2" stroke="#f57c00" points="124.39,-139.89 121.39,-143.89 100.39,-143.89 97.39,-139.89 15.61,-139.89 15.61,-94.62 124.39,-94.62 124.39,-139.89"/>
<text xml:space="preserve" text-anchor="middle" x="70" y="-125.58" font-family="Helvetica,sans-Serif" font-size="9.00">Snapshot</text>
<text xml:space="preserve" text-anchor="middle" x="70" y="-114.33" font-family="Helvetica,sans-Serif" font-size="9.00">runtime/generated/</text>
<text xml:space="preserve" text-anchor="middle" x="70" y="-103.08" font-family="Helvetica,sans-Serif" font-size="9.00">death&#45;snapshot.json</text>
</g>
<!-- poller&#45;&gt;snap -->
<g id="edge3" class="edge">
<title>poller&#45;&gt;snap</title>
<path fill="none" stroke="#e65100" stroke-dasharray="5,2" d="M70,-198.1C70,-182.74 70,-165.81 70,-151.52"/>
<polygon fill="#e65100" stroke="#e65100" points="73.5,-151.73 70,-141.73 66.5,-151.73 73.5,-151.73"/>
<text xml:space="preserve" text-anchor="middle" x="88.75" y="-169.87" font-family="Times,serif" font-size="7.00">read/write</text>
</g>
<!-- addon -->
<g id="node6" class="node">
<title>addon</title>
<path fill="#e1bee7" stroke="#8e24aa" d="M251.39,-145.52C251.39,-145.52 172.61,-145.52 172.61,-145.52 166.61,-145.52 160.61,-139.52 160.61,-133.52 160.61,-133.52 160.61,-101 160.61,-101 160.61,-95 166.61,-89 172.61,-89 172.61,-89 251.39,-89 251.39,-89 257.39,-89 263.39,-95 263.39,-101 263.39,-101 263.39,-133.52 263.39,-133.52 263.39,-139.52 257.39,-145.52 251.39,-145.52"/>
<text xml:space="preserve" text-anchor="middle" x="212" y="-131.21" font-family="Helvetica,sans-Serif" font-size="9.00">Addon Combat Tab</text>
<text xml:space="preserve" text-anchor="middle" x="212" y="-119.96" font-family="Helvetica,sans-Serif" font-size="9.00">renderCombat()</text>
<text xml:space="preserve" text-anchor="middle" x="212" y="-108.71" font-family="Helvetica,sans-Serif" font-size="9.00">totalDeaths</text>
<text xml:space="preserve" text-anchor="middle" x="212" y="-97.46" font-family="Helvetica,sans-Serif" font-size="9.00">deathsByCause</text>
</g>
<!-- bridge&#45;&gt;addon -->
<g id="edge5" class="edge">
<title>bridge&#45;&gt;addon</title>
<path fill="none" stroke="#6a1b9a" stroke-width="2" d="M212.78,-215.05C212.64,-198.06 212.46,-176.02 212.31,-157.26"/>
<polygon fill="#6a1b9a" stroke="#6a1b9a" stroke-width="2" points="215.83,-158.79 212.25,-148.82 208.83,-158.84 215.83,-158.79"/>
<text xml:space="preserve" text-anchor="middle" x="239.82" y="-169.87" font-family="Times,serif" font-size="7.00">JSON response</text>
</g>
<!-- operator -->
<g id="node7" class="node">
<title>operator</title>
<path fill="#e0e0e0" stroke="#616161" d="M236.76,-36C236.76,-36 187.24,-36 187.24,-36 181.24,-36 175.24,-30 175.24,-24 175.24,-24 175.24,-12 175.24,-12 175.24,-6 181.24,0 187.24,0 187.24,0 236.76,0 236.76,0 242.76,0 248.76,-6 248.76,-12 248.76,-12 248.76,-24 248.76,-24 248.76,-30 242.76,-36 236.76,-36"/>
<text xml:space="preserve" text-anchor="middle" x="212" y="-20.7" font-family="Helvetica,sans-Serif" font-size="9.00">Operator</text>
<text xml:space="preserve" text-anchor="middle" x="212" y="-9.45" font-family="Helvetica,sans-Serif" font-size="9.00">(Dashboard)</text>
</g>
<!-- addon&#45;&gt;operator -->
<g id="edge6" class="edge">
<title>addon&#45;&gt;operator</title>
<path fill="none" stroke="#616161" stroke-dasharray="5,2" d="M212,-88.65C212,-75.75 212,-60.41 212,-47.41"/>
<polygon fill="#616161" stroke="#616161" points="215.5,-47.78 212,-37.78 208.5,-47.78 215.5,-47.78"/>
<text xml:space="preserve" text-anchor="middle" x="231.5" y="-60.35" font-family="Times,serif" font-size="7.00">Dashboard</text>
</g>
</g>
</svg>
