<?xml version="1.0" encoding="UTF-8" standalone="no"?>
<!DOCTYPE svg PUBLIC "-//W3C//DTD SVG 1.1//EN"
 "http://www.w3.org/Graphics/SVG/1.1/DTD/svg11.dtd">
<!-- Generated by graphviz version 14.1.2 (0)
 -->
<!-- Title: DeathPollerTimeline Pages: 1 -->
<svg width="1169pt" height="212pt"
 viewBox="0.00 0.00 1169.00 212.00" xmlns="http://www.w3.org/2000/svg" xmlns:xlink="http://www.w3.org/1999/xlink">
<g id="graph0" class="graph" transform="scale(1 1) rotate(0) translate(4 207.94)">
<title>DeathPollerTimeline</title>
<polygon fill="#ffffff" stroke="none" points="-4,4 -4,-207.94 1165.49,-207.94 1165.49,4 -4,4"/>
<g id="clust1" class="cluster">
<title>cluster_before</title>
<path fill="#d32f2f" stroke="#d32f2f" d="M20,-20.95C20,-20.95 358,-20.95 358,-20.95 364,-20.95 370,-26.95 370,-32.95 370,-32.95 370,-81.94 370,-81.94 370,-87.94 364,-93.94 358,-93.94 358,-93.94 20,-93.94 20,-93.94 14,-93.94 8,-87.94 8,-81.94 8,-81.94 8,-32.94 8,-32.94 8,-26.94 14,-20.95 20,-20.95"/>
<text xml:space="preserve" text-anchor="middle" x="189" y="-81.39" font-family="Helvetica,sans-Serif" font-size="9.00" fill="#d32f2f">Before Deployment</text>
</g>
<g id="clust2" class="cluster">
<title>cluster_after</title>
<path fill="#2e7d32" stroke="#2e7d32" d="M590,-46.95C590,-46.95 1141.49,-46.95 1141.49,-46.95 1147.49,-46.95 1153.49,-52.95 1153.49,-58.95 1153.49,-58.95 1153.49,-183.94 1153.49,-183.94 1153.49,-189.94 1147.49,-195.94 1141.49,-195.94 1141.49,-195.94 590,-195.94 590,-195.94 584,-195.94 578,-189.94 578,-183.94 578,-183.94 578,-58.94 578,-58.94 578,-52.94 584,-46.95 590,-46.95"/>
<text xml:space="preserve" text-anchor="middle" x="865.75" y="-183.39" font-family="Helvetica,sans-Serif" font-size="9.00" fill="#2e7d32">After Deployment</text>
</g>
<!-- b1 -->
<g id="node1" class="node">
<title>b1</title>
<path fill="#ffcdd2" stroke="#d32f2f" d="M148,-66.89C148,-66.89 28,-66.89 28,-66.89 22,-66.89 16,-60.89 16,-54.89 16,-54.89 16,-41 16,-41 16,-35 22,-29 28,-29 28,-29 148,-29 148,-29 154,-29 160,-35 160,-41 160,-41 160,-54.89 160,-54.89 160,-60.89 154,-66.89 148,-66.89"/>
<text xml:space="preserve" text-anchor="middle" x="88" y="-54.97" font-family="Helvetica,sans-Serif" font-size="8.00">player_state</text>
<text xml:space="preserve" text-anchor="middle" x="88" y="-45.22" font-family="Helvetica,sans-Serif" font-size="8.00">life_state = current only</text>
<text xml:space="preserve" text-anchor="middle" x="88" y="-35.47" font-family="Helvetica,sans-Serif" font-size="8.00">no death history</text>
</g>
<!-- b2 -->
<g id="node2" class="node">
<title>b2</title>
<path fill="#ffcdd2" stroke="#d32f2f" d="M350,-66.89C350,-66.89 230,-66.89 230,-66.89 224,-66.89 218,-60.89 218,-54.89 218,-54.89 218,-41 218,-41 218,-35 224,-29 230,-29 230,-29 350,-29 350,-29 356,-29 362,-35 362,-41 362,-41 362,-54.89 362,-54.89 362,-60.89 356,-66.89 350,-66.89"/>
<text xml:space="preserve" text-anchor="middle" x="290" y="-54.97" font-family="Helvetica,sans-Serif" font-size="8.00">Combat tab</text>
<text xml:space="preserve" text-anchor="middle" x="290" y="-45.22" font-family="Helvetica,sans-Serif" font-size="8.00">shows 0 / empty</text>
<text xml:space="preserve" text-anchor="middle" x="290" y="-35.47" font-family="Helvetica,sans-Serif" font-size="8.00">no data source</text>
</g>
<!-- b1&#45;&gt;b2 -->
<g id="edge1" class="edge">
<title>b1&#45;&gt;b2</title>
<path fill="none" stroke="#d32f2f" stroke-width="2" d="M160.36,-47.95C160.36,-47.95 206.3,-47.95 206.3,-47.95"/>
<polygon fill="#d32f2f" stroke="#d32f2f" stroke-width="2" points="204.78,-51.45 214.78,-47.95 204.78,-44.45 204.78,-51.45"/>
</g>
<!-- deploy -->
<g id="node3" class="node">
<title>deploy</title>
<ellipse fill="none" stroke="#e65100" stroke-width="2" cx="474" cy="-47.94" rx="54" ry="19.9"/>
<text xml:space="preserve" text-anchor="middle" x="474" y="-50.09" font-family="Helvetica,sans-Serif" font-size="8.00">Deploy</text>
<text xml:space="preserve" text-anchor="middle" x="474" y="-40.34" font-family="Helvetica,sans-Serif" font-size="8.00">Poller</text>
</g>
<!-- b2&#45;&gt;deploy -->
<g id="edge2" class="edge">
<title>b2&#45;&gt;deploy</title>
<path fill="none" stroke="#e65100" stroke-width="2" d="M362.46,-47.95C362.46,-47.95 408.01,-47.95 408.01,-47.95"/>
<polygon fill="#e65100" stroke="#e65100" stroke-width="2" points="406.5,-51.45 416.5,-47.95 406.5,-44.45 406.5,-51.45"/>
</g>
<!-- a1 -->
<g id="node4" class="node">
<title>a1</title>
<path fill="#a5d6a7" stroke="#2e7d32" d="M718,-97.89C718,-97.89 598,-97.89 598,-97.89 592,-97.89 586,-91.89 586,-85.89 586,-85.89 586,-72 586,-72 586,-66 592,-60 598,-60 598,-60 718,-60 718,-60 724,-60 730,-66 730,-72 730,-72 730,-85.89 730,-85.89 730,-91.89 724,-97.89 718,-97.89"/>
<text xml:space="preserve" text-anchor="middle" x="658" y="-85.97" font-family="Helvetica,sans-Serif" font-size="8.00">player_death_log</text>
<text xml:space="preserve" text-anchor="middle" x="658" y="-76.22" font-family="Helvetica,sans-Serif" font-size="8.00">accumulates over time</text>
<text xml:space="preserve" text-anchor="middle" x="658" y="-66.47" font-family="Helvetica,sans-Serif" font-size="8.00">starting from deploy</text>
</g>
<!-- deploy&#45;&gt;a1 -->
<g id="edge3" class="edge">
<title>deploy&#45;&gt;a1</title>
<path fill="none" stroke="#2e7d32" stroke-width="2" d="M507.75,-63.92C507.75,-63.92 574.07,-63.92 574.07,-63.92"/>
<polygon fill="#2e7d32" stroke="#2e7d32" stroke-width="2" points="572.56,-67.42 582.56,-63.92 572.56,-60.42 572.56,-67.42"/>
</g>
<!-- note -->
<g id="node8" class="node">
<title>note</title>
<polygon fill="#fff9c4" stroke="#f9a825" points="701.58,-37.89 608.42,-37.89 608.42,0 707.58,0 707.58,-31.89 701.58,-37.89"/>
<polyline fill="none" stroke="#f9a825" points="701.58,-37.89 701.58,-31.89"/>
<polyline fill="none" stroke="#f9a825" points="707.58,-31.89 701.58,-31.89"/>
<text xml:space="preserve" text-anchor="middle" x="658" y="-25.97" font-family="Helvetica,sans-Serif" font-size="8.00">Starts counting from</text>
<text xml:space="preserve" text-anchor="middle" x="658" y="-16.22" font-family="Helvetica,sans-Serif" font-size="8.00">deployment time.</text>
<text xml:space="preserve" text-anchor="middle" x="658" y="-6.47" font-family="Helvetica,sans-Serif" font-size="8.00">No historical backfill.</text>
</g>
<!-- deploy&#45;&gt;note -->
<g id="edge7" class="edge">
<title>deploy&#45;&gt;note</title>
<path fill="none" stroke="#f9a825" stroke-dasharray="1,5" d="M510.79,-32.97C538.69,-32.97 577.33,-32.97 608.03,-32.97"/>
</g>
<!-- a2 -->
<g id="node5" class="node">
<title>a2</title>
<path fill="#a5d6a7" stroke="#2e7d32" d="M934.4,-97.89C934.4,-97.89 800,-97.89 800,-97.89 794,-97.89 788,-91.89 788,-85.89 788,-85.89 788,-72 788,-72 788,-66 794,-60 800,-60 800,-60 934.4,-60 934.4,-60 940.4,-60 946.4,-66 946.4,-72 946.4,-72 946.4,-85.89 946.4,-85.89 946.4,-91.89 940.4,-97.89 934.4,-97.89"/>
<text xml:space="preserve" text-anchor="middle" x="867.2" y="-85.97" font-family="Helvetica,sans-Serif" font-size="8.00">Combat tab</text>
<text xml:space="preserve" text-anchor="middle" x="867.2" y="-76.22" font-family="Helvetica,sans-Serif" font-size="8.00">live aggregate counts</text>
<text xml:space="preserve" text-anchor="middle" x="867.2" y="-66.47" font-family="Helvetica,sans-Serif" font-size="8.00">totalDeaths, deathsByCause</text>
</g>
<!-- a1&#45;&gt;a2 -->
<g id="edge4" class="edge">
<title>a1&#45;&gt;a2</title>
<path fill="none" stroke="#2e7d32" stroke-width="2" d="M730.29,-78.94C730.29,-78.94 776.24,-78.94 776.24,-78.94"/>
<polygon fill="#2e7d32" stroke="#2e7d32" stroke-width="2" points="774.73,-82.45 784.73,-78.95 774.73,-75.45 774.73,-82.45"/>
</g>
<!-- a3 -->
<g id="node6" class="node">
<title>a3</title>
<path fill="#c8e6c9" stroke="#388e3c" d="M1123.24,-85.42C1123.24,-85.42 1113.17,-93.44 1113.17,-93.44 1108.48,-97.18 1097.79,-100.92 1091.79,-100.92 1091.79,-100.92 1058.1,-100.92 1058.1,-100.92 1052.1,-100.92 1041.41,-97.18 1036.72,-93.44 1036.72,-93.44 1026.65,-85.42 1026.65,-85.42 1021.95,-81.68 1021.95,-74.21 1026.65,-70.47 1026.65,-70.47 1036.72,-62.45 1036.72,-62.45 1041.41,-58.71 1052.1,-54.97 1058.1,-54.97 1058.1,-54.97 1091.79,-54.97 1091.79,-54.97 1097.79,-54.97 1108.48,-58.71 1113.17,-62.45 1113.17,-62.45 1123.24,-70.47 1123.24,-70.47 1127.94,-74.21 1127.94,-81.68 1123.24,-85.42"/>
<text xml:space="preserve" text-anchor="middle" x="1074.95" y="-80.09" font-family="Helvetica,sans-Serif" font-size="8.00">After 1 hour</text>
<text xml:space="preserve" text-anchor="middle" x="1074.95" y="-70.34" font-family="Helvetica,sans-Serif" font-size="8.00">~5&#45;15 deaths</text>
</g>
<!-- a2&#45;&gt;a3 -->
<g id="edge5" class="edge">
<title>a2&#45;&gt;a3</title>
<path fill="none" stroke="#2e7d32" stroke-width="2" d="M946.63,-72.63C946.63,-72.63 1011.66,-72.63 1011.66,-72.63"/>
<polygon fill="#2e7d32" stroke="#2e7d32" stroke-width="2" points="1010.15,-76.13 1020.15,-72.63 1010.15,-69.13 1010.15,-76.13"/>
</g>
<!-- a4 -->
<g id="node7" class="node">
<title>a4</title>
<path fill="#c8e6c9" stroke="#388e3c" d="M1135.44,-152.49C1135.44,-152.49 1120.27,-162.37 1120.27,-162.37 1115.25,-165.65 1104.22,-168.92 1098.22,-168.92 1098.22,-168.92 1051.67,-168.92 1051.67,-168.92 1045.67,-168.92 1034.65,-165.65 1029.62,-162.37 1029.62,-162.37 1014.45,-152.49 1014.45,-152.49 1009.43,-149.22 1009.43,-142.67 1014.45,-139.4 1014.45,-139.4 1029.62,-129.52 1029.62,-129.52 1034.65,-126.24 1045.67,-122.97 1051.67,-122.97 1051.67,-122.97 1098.22,-122.97 1098.22,-122.97 1104.22,-122.97 1115.25,-126.24 1120.27,-129.52 1120.27,-129.52 1135.44,-139.4 1135.44,-139.4 1140.46,-142.67 1140.46,-149.22 1135.44,-152.49"/>
<text xml:space="preserve" text-anchor="middle" x="1074.95" y="-148.09" font-family="Helvetica,sans-Serif" font-size="8.00">After 1 week</text>
<text xml:space="preserve" text-anchor="middle" x="1074.95" y="-138.34" font-family="Helvetica,sans-Serif" font-size="8.00">~200&#45;500 deaths</text>
</g>
<!-- a2&#45;&gt;a4 -->
<g id="edge6" class="edge">
<title>a2&#45;&gt;a4</title>
<path fill="none" stroke="#2e7d32" stroke-width="2" d="M946.81,-85.26C979.79,-85.26 1010.49,-85.26 1010.49,-85.26 1010.49,-85.26 1010.49,-130.07 1010.49,-130.07"/>
<polygon fill="#2e7d32" stroke="#2e7d32" stroke-width="2" points="1006.99,-128.55 1010.49,-138.55 1013.99,-128.55 1006.99,-128.55"/>
</g>
</g>
</svg>
