<?xml version="1.0" encoding="UTF-8" standalone="no"?>
<!DOCTYPE svg PUBLIC "-//W3C//DTD SVG 1.1//EN"
 "http://www.w3.org/Graphics/SVG/1.1/DTD/svg11.dtd">
<!-- Generated by graphviz version 14.1.2 (0)
 -->
<!-- Title: DeathPollerState Pages: 1 -->
<svg width="681pt" height="352pt"
 viewBox="0.00 0.00 681.00 352.00" xmlns="http://www.w3.org/2000/svg" xmlns:xlink="http://www.w3.org/1999/xlink">
<g id="graph0" class="graph" transform="scale(1 1) rotate(0) translate(4 348.31)">
<title>DeathPollerState</title>
<polygon fill="#ffffff" stroke="none" points="-4,4 -4,-348.31 676.51,-348.31 676.51,4 -4,4"/>
<!-- alive -->
<g id="node1" class="node">
<title>alive</title>
<path fill="#a5d6a7" stroke="#2e7d32" d="M413,-344.31C413,-344.31 293,-344.31 293,-344.31 287,-344.31 281,-338.31 281,-332.31 281,-332.31 281,-320.31 281,-320.31 281,-314.31 287,-308.31 293,-308.31 293,-308.31 413,-308.31 413,-308.31 419,-308.31 425,-314.31 425,-320.31 425,-320.31 425,-332.31 425,-332.31 425,-338.31 419,-344.31 413,-344.31"/>
<text xml:space="preserve" text-anchor="middle" x="353" y="-329.01" font-family="Helvetica,sans-Serif" font-size="9.00">Alive</text>
<text xml:space="preserve" text-anchor="middle" x="353" y="-317.76" font-family="Helvetica,sans-Serif" font-size="9.00">(player is alive)</text>
</g>
<!-- dead -->
<g id="node2" class="node">
<title>dead</title>
<path fill="#ffcdd2" stroke="#d32f2f" d="M132,-252.92C132,-252.92 12,-252.92 12,-252.92 6,-252.92 0,-246.92 0,-240.92 0,-240.92 0,-228.92 0,-228.92 0,-222.92 6,-216.92 12,-216.92 12,-216.92 132,-216.92 132,-216.92 138,-216.92 144,-222.92 144,-228.92 144,-228.92 144,-240.92 144,-240.92 144,-246.92 138,-252.92 132,-252.92"/>
<text xml:space="preserve" text-anchor="middle" x="72" y="-237.62" font-family="Helvetica,sans-Serif" font-size="9.00">Dead</text>
<text xml:space="preserve" text-anchor="middle" x="72" y="-226.37" font-family="Helvetica,sans-Serif" font-size="9.00">(unknown cause)</text>
</g>
<!-- alive&#45;&gt;dead -->
<g id="edge1" class="edge">
<title>alive&#45;&gt;dead</title>
<path fill="none" stroke="#d32f2f" stroke-width="2" d="M280.64,-326C197.38,-326 72,-326 72,-326 72,-326 72,-264.87 72,-264.87"/>
<polygon fill="#d32f2f" stroke="#d32f2f" stroke-width="2" points="75.5,-266.38 72,-256.38 68.5,-266.38 75.5,-266.38"/>
<text xml:space="preserve" text-anchor="middle" x="163.88" y="-279.66" font-family="Times,serif" font-size="7.00" fill="#d32f2f">dies (PvE/PvP)</text>
</g>
<!-- coriolis -->
<g id="node3" class="node">
<title>coriolis</title>
<path fill="#ffcdd2" stroke="#d32f2f" d="M305,-252.92C305,-252.92 185,-252.92 185,-252.92 179,-252.92 173,-246.92 173,-240.92 173,-240.92 173,-228.92 173,-228.92 173,-222.92 179,-216.92 185,-216.92 185,-216.92 305,-216.92 305,-216.92 311,-216.92 317,-222.92 317,-228.92 317,-228.92 317,-240.92 317,-240.92 317,-246.92 311,-252.92 305,-252.92"/>
<text xml:space="preserve" text-anchor="middle" x="245" y="-237.62" font-family="Helvetica,sans-Serif" font-size="9.00">DeadByCoriolis</text>
<text xml:space="preserve" text-anchor="middle" x="245" y="-226.37" font-family="Helvetica,sans-Serif" font-size="9.00">(killed by storm)</text>
</g>
<!-- alive&#45;&gt;coriolis -->
<g id="edge2" class="edge">
<title>alive&#45;&gt;coriolis</title>
<path fill="none" stroke="#d32f2f" stroke-width="2" d="M299,-307.82C299,-307.82 299,-264.9 299,-264.9"/>
<polygon fill="#d32f2f" stroke="#d32f2f" stroke-width="2" points="302.5,-266.42 299,-256.42 295.5,-266.42 302.5,-266.42"/>
<text xml:space="preserve" text-anchor="middle" x="286.12" y="-279.66" font-family="Times,serif" font-size="7.00" fill="#d32f2f">storm kills</text>
</g>
<!-- sandworm -->
<g id="node4" class="node">
<title>sandworm</title>
<path fill="#ffcdd2" stroke="#d32f2f" d="M478,-252.92C478,-252.92 358,-252.92 358,-252.92 352,-252.92 346,-246.92 346,-240.92 346,-240.92 346,-228.92 346,-228.92 346,-222.92 352,-216.92 358,-216.92 358,-216.92 478,-216.92 478,-216.92 484,-216.92 490,-222.92 490,-228.92 490,-228.92 490,-240.92 490,-240.92 490,-246.92 484,-252.92 478,-252.92"/>
<text xml:space="preserve" text-anchor="middle" x="418" y="-237.62" font-family="Helvetica,sans-Serif" font-size="9.00">DeadBySandworm</text>
<text xml:space="preserve" text-anchor="middle" x="418" y="-226.37" font-family="Helvetica,sans-Serif" font-size="9.00">(killed by worm)</text>
</g>
<!-- alive&#45;&gt;sandworm -->
<g id="edge3" class="edge">
<title>alive&#45;&gt;sandworm</title>
<path fill="none" stroke="#d32f2f" stroke-width="2" d="M385.5,-307.82C385.5,-307.82 385.5,-264.9 385.5,-264.9"/>
<polygon fill="#d32f2f" stroke="#d32f2f" stroke-width="2" points="389,-266.42 385.5,-256.42 382,-266.42 389,-266.42"/>
<text xml:space="preserve" text-anchor="middle" x="393.75" y="-279.66" font-family="Times,serif" font-size="7.00" fill="#d32f2f">worm kills</text>
</g>
<!-- note -->
<g id="node7" class="node">
<title>note</title>
<polygon fill="#fff9c4" stroke="#f9a825" points="666.51,-255.31 519.49,-255.31 519.49,-214.54 672.51,-214.54 672.51,-249.31 666.51,-255.31"/>
<polyline fill="none" stroke="#f9a825" points="666.51,-255.31 666.51,-249.31"/>
<polyline fill="none" stroke="#f9a825" points="672.51,-249.31 666.51,-249.31"/>
<text xml:space="preserve" text-anchor="middle" x="596" y="-241.95" font-family="Helvetica,sans-Serif" font-size="8.00">Only transitions FROM &#39;Alive&#39;</text>
<text xml:space="preserve" text-anchor="middle" x="596" y="-232.2" font-family="Helvetica,sans-Serif" font-size="8.00">are counted. Restoring from</text>
<text xml:space="preserve" text-anchor="middle" x="596" y="-222.45" font-family="Helvetica,sans-Serif" font-size="8.00">snapshot prevents double&#45;count.</text>
</g>
<!-- alive&#45;&gt;note -->
<g id="edge9" class="edge">
<title>alive&#45;&gt;note</title>
<path fill="none" stroke="#f9a825" stroke-dasharray="1,5" d="M425.25,-326C496.88,-326 596,-326 596,-326 596,-326 596,-282.46 596,-255.59"/>
</g>
<!-- log -->
<g id="node5" class="node">
<title>log</title>
<path fill="#fff3e0" stroke="#e65100" d="M305,-152.54C305,-152.54 185,-152.54 185,-152.54 179,-152.54 173,-146.54 173,-140.54 173,-140.54 173,-119.27 173,-119.27 173,-113.27 179,-107.27 185,-107.27 185,-107.27 305,-107.27 305,-107.27 311,-107.27 317,-113.27 317,-119.27 317,-119.27 317,-140.54 317,-140.54 317,-146.54 311,-152.54 305,-152.54"/>
<text xml:space="preserve" text-anchor="middle" x="245" y="-138.23" font-family="Helvetica,sans-Serif" font-size="9.00">INSERT into</text>
<text xml:space="preserve" text-anchor="middle" x="245" y="-126.98" font-family="Helvetica,sans-Serif" font-size="9.00">player_death_log</text>
<text xml:space="preserve" text-anchor="middle" x="245" y="-115.73" font-family="Helvetica,sans-Serif" font-size="9.00">(death logged)</text>
</g>
<!-- dead&#45;&gt;log -->
<g id="edge4" class="edge">
<title>dead&#45;&gt;log</title>
<path fill="none" stroke="#e65100" stroke-width="2" d="M72,-216.65C72,-186.59 72,-130 72,-130 72,-130 161.12,-130 161.12,-130"/>
<polygon fill="#e65100" stroke="#e65100" stroke-width="2" points="159.61,-133.5 169.61,-130 159.61,-126.5 159.61,-133.5"/>
</g>
<!-- coriolis&#45;&gt;log -->
<g id="edge5" class="edge">
<title>coriolis&#45;&gt;log</title>
<path fill="none" stroke="#e65100" stroke-width="2" d="M245,-216.63C245,-216.63 245,-164.26 245,-164.26"/>
<polygon fill="#e65100" stroke="#e65100" stroke-width="2" points="248.5,-165.78 245,-155.78 241.5,-165.78 248.5,-165.78"/>
</g>
<!-- sandworm&#45;&gt;log -->
<g id="edge6" class="edge">
<title>sandworm&#45;&gt;log</title>
<path fill="none" stroke="#e65100" stroke-width="2" d="M418,-216.65C418,-186.59 418,-130 418,-130 418,-130 328.88,-130 328.88,-130"/>
<polygon fill="#e65100" stroke="#e65100" stroke-width="2" points="330.39,-126.5 320.39,-130 330.39,-133.5 330.39,-126.5"/>
</g>
<!-- respawn -->
<g id="node6" class="node">
<title>respawn</title>
<polygon fill="none" stroke="#1565c0" stroke-dasharray="5,2" points="317,-45.27 173,-45.27 173,0 317,0 317,-45.27"/>
<text xml:space="preserve" text-anchor="middle" x="245" y="-30.96" font-family="Helvetica,sans-Serif" font-size="9.00">Respawn</text>
<text xml:space="preserve" text-anchor="middle" x="245" y="-19.71" font-family="Helvetica,sans-Serif" font-size="9.00">(life_state → Alive)</text>
<text xml:space="preserve" text-anchor="middle" x="245" y="-8.46" font-family="Helvetica,sans-Serif" font-size="9.00">no re&#45;counting</text>
</g>
<!-- log&#45;&gt;respawn -->
<g id="edge7" class="edge">
<title>log&#45;&gt;respawn</title>
<path fill="none" stroke="#1565c0" stroke-dasharray="5,2" d="M245,-106.89C245,-106.89 245,-57.12 245,-57.12"/>
<polygon fill="#1565c0" stroke="#1565c0" points="248.5,-57.12 245,-47.12 241.5,-57.12 248.5,-57.12"/>
<text xml:space="preserve" text-anchor="middle" x="277.62" y="-78.62" font-family="Times,serif" font-size="7.00" fill="#1565c0">snapshot updated</text>
<text xml:space="preserve" text-anchor="middle" x="277.62" y="-69.62" font-family="Times,serif" font-size="7.00" fill="#1565c0">to new state</text>
</g>
<!-- respawn&#45;&gt;alive -->
<g id="edge8" class="edge">
<title>respawn&#45;&gt;alive</title>
<path fill="none" stroke="#1565c0" stroke-dasharray="5,2" d="M317.22,-23C325.75,-23 331.5,-23 331.5,-23 331.5,-23 331.5,-296.73 331.5,-296.73"/>
<polygon fill="#1565c0" stroke="#1565c0" points="328,-296.73 331.5,-306.73 335,-296.73 328,-296.73"/>
<text xml:space="preserve" text-anchor="middle" x="436.25" y="-185.89" font-family="Times,serif" font-size="7.00" fill="#1565c0">poller sees</text>
<text xml:space="preserve" text-anchor="middle" x="436.25" y="-176.89" font-family="Times,serif" font-size="7.00" fill="#1565c0">Alive again</text>
</g>
</g>
</svg>
