<?xml version="1.0" encoding="UTF-8" standalone="no"?>
<!DOCTYPE svg PUBLIC "-//W3C//DTD SVG 1.1//EN"
 "http://www.w3.org/Graphics/SVG/1.1/DTD/svg11.dtd">
<!-- Generated by graphviz version 14.1.2 (0)
 -->
<!-- Title: Dependencies Pages: 1 -->
<svg width="448pt" height="555pt"
 viewBox="0.00 0.00 448.00 555.00" xmlns="http://www.w3.org/2000/svg" xmlns:xlink="http://www.w3.org/1999/xlink">
<g id="graph0" class="graph" transform="scale(1 1) rotate(0) translate(4 551.12)">
<title>Dependencies</title>
<polygon fill="#ffffff" stroke="none" points="-4,4 -4,-551.12 443.62,-551.12 443.62,4 -4,4"/>
<!-- r1 -->
<g id="node1" class="node">
<title>r1</title>
<path fill="#a5d6a7" stroke="#2e7d32" d="M340.4,-474.12C340.4,-474.12 206,-474.12 206,-474.12 200,-474.12 194,-468.12 194,-462.12 194,-462.12 194,-440.85 194,-440.85 194,-434.85 200,-428.85 206,-428.85 206,-428.85 340.4,-428.85 340.4,-428.85 346.4,-428.85 352.4,-434.85 352.4,-440.85 352.4,-440.85 352.4,-462.12 352.4,-462.12 352.4,-468.12 346.4,-474.12 340.4,-474.12"/>
<text xml:space="preserve" text-anchor="middle" x="273.2" y="-459.81" font-family="Helvetica,sans-Serif" font-size="9.00">R1: Metrics Stack MVP</text>
<text xml:space="preserve" text-anchor="middle" x="273.2" y="-448.56" font-family="Helvetica,sans-Serif" font-size="9.00">(Prometheus + 4 exporters</text>
<text xml:space="preserve" text-anchor="middle" x="273.2" y="-437.31" font-family="Helvetica,sans-Serif" font-size="9.00">+ 16 alerts) &#160;[DONE]</text>
</g>
<!-- r2 -->
<g id="node2" class="node">
<title>r2</title>
<path fill="#bbdefb" stroke="#1565c0" d="M340.4,-391.85C340.4,-391.85 206,-391.85 206,-391.85 200,-391.85 194,-385.85 194,-379.85 194,-379.85 194,-358.58 194,-358.58 194,-352.58 200,-346.58 206,-346.58 206,-346.58 340.4,-346.58 340.4,-346.58 346.4,-346.58 352.4,-352.58 352.4,-358.58 352.4,-358.58 352.4,-379.85 352.4,-379.85 352.4,-385.85 346.4,-391.85 340.4,-391.85"/>
<text xml:space="preserve" text-anchor="middle" x="273.2" y="-377.54" font-family="Helvetica,sans-Serif" font-size="9.00">R2: Console Exporter + SOC</text>
<text xml:space="preserve" text-anchor="middle" x="273.2" y="-366.29" font-family="Helvetica,sans-Serif" font-size="9.00">(Grafana + Alertmanager</text>
<text xml:space="preserve" text-anchor="middle" x="273.2" y="-355.04" font-family="Helvetica,sans-Serif" font-size="9.00">+ game metrics + RED)</text>
</g>
<!-- r1&#45;&gt;r2 -->
<g id="edge1" class="edge">
<title>r1&#45;&gt;r2</title>
<path fill="none" stroke="#1565c0" stroke-width="2" d="M273.2,-428.55C273.2,-420.85 273.2,-412.02 273.2,-403.6"/>
<polygon fill="#1565c0" stroke="#1565c0" stroke-width="2" points="276.7,-405.15 273.2,-395.15 269.7,-405.15 276.7,-405.15"/>
</g>
<!-- r3 -->
<g id="node3" class="node">
<title>r3</title>
<path fill="#bbdefb" stroke="#1565c0" d="M340.4,-300.83C340.4,-300.83 206,-300.83 206,-300.83 200,-300.83 194,-294.83 194,-288.83 194,-288.83 194,-267.56 194,-267.56 194,-261.56 200,-255.56 206,-255.56 206,-255.56 340.4,-255.56 340.4,-255.56 346.4,-255.56 352.4,-261.56 352.4,-267.56 352.4,-267.56 352.4,-288.83 352.4,-288.83 352.4,-294.83 346.4,-300.83 340.4,-300.83"/>
<text xml:space="preserve" text-anchor="middle" x="273.2" y="-286.52" font-family="Helvetica,sans-Serif" font-size="9.00">R3: Prometheus Bridge API</text>
<text xml:space="preserve" text-anchor="middle" x="273.2" y="-275.27" font-family="Helvetica,sans-Serif" font-size="9.00">(metrics.query +</text>
<text xml:space="preserve" text-anchor="middle" x="273.2" y="-264.02" font-family="Helvetica,sans-Serif" font-size="9.00">/api/server/metrics)</text>
</g>
<!-- r2&#45;&gt;r3 -->
<g id="edge2" class="edge">
<title>r2&#45;&gt;r3</title>
<path fill="none" stroke="#1565c0" stroke-width="2" d="M273.2,-346.21C273.2,-336.05 273.2,-323.76 273.2,-312.49"/>
<polygon fill="#1565c0" stroke="#1565c0" stroke-width="2" points="276.7,-314.28 273.2,-304.28 269.7,-314.28 276.7,-314.28"/>
</g>
<!-- a04 -->
<g id="node8" class="node">
<title>a04</title>
<path fill="#e1bee7" stroke="#6a1b9a" d="M146.4,-300.83C146.4,-300.83 12,-300.83 12,-300.83 6,-300.83 0,-294.83 0,-288.83 0,-288.83 0,-267.56 0,-267.56 0,-261.56 6,-255.56 12,-255.56 12,-255.56 146.4,-255.56 146.4,-255.56 152.4,-255.56 158.4,-261.56 158.4,-267.56 158.4,-267.56 158.4,-288.83 158.4,-288.83 158.4,-294.83 152.4,-300.83 146.4,-300.83"/>
<text xml:space="preserve" text-anchor="middle" x="79.2" y="-286.52" font-family="Helvetica,sans-Serif" font-size="9.00">v0.4: Game Activity &amp; Combat</text>
<text xml:space="preserve" text-anchor="middle" x="79.2" y="-275.27" font-family="Helvetica,sans-Serif" font-size="9.00">(sessions + deaths +</text>
<text xml:space="preserve" text-anchor="middle" x="79.2" y="-264.02" font-family="Helvetica,sans-Serif" font-size="9.00">PvP/PvE + NPC kills)</text>
</g>
<!-- r2&#45;&gt;a04 -->
<g id="edge10" class="edge">
<title>r2&#45;&gt;a04</title>
<path fill="none" stroke="#d32f2f" stroke-dasharray="5,2" d="M225.24,-346.21C198.78,-334.07 165.7,-318.89 137.72,-306.05"/>
<polygon fill="#d32f2f" stroke="#d32f2f" points="139.2,-302.88 128.65,-301.89 136.28,-309.24 139.2,-302.88"/>
<text xml:space="preserve" text-anchor="middle" x="197.02" y="-320.98" font-family="Times,serif" font-size="8.00" fill="#d32f2f">enables</text>
</g>
<!-- r4 -->
<g id="node4" class="node">
<title>r4</title>
<path fill="#bbdefb" stroke="#1565c0" d="M340.4,-218.56C340.4,-218.56 206,-218.56 206,-218.56 200,-218.56 194,-212.56 194,-206.56 194,-206.56 194,-185.29 194,-185.29 194,-179.29 200,-173.29 206,-173.29 206,-173.29 340.4,-173.29 340.4,-173.29 346.4,-173.29 352.4,-179.29 352.4,-185.29 352.4,-185.29 352.4,-206.56 352.4,-206.56 352.4,-212.56 346.4,-218.56 340.4,-218.56"/>
<text xml:space="preserve" text-anchor="middle" x="273.2" y="-204.25" font-family="Helvetica,sans-Serif" font-size="9.00">R4: SOC Hardening</text>
<text xml:space="preserve" text-anchor="middle" x="273.2" y="-193" font-family="Helvetica,sans-Serif" font-size="9.00">(Redis rate limits +</text>
<text xml:space="preserve" text-anchor="middle" x="273.2" y="-181.75" font-family="Helvetica,sans-Serif" font-size="9.00">proxy&#45;aware IP + CSP)</text>
</g>
<!-- r3&#45;&gt;r4 -->
<g id="edge3" class="edge">
<title>r3&#45;&gt;r4</title>
<path fill="none" stroke="#1565c0" stroke-width="2" d="M273.2,-255.26C273.2,-247.56 273.2,-238.73 273.2,-230.31"/>
<polygon fill="#1565c0" stroke="#1565c0" stroke-width="2" points="276.7,-231.86 273.2,-221.86 269.7,-231.86 276.7,-231.86"/>
</g>
<!-- a10 -->
<g id="node11" class="node">
<title>a10</title>
<path fill="#ce93d8" stroke="#8e24aa" d="M146.4,-45.27C146.4,-45.27 12,-45.27 12,-45.27 6,-45.27 0,-39.27 0,-33.27 0,-33.27 0,-12 0,-12 0,-6 6,0 12,0 12,0 146.4,0 146.4,0 152.4,0 158.4,-6 158.4,-12 158.4,-12 158.4,-33.27 158.4,-33.27 158.4,-39.27 152.4,-45.27 146.4,-45.27"/>
<text xml:space="preserve" text-anchor="middle" x="79.2" y="-30.96" font-family="Helvetica,sans-Serif" font-size="9.00" fill="#4a148c">v1.0: SOC/OPS Center</text>
<text xml:space="preserve" text-anchor="middle" x="79.2" y="-19.71" font-family="Helvetica,sans-Serif" font-size="9.00" fill="#4a148c">(platform health + bridge</text>
<text xml:space="preserve" text-anchor="middle" x="79.2" y="-8.46" font-family="Helvetica,sans-Serif" font-size="9.00" fill="#4a148c">reliability + runbooks)</text>
</g>
<!-- r3&#45;&gt;a10 -->
<g id="edge11" class="edge">
<title>r3&#45;&gt;a10</title>
<path fill="none" stroke="#d32f2f" stroke-dasharray="5,2" d="M309.6,-255.19C337.12,-238.56 370.2,-218.56 370.2,-218.56 370.2,-218.56 414.2,-127.54 414.2,-127.54 414.2,-127.54 414.2,-82.27 414.2,-82.27 414.2,-82.27 269.06,-56.87 169.85,-39.5"/>
<polygon fill="#d32f2f" stroke="#d32f2f" points="170.53,-36.07 160.08,-37.79 169.33,-42.96 170.53,-36.07"/>
<text xml:space="preserve" text-anchor="middle" x="422.37" y="-147.69" font-family="Times,serif" font-size="8.00" fill="#d32f2f">required</text>
</g>
<!-- r5 -->
<g id="node5" class="node">
<title>r5</title>
<path fill="#bbdefb" stroke="#1565c0" d="M340.4,-127.54C340.4,-127.54 206,-127.54 206,-127.54 200,-127.54 194,-121.54 194,-115.54 194,-115.54 194,-94.27 194,-94.27 194,-88.27 200,-82.27 206,-82.27 206,-82.27 340.4,-82.27 340.4,-82.27 346.4,-82.27 352.4,-88.27 352.4,-94.27 352.4,-94.27 352.4,-115.54 352.4,-115.54 352.4,-121.54 346.4,-127.54 340.4,-127.54"/>
<text xml:space="preserve" text-anchor="middle" x="273.2" y="-113.23" font-family="Helvetica,sans-Serif" font-size="9.00">R5: Ops Maturity</text>
<text xml:space="preserve" text-anchor="middle" x="273.2" y="-101.98" font-family="Helvetica,sans-Serif" font-size="9.00">(SLO/SLI + retention +</text>
<text xml:space="preserve" text-anchor="middle" x="273.2" y="-90.73" font-family="Helvetica,sans-Serif" font-size="9.00">audit rotation)</text>
</g>
<!-- r4&#45;&gt;r5 -->
<g id="edge4" class="edge">
<title>r4&#45;&gt;r5</title>
<path fill="none" stroke="#1565c0" stroke-width="2" d="M273.2,-172.92C273.2,-162.76 273.2,-150.47 273.2,-139.2"/>
<polygon fill="#1565c0" stroke="#1565c0" stroke-width="2" points="276.7,-140.99 273.2,-130.99 269.7,-140.99 276.7,-140.99"/>
</g>
<!-- r4&#45;&gt;a10 -->
<g id="edge12" class="edge">
<title>r4&#45;&gt;a10</title>
<path fill="none" stroke="#d32f2f" stroke-dasharray="5,2" d="M304.96,-172.86C333.25,-153.21 370.2,-127.54 370.2,-127.54 370.2,-127.54 370.2,-82.27 370.2,-82.27 370.2,-82.27 255.18,-59.09 169.77,-41.88"/>
<polygon fill="#d32f2f" stroke="#d32f2f" points="170.7,-38.5 160.2,-39.96 169.31,-45.36 170.7,-38.5"/>
<text xml:space="preserve" text-anchor="middle" x="387.45" y="-102.18" font-family="Times,serif" font-size="8.00" fill="#d32f2f">required</text>
</g>
<!-- a02 -->
<g id="node6" class="node">
<title>a02</title>
<path fill="#a5d6a7" stroke="#2e7d32" d="M146.4,-469.48C146.4,-469.48 12,-469.48 12,-469.48 6,-469.48 0,-463.48 0,-457.48 0,-457.48 0,-445.48 0,-445.48 0,-439.48 6,-433.48 12,-433.48 12,-433.48 146.4,-433.48 146.4,-433.48 152.4,-433.48 158.4,-439.48 158.4,-445.48 158.4,-445.48 158.4,-457.48 158.4,-457.48 158.4,-463.48 152.4,-469.48 146.4,-469.48"/>
<text xml:space="preserve" text-anchor="middle" x="79.2" y="-454.18" font-family="Helvetica,sans-Serif" font-size="9.00">v0.2: Player Operations</text>
<text xml:space="preserve" text-anchor="middle" x="79.2" y="-442.93" font-family="Helvetica,sans-Serif" font-size="9.00">(A3 + A4 + A5) &#160;[DONE]</text>
</g>
<!-- a03 -->
<g id="node7" class="node">
<title>a03</title>
<path fill="#a5d6a7" stroke="#2e7d32" d="M146.4,-391.85C146.4,-391.85 12,-391.85 12,-391.85 6,-391.85 0,-385.85 0,-379.85 0,-379.85 0,-358.58 0,-358.58 0,-352.58 6,-346.58 12,-346.58 12,-346.58 146.4,-346.58 146.4,-346.58 152.4,-346.58 158.4,-352.58 158.4,-358.58 158.4,-358.58 158.4,-379.85 158.4,-379.85 158.4,-385.85 152.4,-391.85 146.4,-391.85"/>
<text xml:space="preserve" text-anchor="middle" x="79.2" y="-377.54" font-family="Helvetica,sans-Serif" font-size="9.00">v0.3: OPS Health Foundation</text>
<text xml:space="preserve" text-anchor="middle" x="79.2" y="-366.29" font-family="Helvetica,sans-Serif" font-size="9.00">(bridge freshness +</text>
<text xml:space="preserve" text-anchor="middle" x="79.2" y="-355.04" font-family="Helvetica,sans-Serif" font-size="9.00">source health) &#160;[DONE]</text>
</g>
<!-- a02&#45;&gt;a03 -->
<g id="edge5" class="edge">
<title>a02&#45;&gt;a03</title>
<path fill="none" stroke="#6a1b9a" stroke-width="2" d="M79.2,-433.07C79.2,-424.45 79.2,-413.75 79.2,-403.64"/>
<polygon fill="#6a1b9a" stroke="#6a1b9a" stroke-width="2" points="82.7,-405.22 79.2,-395.22 75.7,-405.22 82.7,-405.22"/>
</g>
<!-- a03&#45;&gt;a04 -->
<g id="edge6" class="edge">
<title>a03&#45;&gt;a04</title>
<path fill="none" stroke="#6a1b9a" stroke-width="2" d="M79.2,-346.21C79.2,-336.05 79.2,-323.76 79.2,-312.49"/>
<polygon fill="#6a1b9a" stroke="#6a1b9a" stroke-width="2" points="82.7,-314.28 79.2,-304.28 75.7,-314.28 82.7,-314.28"/>
</g>
<!-- a05 -->
<g id="node9" class="node">
<title>a05</title>
<path fill="#e1bee7" stroke="#6a1b9a" d="M146.4,-218.56C146.4,-218.56 12,-218.56 12,-218.56 6,-218.56 0,-212.56 0,-206.56 0,-206.56 0,-185.29 0,-185.29 0,-179.29 6,-173.29 12,-173.29 12,-173.29 146.4,-173.29 146.4,-173.29 152.4,-173.29 158.4,-179.29 158.4,-185.29 158.4,-185.29 158.4,-206.56 158.4,-206.56 158.4,-212.56 152.4,-218.56 146.4,-218.56"/>
<text xml:space="preserve" text-anchor="middle" x="79.2" y="-204.25" font-family="Helvetica,sans-Serif" font-size="9.00">v0.5: Economy &amp; Resources</text>
<text xml:space="preserve" text-anchor="middle" x="79.2" y="-193" font-family="Helvetica,sans-Serif" font-size="9.00">(gathering + market +</text>
<text xml:space="preserve" text-anchor="middle" x="79.2" y="-181.75" font-family="Helvetica,sans-Serif" font-size="9.00">currency + inflation)</text>
</g>
<!-- a04&#45;&gt;a05 -->
<g id="edge7" class="edge">
<title>a04&#45;&gt;a05</title>
<path fill="none" stroke="#6a1b9a" stroke-width="2" d="M79.2,-255.26C79.2,-247.56 79.2,-238.73 79.2,-230.31"/>
<polygon fill="#6a1b9a" stroke="#6a1b9a" stroke-width="2" points="82.7,-231.86 79.2,-221.86 75.7,-231.86 82.7,-231.86"/>
</g>
<!-- a06 -->
<g id="node10" class="node">
<title>a06</title>
<path fill="#e1bee7" stroke="#6a1b9a" d="M146.4,-127.54C146.4,-127.54 12,-127.54 12,-127.54 6,-127.54 0,-121.54 0,-115.54 0,-115.54 0,-94.27 0,-94.27 0,-88.27 6,-82.27 12,-82.27 12,-82.27 146.4,-82.27 146.4,-82.27 152.4,-82.27 158.4,-88.27 158.4,-94.27 158.4,-94.27 158.4,-115.54 158.4,-115.54 158.4,-121.54 152.4,-127.54 146.4,-127.54"/>
<text xml:space="preserve" text-anchor="middle" x="79.2" y="-113.23" font-family="Helvetica,sans-Serif" font-size="9.00">v0.6: World &amp; Assets</text>
<text xml:space="preserve" text-anchor="middle" x="79.2" y="-101.98" font-family="Helvetica,sans-Serif" font-size="9.00">(crafting + territory +</text>
<text xml:space="preserve" text-anchor="middle" x="79.2" y="-90.73" font-family="Helvetica,sans-Serif" font-size="9.00">heat maps + storage)</text>
</g>
<!-- a05&#45;&gt;a06 -->
<g id="edge8" class="edge">
<title>a05&#45;&gt;a06</title>
<path fill="none" stroke="#6a1b9a" stroke-width="2" d="M79.2,-172.92C79.2,-162.76 79.2,-150.47 79.2,-139.2"/>
<polygon fill="#6a1b9a" stroke="#6a1b9a" stroke-width="2" points="82.7,-140.99 79.2,-130.99 75.7,-140.99 82.7,-140.99"/>
</g>
<!-- a06&#45;&gt;a10 -->
<g id="edge9" class="edge">
<title>a06&#45;&gt;a10</title>
<path fill="none" stroke="#6a1b9a" stroke-width="2" d="M79.2,-81.97C79.2,-74.27 79.2,-65.44 79.2,-57.02"/>
<polygon fill="#6a1b9a" stroke="#6a1b9a" stroke-width="2" points="82.7,-58.57 79.2,-48.57 75.7,-58.57 82.7,-58.57"/>
</g>
<!-- core_label -->
<g id="node12" class="node">
<title>core_label</title>
<path fill="lightgrey" stroke="none" d="M340.4,-547.12C340.4,-547.12 206,-547.12 206,-547.12 200,-547.12 194,-541.12 194,-535.12 194,-535.12 194,-523.12 194,-523.12 194,-517.12 200,-511.12 206,-511.12 206,-511.12 340.4,-511.12 340.4,-511.12 346.4,-511.12 352.4,-517.12 352.4,-523.12 352.4,-523.12 352.4,-535.12 352.4,-535.12 352.4,-541.12 346.4,-547.12 340.4,-547.12"/>
<text xml:space="preserve" text-anchor="middle" x="273.2" y="-525.42" font-family="Helvetica,sans-Serif" font-weight="bold" font-size="11.00" fill="#1565c0">CORE</text>
</g>
<!-- core_label&#45;&gt;r1 -->
<!-- addon_label -->
<g id="node13" class="node">
<title>addon_label</title>
<path fill="lightgrey" stroke="none" d="M146.4,-547.12C146.4,-547.12 12,-547.12 12,-547.12 6,-547.12 0,-541.12 0,-535.12 0,-535.12 0,-523.12 0,-523.12 0,-517.12 6,-511.12 12,-511.12 12,-511.12 146.4,-511.12 146.4,-511.12 152.4,-511.12 158.4,-517.12 158.4,-523.12 158.4,-523.12 158.4,-535.12 158.4,-535.12 158.4,-541.12 152.4,-547.12 146.4,-547.12"/>
<text xml:space="preserve" text-anchor="middle" x="79.2" y="-525.42" font-family="Helvetica,sans-Serif" font-weight="bold" font-size="11.00" fill="#6a1b9a">ADDON</text>
</g>
<!-- addon_label&#45;&gt;a02 -->
</g>
</svg>
