<?xml version="1.0" encoding="UTF-8" standalone="no"?>
<!DOCTYPE svg PUBLIC "-//W3C//DTD SVG 1.1//EN"
 "http://www.w3.org/Graphics/SVG/1.1/DTD/svg11.dtd">
<!-- Generated by graphviz version 14.1.2 (0)
 -->
<!-- Title: Discovery Pages: 1 -->
<svg width="597pt" height="552pt"
 viewBox="0.00 0.00 597.00 552.00" xmlns="http://www.w3.org/2000/svg" xmlns:xlink="http://www.w3.org/1999/xlink">
<g id="graph0" class="graph" transform="scale(1 1) rotate(0) translate(4 548.21)">
<title>Discovery</title>
<polygon fill="#ffffff" stroke="none" points="-4,4 -4,-548.21 593.38,-548.21 593.38,4 -4,4"/>
<!-- start -->
<g id="node1" class="node">
<title>start</title>
<ellipse fill="#e3f2fd" stroke="#1565c0" cx="258.51" cy="-524.32" rx="48.9" ry="19.9"/>
<text xml:space="preserve" text-anchor="middle" x="258.51" y="-526.47" font-family="Helvetica,sans-Serif" font-size="8.00">Start Release</text>
<text xml:space="preserve" text-anchor="middle" x="258.51" y="-516.72" font-family="Helvetica,sans-Serif" font-size="8.00">(v0.4&#45;v0.6)</text>
</g>
<!-- inventory -->
<g id="node2" class="node">
<title>inventory</title>
<path fill="#fff3e0" stroke="#e65100" d="M320.46,-467.42C320.46,-467.42 196.56,-467.42 196.56,-467.42 190.56,-467.42 184.56,-461.42 184.56,-455.42 184.56,-455.42 184.56,-431.78 184.56,-431.78 184.56,-425.78 190.56,-419.78 196.56,-419.78 196.56,-419.78 320.46,-419.78 320.46,-419.78 326.46,-419.78 332.46,-425.78 332.46,-431.78 332.46,-431.78 332.46,-455.42 332.46,-455.42 332.46,-461.42 326.46,-467.42 320.46,-467.42"/>
<text xml:space="preserve" text-anchor="middle" x="258.51" y="-455.5" font-family="Helvetica,sans-Serif" font-size="8.00">Step 1: PostgreSQL Inventory</text>
<text xml:space="preserve" text-anchor="middle" x="258.51" y="-445.75" font-family="Helvetica,sans-Serif" font-size="8.00">Schemas, tables, columns, types</text>
<text xml:space="preserve" text-anchor="middle" x="258.51" y="-436" font-family="Helvetica,sans-Serif" font-size="8.00">Timestamp coverage, retention</text>
<text xml:space="preserve" text-anchor="middle" x="258.51" y="-426.25" font-family="Helvetica,sans-Serif" font-size="8.00">Estimated row counts</text>
</g>
<!-- start&#45;&gt;inventory -->
<g id="edge1" class="edge">
<title>start&#45;&gt;inventory</title>
<path fill="none" stroke="#1565c0" stroke-width="2" d="M258.51,-504.26C258.51,-496.69 258.51,-487.74 258.51,-479.11"/>
<polygon fill="#1565c0" stroke="#1565c0" stroke-width="2" points="262.01,-480.71 258.51,-470.71 255.01,-480.71 262.01,-480.71"/>
</g>
<!-- classify -->
<g id="node3" class="node">
<title>classify</title>
<path fill="#fff3e0" stroke="#e65100" d="M316.33,-382.78C316.33,-382.78 200.68,-382.78 200.68,-382.78 194.68,-382.78 188.68,-376.78 188.68,-370.78 188.68,-370.78 188.68,-347.14 188.68,-347.14 188.68,-341.14 194.68,-335.14 200.68,-335.14 200.68,-335.14 316.33,-335.14 316.33,-335.14 322.33,-335.14 328.33,-341.14 328.33,-347.14 328.33,-347.14 328.33,-370.78 328.33,-370.78 328.33,-376.78 322.33,-382.78 316.33,-382.78"/>
<text xml:space="preserve" text-anchor="middle" x="258.51" y="-370.86" font-family="Helvetica,sans-Serif" font-size="8.00">Step 2: Metric Classification</text>
<text xml:space="preserve" text-anchor="middle" x="258.51" y="-361.11" font-family="Helvetica,sans-Serif" font-size="8.00">Privacy: Safe|Sensitive|Unsafe</text>
<text xml:space="preserve" text-anchor="middle" x="258.51" y="-351.36" font-family="Helvetica,sans-Serif" font-size="8.00">Cardinality: Low|Med|High</text>
<text xml:space="preserve" text-anchor="middle" x="258.51" y="-341.61" font-family="Helvetica,sans-Serif" font-size="8.00">Permission: ops:read</text>
</g>
<!-- inventory&#45;&gt;classify -->
<g id="edge2" class="edge">
<title>inventory&#45;&gt;classify</title>
<path fill="none" stroke="#e65100" stroke-width="2" d="M258.51,-419.58C258.51,-411.85 258.51,-403.06 258.51,-394.64"/>
<polygon fill="#e65100" stroke="#e65100" stroke-width="2" points="262.01,-396.17 258.51,-386.17 255.01,-396.17 262.01,-396.17"/>
</g>
<!-- safe -->
<g id="node4" class="node">
<title>safe</title>
<path fill="#a5d6a7" stroke="#2e7d32" d="M101.76,-281.16C101.76,-281.16 92.51,-287.16 92.51,-287.16 87.89,-290.16 77.75,-293.16 72.23,-293.16 72.23,-293.16 38.78,-293.16 38.78,-293.16 33.27,-293.16 23.13,-290.16 18.5,-287.16 18.5,-287.16 9.25,-281.16 9.25,-281.16 4.63,-278.16 4.63,-272.16 9.25,-269.16 9.25,-269.16 18.5,-263.16 18.5,-263.16 23.13,-260.16 33.27,-257.16 38.78,-257.16 38.78,-257.16 72.23,-257.16 72.23,-257.16 77.75,-257.16 87.89,-260.16 92.51,-263.16 92.51,-263.16 101.76,-269.16 101.76,-269.16 106.39,-272.16 106.39,-278.16 101.76,-281.16"/>
<text xml:space="preserve" text-anchor="middle" x="55.51" y="-272.44" font-family="Helvetica,sans-Serif" font-size="8.00">Safe Aggregates</text>
</g>
<!-- classify&#45;&gt;safe -->
<g id="edge3" class="edge">
<title>classify&#45;&gt;safe</title>
<path fill="none" stroke="black" d="M200.88,-334.74C168.72,-321.78 129.3,-305.89 99.62,-293.94"/>
<polygon fill="black" stroke="black" points="101.14,-290.78 90.56,-290.29 98.53,-297.27 101.14,-290.78"/>
</g>
<!-- sensitive -->
<g id="node5" class="node">
<title>sensitive</title>
<path fill="#ffe0b2" stroke="#f57c00" d="M261.22,-281.16C261.22,-281.16 250.88,-287.16 250.88,-287.16 245.71,-290.16 234.56,-293.16 228.58,-293.16 228.58,-293.16 190.44,-293.16 190.44,-293.16 184.46,-293.16 173.31,-290.16 168.14,-287.16 168.14,-287.16 157.79,-281.16 157.79,-281.16 152.62,-278.16 152.62,-272.16 157.79,-269.16 157.79,-269.16 168.14,-263.16 168.14,-263.16 173.31,-260.16 184.46,-257.16 190.44,-257.16 190.44,-257.16 228.58,-257.16 228.58,-257.16 234.56,-257.16 245.71,-260.16 250.88,-263.16 250.88,-263.16 261.22,-269.16 261.22,-269.16 266.39,-272.16 266.39,-278.16 261.22,-281.16"/>
<text xml:space="preserve" text-anchor="middle" x="209.51" y="-272.44" font-family="Helvetica,sans-Serif" font-size="8.00">Sensitive → Review</text>
</g>
<!-- classify&#45;&gt;sensitive -->
<g id="edge4" class="edge">
<title>classify&#45;&gt;sensitive</title>
<path fill="none" stroke="black" d="M244.6,-334.74C238.7,-324.89 231.78,-313.35 225.66,-303.13"/>
<polygon fill="black" stroke="black" points="228.79,-301.53 220.64,-294.75 222.78,-305.13 228.79,-301.53"/>
</g>
<!-- unsafe -->
<g id="node6" class="node">
<title>unsafe</title>
<path fill="#ffcdd2" stroke="#d32f2f" d="M410.18,-281.16C410.18,-281.16 400.85,-287.16 400.85,-287.16 396.18,-290.16 385.96,-293.16 380.41,-293.16 380.41,-293.16 346.6,-293.16 346.6,-293.16 341.05,-293.16 330.83,-290.16 326.17,-287.16 326.17,-287.16 316.83,-281.16 316.83,-281.16 312.16,-278.16 312.16,-272.16 316.83,-269.16 316.83,-269.16 326.17,-263.16 326.17,-263.16 330.83,-260.16 341.05,-257.16 346.6,-257.16 346.6,-257.16 380.41,-257.16 380.41,-257.16 385.96,-257.16 396.18,-260.16 400.85,-263.16 400.85,-263.16 410.18,-269.16 410.18,-269.16 414.85,-272.16 414.85,-278.16 410.18,-281.16"/>
<text xml:space="preserve" text-anchor="middle" x="363.51" y="-272.44" font-family="Helvetica,sans-Serif" font-size="8.00">Unsafe / Blocked</text>
</g>
<!-- classify&#45;&gt;unsafe -->
<g id="edge5" class="edge">
<title>classify&#45;&gt;unsafe</title>
<path fill="none" stroke="black" d="M288.31,-334.74C302.14,-323.97 318.57,-311.17 332.54,-300.29"/>
<polygon fill="black" stroke="black" points="334.38,-303.29 340.11,-294.39 330.07,-297.77 334.38,-303.29"/>
</g>
<!-- zero -->
<g id="node7" class="node">
<title>zero</title>
<path fill="#e0e0e0" stroke="#616161" d="M579.49,-281.96C579.49,-281.96 565.83,-291.34 565.83,-291.34 560.89,-294.74 549.94,-298.14 543.94,-298.14 543.94,-298.14 501.07,-298.14 501.07,-298.14 495.07,-298.14 484.13,-294.74 479.18,-291.34 479.18,-291.34 465.53,-281.96 465.53,-281.96 460.58,-278.56 460.58,-271.76 465.53,-268.37 465.53,-268.37 479.18,-258.98 479.18,-258.98 484.13,-255.58 495.07,-252.19 501.07,-252.19 501.07,-252.19 543.94,-252.19 543.94,-252.19 549.94,-252.19 560.89,-255.58 565.83,-258.98 565.83,-258.98 579.49,-268.37 579.49,-268.37 584.43,-271.76 584.43,-278.56 579.49,-281.96"/>
<text xml:space="preserve" text-anchor="middle" x="522.51" y="-277.31" font-family="Helvetica,sans-Serif" font-size="8.00">Zero Rows</text>
<text xml:space="preserve" text-anchor="middle" x="522.51" y="-267.56" font-family="Helvetica,sans-Serif" font-size="8.00">(no data source)</text>
</g>
<!-- classify&#45;&gt;zero -->
<g id="edge6" class="edge">
<title>classify&#45;&gt;zero</title>
<path fill="none" stroke="black" d="M328.56,-336.25C371.57,-322.93 425.92,-306.09 466.13,-293.63"/>
<polygon fill="black" stroke="black" points="467.12,-296.99 475.64,-290.68 465.05,-290.3 467.12,-296.99"/>
</g>
<!-- outcome -->
<g id="node8" class="node">
<title>outcome</title>
<path fill="#e3f2fd" stroke="#1565c0" d="M344.71,-215.19C344.71,-215.19 228.31,-215.19 228.31,-215.19 222.31,-215.19 216.31,-209.19 216.31,-203.19 216.31,-203.19 216.31,-169.8 216.31,-169.8 216.31,-163.8 222.31,-157.8 228.31,-157.8 228.31,-157.8 344.71,-157.8 344.71,-157.8 350.71,-157.8 356.71,-163.8 356.71,-169.8 356.71,-169.8 356.71,-203.19 356.71,-203.19 356.71,-209.19 350.71,-215.19 344.71,-215.19"/>
<text xml:space="preserve" text-anchor="middle" x="286.51" y="-203.27" font-family="Helvetica,sans-Serif" font-size="8.00">Step 3: Outcome</text>
<text xml:space="preserve" text-anchor="middle" x="286.51" y="-193.52" font-family="Helvetica,sans-Serif" font-size="8.00">Safe → Approve for release</text>
<text xml:space="preserve" text-anchor="middle" x="286.51" y="-183.77" font-family="Helvetica,sans-Serif" font-size="8.00">Sensitive → Design PR required</text>
<text xml:space="preserve" text-anchor="middle" x="286.51" y="-174.02" font-family="Helvetica,sans-Serif" font-size="8.00">Unsafe → Block until rewritten</text>
<text xml:space="preserve" text-anchor="middle" x="286.51" y="-164.27" font-family="Helvetica,sans-Serif" font-size="8.00">Zero → Wait for data</text>
</g>
<!-- safe&#45;&gt;outcome -->
<g id="edge7" class="edge">
<title>safe&#45;&gt;outcome</title>
<path fill="none" stroke="black" d="M90.09,-261.19C120.41,-249.81 165.69,-232.82 205.13,-218.02"/>
<polygon fill="black" stroke="black" points="206.26,-221.34 214.4,-214.55 203.8,-214.78 206.26,-221.34"/>
</g>
<!-- sensitive&#45;&gt;outcome -->
<g id="edge8" class="edge">
<title>sensitive&#45;&gt;outcome</title>
<path fill="none" stroke="black" d="M224.72,-257.04C233.1,-247.6 243.84,-235.51 254.01,-224.07"/>
<polygon fill="black" stroke="black" points="256.6,-226.43 260.62,-216.63 251.36,-221.78 256.6,-226.43"/>
</g>
<!-- unsafe&#45;&gt;outcome -->
<g id="edge9" class="edge">
<title>unsafe&#45;&gt;outcome</title>
<path fill="none" stroke="black" d="M348.29,-257.04C339.91,-247.6 329.17,-235.51 319,-224.07"/>
<polygon fill="black" stroke="black" points="321.65,-221.78 312.39,-216.63 316.42,-226.43 321.65,-221.78"/>
</g>
<!-- zero&#45;&gt;outcome -->
<g id="edge10" class="edge">
<title>zero&#45;&gt;outcome</title>
<path fill="none" stroke="black" d="M479.5,-258.37C448.26,-246.9 405.06,-231.03 367.45,-217.22"/>
<polygon fill="black" stroke="black" points="369.02,-214.07 358.43,-213.9 366.61,-220.64 369.02,-214.07"/>
</g>
<!-- go_gate -->
<g id="node9" class="node">
<title>go_gate</title>
<path fill="#ffffff" stroke="#2e7d32" d="M274.97,-117.5C274.97,-117.5 235,-106.09 235,-106.09 229.23,-104.44 229.23,-101.15 235,-99.5 235,-99.5 274.97,-88.09 274.97,-88.09 280.74,-86.44 292.28,-86.44 298.05,-88.09 298.05,-88.09 338.01,-99.5 338.01,-99.5 343.78,-101.15 343.78,-104.44 338.01,-106.09 338.01,-106.09 298.05,-117.5 298.05,-117.5 292.28,-119.15 280.74,-119.15 274.97,-117.5"/>
<text xml:space="preserve" text-anchor="middle" x="286.51" y="-100.07" font-family="Helvetica,sans-Serif" font-size="8.00">Gate: Proceed?</text>
</g>
<!-- outcome&#45;&gt;go_gate -->
<g id="edge11" class="edge">
<title>outcome&#45;&gt;go_gate</title>
<path fill="none" stroke="#1565c0" stroke-width="2" d="M286.51,-157.38C286.51,-149.41 286.51,-140.72 286.51,-132.7"/>
<polygon fill="#1565c0" stroke="#1565c0" stroke-width="2" points="290.01,-134.26 286.51,-124.26 283.01,-134.26 290.01,-134.26"/>
</g>
<!-- impl -->
<g id="node10" class="node">
<title>impl</title>
<ellipse fill="#a5d6a7" stroke="#2e7d32" cx="208.51" cy="-19.9" rx="63.22" ry="19.9"/>
<text xml:space="preserve" text-anchor="middle" x="208.51" y="-22.05" font-family="Helvetica,sans-Serif" font-size="8.00">Implement Metrics</text>
<text xml:space="preserve" text-anchor="middle" x="208.51" y="-12.3" font-family="Helvetica,sans-Serif" font-size="8.00">in Addon Release</text>
</g>
<!-- go_gate&#45;&gt;impl -->
<g id="edge12" class="edge">
<title>go_gate&#45;&gt;impl</title>
<path fill="none" stroke="#2e7d32" d="M273.28,-88.07C262.55,-76.95 247.12,-60.94 234,-47.34"/>
<polygon fill="#2e7d32" stroke="#2e7d32" points="236.72,-45.11 227.26,-40.34 231.68,-49.97 236.72,-45.11"/>
<text xml:space="preserve" text-anchor="middle" x="258.18" y="-60.15" font-family="Times,serif" font-size="7.00" fill="#2e7d32">Yes</text>
</g>
<!-- revisit -->
<g id="node11" class="node">
<title>revisit</title>
<ellipse fill="#e0e0e0" stroke="#616161" cx="364.51" cy="-19.9" rx="56.36" ry="18"/>
<text xml:space="preserve" text-anchor="middle" x="364.51" y="-17.17" font-family="Helvetica,sans-Serif" font-size="8.00">Revisit Next Release</text>
</g>
<!-- go_gate&#45;&gt;revisit -->
<g id="edge13" class="edge">
<title>go_gate&#45;&gt;revisit</title>
<path fill="none" stroke="#d32f2f" d="M299.74,-88.07C310.9,-76.5 327.15,-59.64 340.58,-45.71"/>
<polygon fill="#d32f2f" stroke="#d32f2f" points="343.04,-48.21 347.46,-38.58 338,-43.35 343.04,-48.21"/>
<text xml:space="preserve" text-anchor="middle" x="333.1" y="-60.15" font-family="Times,serif" font-size="7.00" fill="#d32f2f">No</text>
</g>
</g>
</svg>
