<?xml version="1.0" encoding="UTF-8" standalone="no"?>
<!DOCTYPE svg PUBLIC "-//W3C//DTD SVG 1.1//EN"
 "http://www.w3.org/Graphics/SVG/1.1/DTD/svg11.dtd">
<!-- Generated by graphviz version 14.1.2 (0)
 -->
<!-- Title: Gates Pages: 1 -->
<svg width="945pt" height="465pt"
 viewBox="0.00 0.00 945.00 465.00" xmlns="http://www.w3.org/2000/svg" xmlns:xlink="http://www.w3.org/1999/xlink">
<g id="graph0" class="graph" transform="scale(1 1) rotate(0) translate(4 461.2)">
<title>Gates</title>
<polygon fill="#ffffff" stroke="none" points="-4,4 -4,-461.2 941.15,-461.2 941.15,4 -4,4"/>
<!-- g0 -->
<g id="node1" class="node">
<title>g0</title>
<path fill="#e3f2fd" stroke="#1565c0" d="M165.9,-457.2C165.9,-457.2 12,-457.2 12,-457.2 6,-457.2 0,-451.2 0,-445.2 0,-445.2 0,-415.56 0,-415.56 0,-409.56 6,-403.56 12,-403.56 12,-403.56 165.9,-403.56 165.9,-403.56 171.9,-403.56 177.9,-409.56 177.9,-415.56 177.9,-415.56 177.9,-445.2 177.9,-445.2 177.9,-451.2 171.9,-457.2 165.9,-457.2"/>
<text xml:space="preserve" text-anchor="middle" x="88.95" y="-444.33" font-family="Helvetica,sans-Serif" font-size="9.00">Gate 0: Scope</text>
<text xml:space="preserve" text-anchor="middle" x="88.95" y="-433.08" font-family="Helvetica,sans-Serif" font-size="9.00">Define objective, repo, in/out scope,</text>
<text xml:space="preserve" text-anchor="middle" x="88.95" y="-421.83" font-family="Helvetica,sans-Serif" font-size="9.00">data sources, telemetry class,</text>
<text xml:space="preserve" text-anchor="middle" x="88.95" y="-410.58" font-family="Helvetica,sans-Serif" font-size="9.00">permissions, rollback plan</text>
</g>
<!-- d0 -->
<g id="node6" class="node">
<title>d0</title>
<path fill="#ffffff" stroke="#616161" d="M258.63,-442.38C258.63,-442.38 248.3,-436.38 248.3,-436.38 243.14,-433.38 243.14,-427.38 248.3,-424.38 248.3,-424.38 258.63,-418.38 258.63,-418.38 263.79,-415.38 274.11,-415.38 279.27,-418.38 279.27,-418.38 289.6,-424.38 289.6,-424.38 294.76,-427.38 294.76,-433.38 289.6,-436.38 289.6,-436.38 279.27,-442.38 279.27,-442.38 274.11,-445.38 263.79,-445.38 258.63,-442.38"/>
<text xml:space="preserve" text-anchor="middle" x="268.95" y="-427.65" font-family="Helvetica,sans-Serif" font-size="8.00">Pass?</text>
</g>
<!-- g0&#45;&gt;d0 -->
<g id="edge1" class="edge">
<title>g0&#45;&gt;d0</title>
<path fill="none" stroke="#1565c0" stroke-width="2" d="M178.16,-436C178.16,-436 235.49,-436 235.49,-436"/>
<polygon fill="#1565c0" stroke="#1565c0" stroke-width="2" points="233.98,-439.5 243.98,-436 233.98,-432.5 233.98,-439.5"/>
</g>
<!-- g1 -->
<g id="node2" class="node">
<title>g1</title>
<path fill="#e3f2fd" stroke="#1565c0" d="M357.15,-358.56C357.15,-358.56 180.75,-358.56 180.75,-358.56 174.75,-358.56 168.75,-352.56 168.75,-346.56 168.75,-346.56 168.75,-316.92 168.75,-316.92 168.75,-310.92 174.75,-304.92 180.75,-304.92 180.75,-304.92 357.15,-304.92 357.15,-304.92 363.15,-304.92 369.15,-310.92 369.15,-316.92 369.15,-316.92 369.15,-346.56 369.15,-346.56 369.15,-352.56 363.15,-358.56 357.15,-358.56"/>
<text xml:space="preserve" text-anchor="middle" x="268.95" y="-345.69" font-family="Helvetica,sans-Serif" font-size="9.00">Gate 1: Design</text>
<text xml:space="preserve" text-anchor="middle" x="268.95" y="-334.44" font-family="Helvetica,sans-Serif" font-size="9.00">Define API contract, permission model,</text>
<text xml:space="preserve" text-anchor="middle" x="268.95" y="-323.19" font-family="Helvetica,sans-Serif" font-size="9.00">response schema, failure&#45;mode behavior,</text>
<text xml:space="preserve" text-anchor="middle" x="268.95" y="-311.94" font-family="Helvetica,sans-Serif" font-size="9.00">security + privacy controls, E2E plan</text>
</g>
<!-- d1 -->
<g id="node7" class="node">
<title>d1</title>
<path fill="#ffffff" stroke="#616161" d="M458.63,-343.74C458.63,-343.74 448.3,-337.74 448.3,-337.74 443.14,-334.74 443.14,-328.74 448.3,-325.74 448.3,-325.74 458.63,-319.74 458.63,-319.74 463.79,-316.74 474.11,-316.74 479.27,-319.74 479.27,-319.74 489.6,-325.74 489.6,-325.74 494.76,-328.74 494.76,-334.74 489.6,-337.74 489.6,-337.74 479.27,-343.74 479.27,-343.74 474.11,-346.74 463.79,-346.74 458.63,-343.74"/>
<text xml:space="preserve" text-anchor="middle" x="468.95" y="-329.01" font-family="Helvetica,sans-Serif" font-size="8.00">Pass?</text>
</g>
<!-- g1&#45;&gt;d1 -->
<g id="edge4" class="edge">
<title>g1&#45;&gt;d1</title>
<path fill="none" stroke="#1565c0" stroke-width="2" d="M369.54,-338C369.54,-338 436.56,-338 436.56,-338"/>
<polygon fill="#1565c0" stroke="#1565c0" stroke-width="2" points="435.05,-341.5 445.05,-338 435.05,-334.5 435.05,-341.5"/>
</g>
<!-- g2 -->
<g id="node3" class="node">
<title>g2</title>
<path fill="#fff3e0" stroke="#e65100" d="M557.53,-259.92C557.53,-259.92 380.38,-259.92 380.38,-259.92 374.38,-259.92 368.38,-253.92 368.38,-247.92 368.38,-247.92 368.38,-218.28 368.38,-218.28 368.38,-212.28 374.38,-206.28 380.38,-206.28 380.38,-206.28 557.53,-206.28 557.53,-206.28 563.53,-206.28 569.53,-212.28 569.53,-218.28 569.53,-218.28 569.53,-247.92 569.53,-247.92 569.53,-253.92 563.53,-259.92 557.53,-259.92"/>
<text xml:space="preserve" text-anchor="middle" x="468.95" y="-247.05" font-family="Helvetica,sans-Serif" font-size="9.00">Gate 2: Implementation</text>
<text xml:space="preserve" text-anchor="middle" x="468.95" y="-235.8" font-family="Helvetica,sans-Serif" font-size="9.00">Unit tests pass, targeted tests pass,</text>
<text xml:space="preserve" text-anchor="middle" x="468.95" y="-224.55" font-family="Helvetica,sans-Serif" font-size="9.00">source gate, permission enforcement,</text>
<text xml:space="preserve" text-anchor="middle" x="468.95" y="-213.3" font-family="Helvetica,sans-Serif" font-size="9.00">schema guards, no hardcoded endpoints</text>
</g>
<!-- d2 -->
<g id="node8" class="node">
<title>d2</title>
<path fill="#ffffff" stroke="#616161" d="M650.63,-245.1C650.63,-245.1 640.3,-239.1 640.3,-239.1 635.14,-236.1 635.14,-230.1 640.3,-227.1 640.3,-227.1 650.63,-221.1 650.63,-221.1 655.79,-218.1 666.11,-218.1 671.27,-221.1 671.27,-221.1 681.6,-227.1 681.6,-227.1 686.76,-230.1 686.76,-236.1 681.6,-239.1 681.6,-239.1 671.27,-245.1 671.27,-245.1 666.11,-248.1 655.79,-248.1 650.63,-245.1"/>
<text xml:space="preserve" text-anchor="middle" x="660.95" y="-230.38" font-family="Helvetica,sans-Serif" font-size="8.00">Pass?</text>
</g>
<!-- g2&#45;&gt;d2 -->
<g id="edge7" class="edge">
<title>g2&#45;&gt;d2</title>
<path fill="none" stroke="#e65100" stroke-width="2" d="M570.01,-239C570.01,-239 627.75,-239 627.75,-239"/>
<polygon fill="#e65100" stroke="#e65100" stroke-width="2" points="626.23,-242.5 636.23,-239 626.23,-235.5 626.23,-242.5"/>
</g>
<!-- g3 -->
<g id="node4" class="node">
<title>g3</title>
<path fill="#fff3e0" stroke="#e65100" d="M742.4,-152.28C742.4,-152.28 579.5,-152.28 579.5,-152.28 573.5,-152.28 567.5,-146.28 567.5,-140.28 567.5,-140.28 567.5,-110.64 567.5,-110.64 567.5,-104.64 573.5,-98.64 579.5,-98.64 579.5,-98.64 742.4,-98.64 742.4,-98.64 748.4,-98.64 754.4,-104.64 754.4,-110.64 754.4,-110.64 754.4,-140.28 754.4,-140.28 754.4,-146.28 748.4,-152.28 742.4,-152.28"/>
<text xml:space="preserve" text-anchor="middle" x="660.95" y="-139.41" font-family="Helvetica,sans-Serif" font-size="9.00">Gate 3: Verification</text>
<text xml:space="preserve" text-anchor="middle" x="660.95" y="-128.16" font-family="Helvetica,sans-Serif" font-size="9.00">Local CLI E2E, public&#45;origin E2E,</text>
<text xml:space="preserve" text-anchor="middle" x="660.95" y="-116.91" font-family="Helvetica,sans-Serif" font-size="9.00">WebUI E2E, privacy regression,</text>
<text xml:space="preserve" text-anchor="middle" x="660.95" y="-105.66" font-family="Helvetica,sans-Serif" font-size="9.00">failure&#45;mode E2E, evidence snapshots</text>
</g>
<!-- d3 -->
<g id="node9" class="node">
<title>d3</title>
<path fill="#ffffff" stroke="#616161" d="M832.63,-137.46C832.63,-137.46 822.3,-131.46 822.3,-131.46 817.14,-128.46 817.14,-122.46 822.3,-119.46 822.3,-119.46 832.63,-113.46 832.63,-113.46 837.79,-110.46 848.11,-110.46 853.27,-113.46 853.27,-113.46 863.6,-119.46 863.6,-119.46 868.76,-122.46 868.76,-128.46 863.6,-131.46 863.6,-131.46 853.27,-137.46 853.27,-137.46 848.11,-140.46 837.79,-140.46 832.63,-137.46"/>
<text xml:space="preserve" text-anchor="middle" x="842.95" y="-122.74" font-family="Helvetica,sans-Serif" font-size="8.00">Pass?</text>
</g>
<!-- g3&#45;&gt;d3 -->
<g id="edge10" class="edge">
<title>g3&#45;&gt;d3</title>
<path fill="none" stroke="#e65100" stroke-width="2" d="M754.88,-125C754.88,-125 800.54,-125 800.54,-125"/>
<polygon fill="#e65100" stroke="#e65100" stroke-width="2" points="799.03,-128.5 809.03,-125 799.03,-121.5 799.03,-128.5"/>
</g>
<!-- g4 -->
<g id="node5" class="node">
<title>g4</title>
<path fill="#e8f5e9" stroke="#2e7d32" d="M925.15,-53.64C925.15,-53.64 760.75,-53.64 760.75,-53.64 754.75,-53.64 748.75,-47.64 748.75,-41.64 748.75,-41.64 748.75,-12 748.75,-12 748.75,-6 754.75,0 760.75,0 760.75,0 925.15,0 925.15,0 931.15,0 937.15,-6 937.15,-12 937.15,-12 937.15,-41.64 937.15,-41.64 937.15,-47.64 931.15,-53.64 925.15,-53.64"/>
<text xml:space="preserve" text-anchor="middle" x="842.95" y="-40.77" font-family="Helvetica,sans-Serif" font-size="9.00">Gate 4: Release</text>
<text xml:space="preserve" text-anchor="middle" x="842.95" y="-29.52" font-family="Helvetica,sans-Serif" font-size="9.00">Release decision, known limitations,</text>
<text xml:space="preserve" text-anchor="middle" x="842.95" y="-18.27" font-family="Helvetica,sans-Serif" font-size="9.00">rollback instructions, release notes,</text>
<text xml:space="preserve" text-anchor="middle" x="842.95" y="-7.02" font-family="Helvetica,sans-Serif" font-size="9.00">evidence bundle, next&#45;release backlog</text>
</g>
<!-- d0&#45;&gt;g0 -->
<g id="edge3" class="edge">
<title>d0&#45;&gt;g0</title>
<path fill="none" stroke="#d32f2f" stroke-dasharray="5,2" d="M248.3,-424C248.3,-424 189.87,-424 189.87,-424"/>
<polygon fill="#d32f2f" stroke="#d32f2f" points="189.87,-420.5 179.87,-424 189.87,-427.5 189.87,-420.5"/>
</g>
<!-- d0&#45;&gt;g1 -->
<g id="edge2" class="edge">
<title>d0&#45;&gt;g1</title>
<path fill="none" stroke="#2e7d32" stroke-width="2" d="M268.95,-411.83C268.95,-411.83 268.95,-370.29 268.95,-370.29"/>
<polygon fill="#2e7d32" stroke="#2e7d32" stroke-width="2" points="272.45,-371.81 268.95,-361.81 265.45,-371.81 272.45,-371.81"/>
<text xml:space="preserve" text-anchor="middle" x="274.95" y="-378.91" font-family="Times,serif" font-size="7.00" fill="#2e7d32">Yes</text>
</g>
<!-- d1&#45;&gt;g1 -->
<g id="edge6" class="edge">
<title>d1&#45;&gt;g1</title>
<path fill="none" stroke="#d32f2f" stroke-dasharray="5,2" d="M447.17,-326C447.17,-326 380.91,-326 380.91,-326"/>
<polygon fill="#d32f2f" stroke="#d32f2f" points="380.91,-322.5 370.91,-326 380.91,-329.5 380.91,-322.5"/>
</g>
<!-- d1&#45;&gt;g2 -->
<g id="edge5" class="edge">
<title>d1&#45;&gt;g2</title>
<path fill="none" stroke="#2e7d32" stroke-width="2" d="M468.95,-313.19C468.95,-313.19 468.95,-271.65 468.95,-271.65"/>
<polygon fill="#2e7d32" stroke="#2e7d32" stroke-width="2" points="472.45,-273.17 468.95,-263.17 465.45,-273.17 472.45,-273.17"/>
<text xml:space="preserve" text-anchor="middle" x="474.95" y="-280.27" font-family="Times,serif" font-size="7.00" fill="#2e7d32">Yes</text>
</g>
<!-- d2&#45;&gt;g2 -->
<g id="edge9" class="edge">
<title>d2&#45;&gt;g2</title>
<path fill="none" stroke="#d32f2f" stroke-dasharray="5,2" d="M639.67,-227C639.67,-227 581.44,-227 581.44,-227"/>
<polygon fill="#d32f2f" stroke="#d32f2f" points="581.44,-223.5 571.44,-227 581.44,-230.5 581.44,-223.5"/>
</g>
<!-- d2&#45;&gt;g3 -->
<g id="edge8" class="edge">
<title>d2&#45;&gt;g3</title>
<path fill="none" stroke="#2e7d32" stroke-width="2" d="M660.95,-214.84C660.95,-214.84 660.95,-164.23 660.95,-164.23"/>
<polygon fill="#2e7d32" stroke="#2e7d32" stroke-width="2" points="664.45,-165.74 660.95,-155.74 657.45,-165.74 664.45,-165.74"/>
<text xml:space="preserve" text-anchor="middle" x="666.95" y="-177.13" font-family="Times,serif" font-size="7.00" fill="#2e7d32">Yes</text>
</g>
<!-- d3&#45;&gt;g2 -->
<g id="edge12" class="edge">
<title>d3&#45;&gt;g2</title>
<path fill="none" stroke="#f57c00" stroke-dasharray="5,2" d="M842.95,-144.02C842.95,-169.18 842.95,-211 842.95,-211 842.95,-211 581.18,-211 581.18,-211"/>
<polygon fill="#f57c00" stroke="#f57c00" points="581.18,-207.5 571.18,-211 581.18,-214.5 581.18,-207.5"/>
<text xml:space="preserve" text-anchor="middle" x="547.95" y="-181.63" font-family="Times,serif" font-size="7.00" fill="#f57c00">No</text>
<text xml:space="preserve" text-anchor="middle" x="547.95" y="-172.63" font-family="Times,serif" font-size="7.00" fill="#f57c00">(fix + re&#45;verify)</text>
</g>
<!-- d3&#45;&gt;g4 -->
<g id="edge11" class="edge">
<title>d3&#45;&gt;g4</title>
<path fill="none" stroke="#2e7d32" stroke-width="2" d="M842.95,-106.91C842.95,-106.91 842.95,-65.37 842.95,-65.37"/>
<polygon fill="#2e7d32" stroke="#2e7d32" stroke-width="2" points="846.45,-66.89 842.95,-56.89 839.45,-66.89 846.45,-66.89"/>
<text xml:space="preserve" text-anchor="middle" x="848.95" y="-73.99" font-family="Times,serif" font-size="7.00" fill="#2e7d32">Yes</text>
</g>
</g>
</svg>
