<?xml version="1.0" encoding="UTF-8" standalone="no"?>
<!DOCTYPE svg PUBLIC "-//W3C//DTD SVG 1.1//EN"
 "http://www.w3.org/Graphics/SVG/1.1/DTD/svg11.dtd">
<!-- Generated by graphviz version 14.1.2 (0)
 -->
<!-- Title: Governance Pages: 1 -->
<svg width="160pt" height="1184pt"
 viewBox="0.00 0.00 160.00 1184.00" xmlns="http://www.w3.org/2000/svg" xmlns:xlink="http://www.w3.org/1999/xlink">
<g id="graph0" class="graph" transform="scale(1 1) rotate(0) translate(4 1179.75)">
<title>Governance</title>
<polygon fill="#ffffff" stroke="none" points="-4,4 -4,-1179.75 156,-1179.75 156,4 -4,4"/>
<g id="clust1" class="cluster">
<title>cluster_pr_gates</title>
<path fill="#1565c0" stroke="#1565c0" stroke-dasharray="5,2" d="M20,-735.5C20,-735.5 132,-735.5 132,-735.5 138,-735.5 144,-741.5 144,-747.5 144,-747.5 144,-1119.75 144,-1119.75 144,-1125.75 138,-1131.75 132,-1131.75 132,-1131.75 20,-1131.75 20,-1131.75 14,-1131.75 8,-1125.75 8,-1119.75 8,-1119.75 8,-747.5 8,-747.5 8,-741.5 14,-735.5 20,-735.5"/>
<text xml:space="preserve" text-anchor="middle" x="76" y="-1119.2" font-family="Helvetica,sans-Serif" font-size="9.00" fill="#1565c0">PR Gates (16 checkpoints)</text>
</g>
<g id="clust2" class="cluster">
<title>cluster_release_gates</title>
<path fill="#e65100" stroke="#e65100" stroke-dasharray="5,2" d="M32,-396.25C32,-396.25 128,-396.25 128,-396.25 134,-396.25 140,-402.25 140,-408.25 140,-408.25 140,-715.5 140,-715.5 140,-721.5 134,-727.5 128,-727.5 128,-727.5 32,-727.5 32,-727.5 26,-727.5 20,-721.5 20,-715.5 20,-715.5 20,-408.25 20,-408.25 20,-402.25 26,-396.25 32,-396.25"/>
<text xml:space="preserve" text-anchor="middle" x="80" y="-714.95" font-family="Helvetica,sans-Serif" font-size="9.00" fill="#e65100">5&#45;Gate Release Process</text>
</g>
<g id="clust3" class="cluster">
<title>cluster_evidence</title>
<path fill="#2e7d32" stroke="#2e7d32" stroke-dasharray="5,2" d="M25,-57C25,-57 119,-57 119,-57 125,-57 131,-63 131,-69 131,-69 131,-376.25 131,-376.25 131,-382.25 125,-388.25 119,-388.25 119,-388.25 25,-388.25 25,-388.25 19,-388.25 13,-382.25 13,-376.25 13,-376.25 13,-69 13,-69 13,-63 19,-57 25,-57"/>
<text xml:space="preserve" text-anchor="middle" x="72" y="-375.7" font-family="Helvetica,sans-Serif" font-size="9.00" fill="#2e7d32">Outputs</text>
</g>
<!-- pr -->
<g id="node1" class="node">
<title>pr</title>
<path fill="#e3f2fd" stroke="#1565c0" d="M98.33,-1175.75C98.33,-1175.75 45.67,-1175.75 45.67,-1175.75 39.67,-1175.75 33.67,-1169.75 33.67,-1163.75 33.67,-1163.75 33.67,-1151.75 33.67,-1151.75 33.67,-1145.75 39.67,-1139.75 45.67,-1139.75 45.67,-1139.75 98.33,-1139.75 98.33,-1139.75 104.33,-1139.75 110.33,-1145.75 110.33,-1151.75 110.33,-1151.75 110.33,-1163.75 110.33,-1163.75 110.33,-1169.75 104.33,-1175.75 98.33,-1175.75"/>
<text xml:space="preserve" text-anchor="middle" x="72" y="-1159.9" font-family="Helvetica,sans-Serif" font-size="8.00">Feature Branch</text>
<text xml:space="preserve" text-anchor="middle" x="72" y="-1150.15" font-family="Helvetica,sans-Serif" font-size="8.00">→ PR opened</text>
</g>
<!-- pg1 -->
<g id="node2" class="node">
<title>pg1</title>
<path fill="#bbdefb" stroke="#1565c0" d="M103.58,-1104.5C103.58,-1104.5 40.42,-1104.5 40.42,-1104.5 34.42,-1104.5 28.42,-1098.5 28.42,-1092.5 28.42,-1092.5 28.42,-1080.5 28.42,-1080.5 28.42,-1074.5 34.42,-1068.5 40.42,-1068.5 40.42,-1068.5 103.58,-1068.5 103.58,-1068.5 109.58,-1068.5 115.58,-1074.5 115.58,-1080.5 115.58,-1080.5 115.58,-1092.5 115.58,-1092.5 115.58,-1098.5 109.58,-1104.5 103.58,-1104.5"/>
<text xml:space="preserve" text-anchor="middle" x="72" y="-1088.85" font-family="Helvetica,sans-Serif" font-size="7.00">Clean main</text>
<text xml:space="preserve" text-anchor="middle" x="72" y="-1079.85" font-family="Helvetica,sans-Serif" font-size="7.00">Lockstep with origin</text>
</g>
<!-- pr&#45;&gt;pg1 -->
<g id="edge1" class="edge">
<title>pr&#45;&gt;pg1</title>
<path fill="none" stroke="black" stroke-width="2" d="M72,-1139.28C72,-1132.25 72,-1123.97 72,-1116.11"/>
<polygon fill="black" stroke="black" stroke-width="2" points="75.5,-1117.76 72,-1107.76 68.5,-1117.76 75.5,-1117.76"/>
</g>
<!-- pg2 -->
<g id="node3" class="node">
<title>pg2</title>
<path fill="#bbdefb" stroke="#1565c0" d="M87,-1039.5C87,-1039.5 57,-1039.5 57,-1039.5 51,-1039.5 45,-1033.5 45,-1027.5 45,-1027.5 45,-1015.5 45,-1015.5 45,-1009.5 51,-1003.5 57,-1003.5 57,-1003.5 87,-1003.5 87,-1003.5 93,-1003.5 99,-1009.5 99,-1015.5 99,-1015.5 99,-1027.5 99,-1027.5 99,-1033.5 93,-1039.5 87,-1039.5"/>
<text xml:space="preserve" text-anchor="middle" x="72" y="-1023.85" font-family="Helvetica,sans-Serif" font-size="7.00">Unit tests</text>
<text xml:space="preserve" text-anchor="middle" x="72" y="-1014.85" font-family="Helvetica,sans-Serif" font-size="7.00">pass</text>
</g>
<!-- pg1&#45;&gt;pg2 -->
<g id="edge2" class="edge">
<title>pg1&#45;&gt;pg2</title>
<path fill="none" stroke="black" d="M72,-1068.28C72,-1062.87 72,-1056.74 72,-1050.76"/>
<polygon fill="black" stroke="black" points="75.5,-1051.21 72,-1041.21 68.5,-1051.21 75.5,-1051.21"/>
</g>
<!-- pg3 -->
<g id="node4" class="node">
<title>pg3</title>
<path fill="#bbdefb" stroke="#1565c0" d="M111.83,-974.5C111.83,-974.5 32.17,-974.5 32.17,-974.5 26.17,-974.5 20.17,-968.5 20.17,-962.5 20.17,-962.5 20.17,-950.5 20.17,-950.5 20.17,-944.5 26.17,-938.5 32.17,-938.5 32.17,-938.5 111.83,-938.5 111.83,-938.5 117.83,-938.5 123.83,-944.5 123.83,-950.5 123.83,-950.5 123.83,-962.5 123.83,-962.5 123.83,-968.5 117.83,-974.5 111.83,-974.5"/>
<text xml:space="preserve" text-anchor="middle" x="72" y="-958.85" font-family="Helvetica,sans-Serif" font-size="7.00">Security scans</text>
<text xml:space="preserve" text-anchor="middle" x="72" y="-949.85" font-family="Helvetica,sans-Serif" font-size="7.00">(Gitleaks,Semgrep,Trivy)</text>
</g>
<!-- pg2&#45;&gt;pg3 -->
<g id="edge3" class="edge">
<title>pg2&#45;&gt;pg3</title>
<path fill="none" stroke="black" d="M72,-1003.28C72,-997.87 72,-991.74 72,-985.76"/>
<polygon fill="black" stroke="black" points="75.5,-986.21 72,-976.21 68.5,-986.21 75.5,-986.21"/>
</g>
<!-- pg4 -->
<g id="node5" class="node">
<title>pg4</title>
<path fill="#bbdefb" stroke="#1565c0" d="M97.58,-909.5C97.58,-909.5 46.42,-909.5 46.42,-909.5 40.42,-909.5 34.42,-903.5 34.42,-897.5 34.42,-897.5 34.42,-885.5 34.42,-885.5 34.42,-879.5 40.42,-873.5 46.42,-873.5 46.42,-873.5 97.58,-873.5 97.58,-873.5 103.58,-873.5 109.58,-879.5 109.58,-885.5 109.58,-885.5 109.58,-897.5 109.58,-897.5 109.58,-903.5 103.58,-909.5 97.58,-909.5"/>
<text xml:space="preserve" text-anchor="middle" x="72" y="-893.85" font-family="Helvetica,sans-Serif" font-size="7.00">Documentation</text>
<text xml:space="preserve" text-anchor="middle" x="72" y="-884.85" font-family="Helvetica,sans-Serif" font-size="7.00">impact reviewed</text>
</g>
<!-- pg3&#45;&gt;pg4 -->
<g id="edge4" class="edge">
<title>pg3&#45;&gt;pg4</title>
<path fill="none" stroke="black" d="M72,-938.28C72,-932.87 72,-926.74 72,-920.76"/>
<polygon fill="black" stroke="black" points="75.5,-921.21 72,-911.21 68.5,-921.21 75.5,-921.21"/>
</g>
<!-- pg5 -->
<g id="node6" class="node">
<title>pg5</title>
<path fill="#bbdefb" stroke="#1565c0" d="M90.83,-844.5C90.83,-844.5 53.17,-844.5 53.17,-844.5 47.17,-844.5 41.17,-838.5 41.17,-832.5 41.17,-832.5 41.17,-820.5 41.17,-820.5 41.17,-814.5 47.17,-808.5 53.17,-808.5 53.17,-808.5 90.83,-808.5 90.83,-808.5 96.83,-808.5 102.83,-814.5 102.83,-820.5 102.83,-820.5 102.83,-832.5 102.83,-832.5 102.83,-838.5 96.83,-844.5 90.83,-844.5"/>
<text xml:space="preserve" text-anchor="middle" x="72" y="-828.85" font-family="Helvetica,sans-Serif" font-size="7.00">SBOM impact</text>
<text xml:space="preserve" text-anchor="middle" x="72" y="-819.85" font-family="Helvetica,sans-Serif" font-size="7.00">stated</text>
</g>
<!-- pg4&#45;&gt;pg5 -->
<g id="edge5" class="edge">
<title>pg4&#45;&gt;pg5</title>
<path fill="none" stroke="black" d="M72,-873.28C72,-867.87 72,-861.74 72,-855.76"/>
<polygon fill="black" stroke="black" points="75.5,-856.21 72,-846.21 68.5,-856.21 75.5,-856.21"/>
</g>
<!-- pg6 -->
<g id="node7" class="node">
<title>pg6</title>
<path fill="#bbdefb" stroke="#1565c0" d="M87.08,-779.5C87.08,-779.5 56.92,-779.5 56.92,-779.5 50.92,-779.5 44.92,-773.5 44.92,-767.5 44.92,-767.5 44.92,-755.5 44.92,-755.5 44.92,-749.5 50.92,-743.5 56.92,-743.5 56.92,-743.5 87.08,-743.5 87.08,-743.5 93.08,-743.5 99.08,-749.5 99.08,-755.5 99.08,-755.5 99.08,-767.5 99.08,-767.5 99.08,-773.5 93.08,-779.5 87.08,-779.5"/>
<text xml:space="preserve" text-anchor="middle" x="72" y="-763.85" font-family="Helvetica,sans-Serif" font-size="7.00">SOC2&#45;style</text>
<text xml:space="preserve" text-anchor="middle" x="72" y="-754.85" font-family="Helvetica,sans-Serif" font-size="7.00">controls</text>
</g>
<!-- pg5&#45;&gt;pg6 -->
<g id="edge6" class="edge">
<title>pg5&#45;&gt;pg6</title>
<path fill="none" stroke="black" d="M72,-808.28C72,-802.87 72,-796.74 72,-790.76"/>
<polygon fill="black" stroke="black" points="75.5,-791.21 72,-781.21 68.5,-791.21 75.5,-791.21"/>
</g>
<!-- rg0 -->
<g id="node8" class="node">
<title>rg0</title>
<path fill="#ffe0b2" stroke="#e65100" d="M87,-700.25C87,-700.25 57,-700.25 57,-700.25 51,-700.25 45,-694.25 45,-688.25 45,-688.25 45,-676.25 45,-676.25 45,-670.25 51,-664.25 57,-664.25 57,-664.25 87,-664.25 87,-664.25 93,-664.25 99,-670.25 99,-676.25 99,-676.25 99,-688.25 99,-688.25 99,-694.25 93,-700.25 87,-700.25"/>
<text xml:space="preserve" text-anchor="middle" x="72" y="-684.6" font-family="Helvetica,sans-Serif" font-size="7.00">Gate 0</text>
<text xml:space="preserve" text-anchor="middle" x="72" y="-675.6" font-family="Helvetica,sans-Serif" font-size="7.00">Scope</text>
</g>
<!-- pg6&#45;&gt;rg0 -->
<g id="edge7" class="edge">
<title>pg6&#45;&gt;rg0</title>
<path fill="none" stroke="#e65100" stroke-width="2" d="M72,-743.36C72,-734.12 72,-722.48 72,-711.91"/>
<polygon fill="#e65100" stroke="#e65100" stroke-width="2" points="75.5,-713.64 72,-703.64 68.5,-713.64 75.5,-713.64"/>
</g>
<!-- rg1 -->
<g id="node9" class="node">
<title>rg1</title>
<path fill="#ffe0b2" stroke="#e65100" d="M87,-635.25C87,-635.25 57,-635.25 57,-635.25 51,-635.25 45,-629.25 45,-623.25 45,-623.25 45,-611.25 45,-611.25 45,-605.25 51,-599.25 57,-599.25 57,-599.25 87,-599.25 87,-599.25 93,-599.25 99,-605.25 99,-611.25 99,-611.25 99,-623.25 99,-623.25 99,-629.25 93,-635.25 87,-635.25"/>
<text xml:space="preserve" text-anchor="middle" x="72" y="-619.6" font-family="Helvetica,sans-Serif" font-size="7.00">Gate 1</text>
<text xml:space="preserve" text-anchor="middle" x="72" y="-610.6" font-family="Helvetica,sans-Serif" font-size="7.00">Design</text>
</g>
<!-- rg0&#45;&gt;rg1 -->
<g id="edge8" class="edge">
<title>rg0&#45;&gt;rg1</title>
<path fill="none" stroke="#e65100" stroke-width="2" d="M72,-664.03C72,-658.62 72,-652.49 72,-646.51"/>
<polygon fill="#e65100" stroke="#e65100" stroke-width="2" points="75.5,-648.47 72,-638.47 68.5,-648.47 75.5,-648.47"/>
</g>
<!-- rg2 -->
<g id="node10" class="node">
<title>rg2</title>
<path fill="#ffe0b2" stroke="#e65100" d="M96.08,-570.25C96.08,-570.25 47.92,-570.25 47.92,-570.25 41.92,-570.25 35.92,-564.25 35.92,-558.25 35.92,-558.25 35.92,-546.25 35.92,-546.25 35.92,-540.25 41.92,-534.25 47.92,-534.25 47.92,-534.25 96.08,-534.25 96.08,-534.25 102.08,-534.25 108.08,-540.25 108.08,-546.25 108.08,-546.25 108.08,-558.25 108.08,-558.25 108.08,-564.25 102.08,-570.25 96.08,-570.25"/>
<text xml:space="preserve" text-anchor="middle" x="72" y="-554.6" font-family="Helvetica,sans-Serif" font-size="7.00">Gate 2</text>
<text xml:space="preserve" text-anchor="middle" x="72" y="-545.6" font-family="Helvetica,sans-Serif" font-size="7.00">Implementation</text>
</g>
<!-- rg1&#45;&gt;rg2 -->
<g id="edge9" class="edge">
<title>rg1&#45;&gt;rg2</title>
<path fill="none" stroke="#e65100" stroke-width="2" d="M72,-599.03C72,-593.62 72,-587.49 72,-581.51"/>
<polygon fill="#e65100" stroke="#e65100" stroke-width="2" points="75.5,-583.47 72,-573.47 68.5,-583.47 75.5,-583.47"/>
</g>
<!-- rg3 -->
<g id="node11" class="node">
<title>rg3</title>
<path fill="#ffe0b2" stroke="#e65100" d="M87.83,-505.25C87.83,-505.25 56.17,-505.25 56.17,-505.25 50.17,-505.25 44.17,-499.25 44.17,-493.25 44.17,-493.25 44.17,-481.25 44.17,-481.25 44.17,-475.25 50.17,-469.25 56.17,-469.25 56.17,-469.25 87.83,-469.25 87.83,-469.25 93.83,-469.25 99.83,-475.25 99.83,-481.25 99.83,-481.25 99.83,-493.25 99.83,-493.25 99.83,-499.25 93.83,-505.25 87.83,-505.25"/>
<text xml:space="preserve" text-anchor="middle" x="72" y="-489.6" font-family="Helvetica,sans-Serif" font-size="7.00">Gate 3</text>
<text xml:space="preserve" text-anchor="middle" x="72" y="-480.6" font-family="Helvetica,sans-Serif" font-size="7.00">Verification</text>
</g>
<!-- rg2&#45;&gt;rg3 -->
<g id="edge10" class="edge">
<title>rg2&#45;&gt;rg3</title>
<path fill="none" stroke="#e65100" stroke-width="2" d="M72,-534.03C72,-528.62 72,-522.49 72,-516.51"/>
<polygon fill="#e65100" stroke="#e65100" stroke-width="2" points="75.5,-518.47 72,-508.47 68.5,-518.47 75.5,-518.47"/>
</g>
<!-- rg4 -->
<g id="node12" class="node">
<title>rg4</title>
<path fill="#ffe0b2" stroke="#e65100" d="M87,-440.25C87,-440.25 57,-440.25 57,-440.25 51,-440.25 45,-434.25 45,-428.25 45,-428.25 45,-416.25 45,-416.25 45,-410.25 51,-404.25 57,-404.25 57,-404.25 87,-404.25 87,-404.25 93,-404.25 99,-410.25 99,-416.25 99,-416.25 99,-428.25 99,-428.25 99,-434.25 93,-440.25 87,-440.25"/>
<text xml:space="preserve" text-anchor="middle" x="72" y="-424.6" font-family="Helvetica,sans-Serif" font-size="7.00">Gate 4</text>
<text xml:space="preserve" text-anchor="middle" x="72" y="-415.6" font-family="Helvetica,sans-Serif" font-size="7.00">Release</text>
</g>
<!-- rg3&#45;&gt;rg4 -->
<g id="edge11" class="edge">
<title>rg3&#45;&gt;rg4</title>
<path fill="none" stroke="#e65100" stroke-width="2" d="M72,-469.03C72,-463.62 72,-457.49 72,-451.51"/>
<polygon fill="#e65100" stroke="#e65100" stroke-width="2" points="75.5,-453.47 72,-443.47 68.5,-453.47 75.5,-453.47"/>
</g>
<!-- ev1 -->
<g id="node13" class="node">
<title>ev1</title>
<path fill="#c8e6c9" stroke="#388e3c" d="M109.58,-361C109.58,-361 34.42,-361 34.42,-361 28.42,-361 22.42,-355 22.42,-349 22.42,-349 22.42,-337 22.42,-337 22.42,-331 28.42,-325 34.42,-325 34.42,-325 109.58,-325 109.58,-325 115.58,-325 121.58,-331 121.58,-337 121.58,-337 121.58,-349 121.58,-349 121.58,-355 115.58,-361 109.58,-361"/>
<text xml:space="preserve" text-anchor="middle" x="72" y="-340.85" font-family="Helvetica,sans-Serif" font-size="7.00">16&#45;file evidence bundle</text>
</g>
<!-- rg4&#45;&gt;ev1 -->
<g id="edge12" class="edge">
<title>rg4&#45;&gt;ev1</title>
<path fill="none" stroke="#2e7d32" stroke-width="2" d="M72,-404.11C72,-394.87 72,-383.23 72,-372.66"/>
<polygon fill="#2e7d32" stroke="#2e7d32" stroke-width="2" points="75.5,-374.39 72,-364.39 68.5,-374.39 75.5,-374.39"/>
</g>
<!-- ev2 -->
<g id="node14" class="node">
<title>ev2</title>
<path fill="#c8e6c9" stroke="#388e3c" d="M111.45,-296C111.45,-296 32.55,-296 32.55,-296 26.55,-296 20.55,-290 20.55,-284 20.55,-284 20.55,-272 20.55,-272 20.55,-266 26.55,-260 32.55,-260 32.55,-260 111.45,-260 111.45,-260 117.45,-260 123.45,-266 123.45,-272 123.45,-272 123.45,-284 123.45,-284 123.45,-290 117.45,-296 111.45,-296"/>
<text xml:space="preserve" text-anchor="middle" x="72" y="-275.85" font-family="Helvetica,sans-Serif" font-size="7.00">SBOM (CycloneDX/SPDX)</text>
</g>
<!-- ev1&#45;&gt;ev2 -->
<g id="edge13" class="edge">
<title>ev1&#45;&gt;ev2</title>
<path fill="none" stroke="black" d="M72,-324.78C72,-319.37 72,-313.24 72,-307.26"/>
<polygon fill="black" stroke="black" points="75.5,-307.71 72,-297.71 68.5,-307.71 75.5,-307.71"/>
</g>
<!-- ev3 -->
<g id="node15" class="node">
<title>ev3</title>
<path fill="#c8e6c9" stroke="#388e3c" d="M97.58,-231C97.58,-231 46.42,-231 46.42,-231 40.42,-231 34.42,-225 34.42,-219 34.42,-219 34.42,-207 34.42,-207 34.42,-201 40.42,-195 46.42,-195 46.42,-195 97.58,-195 97.58,-195 103.58,-195 109.58,-201 109.58,-207 109.58,-207 109.58,-219 109.58,-219 109.58,-225 103.58,-231 97.58,-231"/>
<text xml:space="preserve" text-anchor="middle" x="72" y="-210.85" font-family="Helvetica,sans-Serif" font-size="7.00">Release decision</text>
</g>
<!-- ev2&#45;&gt;ev3 -->
<g id="edge14" class="edge">
<title>ev2&#45;&gt;ev3</title>
<path fill="none" stroke="black" d="M72,-259.78C72,-254.37 72,-248.24 72,-242.26"/>
<polygon fill="black" stroke="black" points="75.5,-242.71 72,-232.71 68.5,-242.71 75.5,-242.71"/>
</g>
<!-- ev4 -->
<g id="node16" class="node">
<title>ev4</title>
<path fill="#c8e6c9" stroke="#388e3c" d="M94.95,-166C94.95,-166 49.05,-166 49.05,-166 43.05,-166 37.05,-160 37.05,-154 37.05,-154 37.05,-142 37.05,-142 37.05,-136 43.05,-130 49.05,-130 49.05,-130 94.95,-130 94.95,-130 100.95,-130 106.95,-136 106.95,-142 106.95,-142 106.95,-154 106.95,-154 106.95,-160 100.95,-166 94.95,-166"/>
<text xml:space="preserve" text-anchor="middle" x="72" y="-150.35" font-family="Helvetica,sans-Serif" font-size="7.00">GitHub Release</text>
<text xml:space="preserve" text-anchor="middle" x="72" y="-141.35" font-family="Helvetica,sans-Serif" font-size="7.00">+ SHA&#45;256</text>
</g>
<!-- ev3&#45;&gt;ev4 -->
<g id="edge15" class="edge">
<title>ev3&#45;&gt;ev4</title>
<path fill="none" stroke="black" d="M72,-194.78C72,-189.37 72,-183.24 72,-177.26"/>
<polygon fill="black" stroke="black" points="75.5,-177.71 72,-167.71 68.5,-177.71 75.5,-177.71"/>
</g>
<!-- ev5 -->
<g id="node17" class="node">
<title>ev5</title>
<path fill="#c8e6c9" stroke="#388e3c" d="M87.08,-101C87.08,-101 56.92,-101 56.92,-101 50.92,-101 44.92,-95 44.92,-89 44.92,-89 44.92,-77 44.92,-77 44.92,-71 50.92,-65 56.92,-65 56.92,-65 87.08,-65 87.08,-65 93.08,-65 99.08,-71 99.08,-77 99.08,-77 99.08,-89 99.08,-89 99.08,-95 93.08,-101 87.08,-101"/>
<text xml:space="preserve" text-anchor="middle" x="72" y="-80.85" font-family="Helvetica,sans-Serif" font-size="7.00">Catalog PR</text>
</g>
<!-- ev4&#45;&gt;ev5 -->
<g id="edge16" class="edge">
<title>ev4&#45;&gt;ev5</title>
<path fill="none" stroke="black" d="M72,-129.78C72,-124.37 72,-118.24 72,-112.26"/>
<polygon fill="black" stroke="black" points="75.5,-112.71 72,-102.71 68.5,-112.71 75.5,-112.71"/>
</g>
<!-- done -->
<g id="node18" class="node">
<title>done</title>
<ellipse fill="#a5d6a7" stroke="#2e7d32" cx="72" cy="-18" rx="51.56" ry="18"/>
<text xml:space="preserve" text-anchor="middle" x="72" y="-15.28" font-family="Helvetica,sans-Serif" font-size="8.00">Release Complete</text>
</g>
<!-- ev5&#45;&gt;done -->
<g id="edge17" class="edge">
<title>ev5&#45;&gt;done</title>
<path fill="none" stroke="black" d="M72,-64.78C72,-59.37 72,-53.24 72,-47.26"/>
<polygon fill="black" stroke="black" points="75.5,-47.71 72,-37.71 68.5,-47.71 75.5,-47.71"/>
</g>
</g>
</svg>
