<?xml version="1.0" encoding="UTF-8" standalone="no"?>
<!DOCTYPE svg PUBLIC "-//W3C//DTD SVG 1.1//EN"
 "http://www.w3.org/Graphics/SVG/1.1/DTD/svg11.dtd">
<!-- Generated by graphviz version 14.1.2 (0)
 -->
<!-- Title: ReleasePipeline Pages: 1 -->
<svg width="642pt" height="243pt"
 viewBox="0.00 0.00 642.00 243.00" xmlns="http://www.w3.org/2000/svg" xmlns:xlink="http://www.w3.org/1999/xlink">
<g id="graph0" class="graph" transform="scale(1 1) rotate(0) translate(4 239)">
<title>ReleasePipeline</title>
<polygon fill="#ffffff" stroke="none" points="-4,4 -4,-239 638,-239 638,4 -4,4"/>
<g id="clust1" class="cluster">
<title>cluster_core</title>
<path fill="#1565c0" stroke="#1565c0" stroke-dasharray="5,2" d="M55.2,-108C55.2,-108 614,-108 614,-108 620,-108 626,-114 626,-120 626,-120 626,-215 626,-215 626,-221 620,-227 614,-227 614,-227 55.2,-227 55.2,-227 49.2,-227 43.2,-221 43.2,-215 43.2,-215 43.2,-120 43.2,-120 43.2,-114 49.2,-108 55.2,-108"/>
<text xml:space="preserve" text-anchor="middle" x="334.6" y="-214.45" font-family="Helvetica,sans-Serif" font-size="9.00" fill="#1565c0">Core Infrastructure</text>
<text xml:space="preserve" text-anchor="middle" x="334.6" y="-203.2" font-family="Helvetica,sans-Serif" font-size="9.00" fill="#1565c0">5 major capability releases</text>
</g>
<!-- r1 -->
<g id="node1" class="node">
<title>r1</title>
<path fill="#a5d6a7" stroke="#2e7d32" d="M74.4,-188C74.4,-188 12,-188 12,-188 6,-188 0,-182 0,-176 0,-176 0,-128 0,-128 0,-122 6,-116 12,-116 12,-116 74.4,-116 74.4,-116 80.4,-116 86.4,-122 86.4,-128 86.4,-128 86.4,-176 86.4,-176 86.4,-182 80.4,-188 74.4,-188"/>
<text xml:space="preserve" text-anchor="middle" x="43.2" y="-163.9" font-family="Helvetica,sans-Serif" font-size="8.00" fill="#1b5e20">R1</text>
<text xml:space="preserve" text-anchor="middle" x="43.2" y="-154.15" font-family="Helvetica,sans-Serif" font-size="8.00" fill="#1b5e20">Metrics Stack</text>
<text xml:space="preserve" text-anchor="middle" x="43.2" y="-144.4" font-family="Helvetica,sans-Serif" font-size="8.00" fill="#1b5e20">MVP</text>
<text xml:space="preserve" text-anchor="middle" x="43.2" y="-134.65" font-family="Helvetica,sans-Serif" font-size="8.00" fill="#1b5e20">[DONE]</text>
</g>
<!-- r2 -->
<g id="node2" class="node">
<title>r2</title>
<path fill="#90caf9" stroke="#1565c0" d="M199,-188C199,-188 129.4,-188 129.4,-188 123.4,-188 117.4,-182 117.4,-176 117.4,-176 117.4,-128 117.4,-128 117.4,-122 123.4,-116 129.4,-116 129.4,-116 199,-116 199,-116 205,-116 211,-122 211,-128 211,-128 211,-176 211,-176 211,-182 205,-188 199,-188"/>
<text xml:space="preserve" text-anchor="middle" x="164.2" y="-163.9" font-family="Helvetica,sans-Serif" font-size="8.00">R2</text>
<text xml:space="preserve" text-anchor="middle" x="164.2" y="-154.15" font-family="Helvetica,sans-Serif" font-size="8.00">Console Exporter</text>
<text xml:space="preserve" text-anchor="middle" x="164.2" y="-144.4" font-family="Helvetica,sans-Serif" font-size="8.00">SOC Foundation</text>
<text xml:space="preserve" text-anchor="middle" x="164.2" y="-134.65" font-family="Helvetica,sans-Serif" font-size="8.00">(Grafana+AM)</text>
</g>
<!-- r1&#45;&gt;r2 -->
<g id="edge1" class="edge">
<title>r1&#45;&gt;r2</title>
<path fill="none" stroke="#1565c0" stroke-width="2" d="M86.83,-152C92.99,-152 99.43,-152 105.83,-152"/>
<polygon fill="#1565c0" stroke="#1565c0" stroke-width="2" points="104.22,-155.5 114.22,-152 104.22,-148.5 104.22,-155.5"/>
</g>
<!-- r3 -->
<g id="node3" class="node">
<title>r3</title>
<path fill="#90caf9" stroke="#1565c0" d="M323.6,-188C323.6,-188 254,-188 254,-188 248,-188 242,-182 242,-176 242,-176 242,-128 242,-128 242,-122 248,-116 254,-116 254,-116 323.6,-116 323.6,-116 329.6,-116 335.6,-122 335.6,-128 335.6,-128 335.6,-176 335.6,-176 335.6,-182 329.6,-188 323.6,-188"/>
<text xml:space="preserve" text-anchor="middle" x="288.8" y="-163.9" font-family="Helvetica,sans-Serif" font-size="8.00">R3</text>
<text xml:space="preserve" text-anchor="middle" x="288.8" y="-154.15" font-family="Helvetica,sans-Serif" font-size="8.00">Prometheus</text>
<text xml:space="preserve" text-anchor="middle" x="288.8" y="-144.4" font-family="Helvetica,sans-Serif" font-size="8.00">Bridge API</text>
<text xml:space="preserve" text-anchor="middle" x="288.8" y="-134.65" font-family="Helvetica,sans-Serif" font-size="8.00">(metrics.query)</text>
</g>
<!-- r2&#45;&gt;r3 -->
<g id="edge2" class="edge">
<title>r2&#45;&gt;r3</title>
<path fill="none" stroke="#1565c0" stroke-width="2" d="M211.2,-152C217.4,-152 223.82,-152 230.19,-152"/>
<polygon fill="#1565c0" stroke="#1565c0" stroke-width="2" points="228.51,-155.5 238.51,-152 228.51,-148.5 228.51,-155.5"/>
</g>
<!-- a04 -->
<g id="node7" class="node">
<title>a04</title>
<path fill="#e1bee7" stroke="#6a1b9a" d="M199,-72C199,-72 129.4,-72 129.4,-72 123.4,-72 117.4,-66 117.4,-60 117.4,-60 117.4,-12 117.4,-12 117.4,-6 123.4,0 129.4,0 129.4,0 199,0 199,0 205,0 211,-6 211,-12 211,-12 211,-60 211,-60 211,-66 205,-72 199,-72"/>
<text xml:space="preserve" text-anchor="middle" x="164.2" y="-47.9" font-family="Helvetica,sans-Serif" font-size="8.00">v0.4</text>
<text xml:space="preserve" text-anchor="middle" x="164.2" y="-38.15" font-family="Helvetica,sans-Serif" font-size="8.00">Game Activity</text>
<text xml:space="preserve" text-anchor="middle" x="164.2" y="-28.4" font-family="Helvetica,sans-Serif" font-size="8.00">&amp; Combat</text>
<text xml:space="preserve" text-anchor="middle" x="164.2" y="-18.65" font-family="Helvetica,sans-Serif" font-size="8.00">(sessions+deaths)</text>
</g>
<!-- r2&#45;&gt;a04 -->
<g id="edge5" class="edge">
<title>r2&#45;&gt;a04</title>
<path fill="none" stroke="#d32f2f" stroke-dasharray="5,2" d="M164.2,-115.74C164.2,-105.6 164.2,-94.43 164.2,-83.73"/>
<polygon fill="#d32f2f" stroke="#d32f2f" points="167.7,-83.9 164.2,-73.9 160.7,-83.9 167.7,-83.9"/>
<text xml:space="preserve" text-anchor="middle" x="157.45" y="-92.05" font-family="Times,serif" font-size="6.00" fill="#d32f2f">enables</text>
</g>
<!-- r4 -->
<g id="node4" class="node">
<title>r4</title>
<path fill="#90caf9" stroke="#1565c0" d="M477.8,-188C477.8,-188 415.4,-188 415.4,-188 409.4,-188 403.4,-182 403.4,-176 403.4,-176 403.4,-128 403.4,-128 403.4,-122 409.4,-116 415.4,-116 415.4,-116 477.8,-116 477.8,-116 483.8,-116 489.8,-122 489.8,-128 489.8,-128 489.8,-176 489.8,-176 489.8,-182 483.8,-188 477.8,-188"/>
<text xml:space="preserve" text-anchor="middle" x="446.6" y="-163.9" font-family="Helvetica,sans-Serif" font-size="8.00">R4</text>
<text xml:space="preserve" text-anchor="middle" x="446.6" y="-154.15" font-family="Helvetica,sans-Serif" font-size="8.00">SOC</text>
<text xml:space="preserve" text-anchor="middle" x="446.6" y="-144.4" font-family="Helvetica,sans-Serif" font-size="8.00">Hardening</text>
<text xml:space="preserve" text-anchor="middle" x="446.6" y="-134.65" font-family="Helvetica,sans-Serif" font-size="8.00">(Redis+CSP)</text>
</g>
<!-- r3&#45;&gt;r4 -->
<g id="edge3" class="edge">
<title>r3&#45;&gt;r4</title>
<path fill="none" stroke="#1565c0" stroke-width="2" d="M335.7,-152C353.24,-152 373.39,-152 391.61,-152"/>
<polygon fill="#1565c0" stroke="#1565c0" stroke-width="2" points="389.93,-155.5 399.93,-152 389.93,-148.5 389.93,-155.5"/>
</g>
<!-- a06v10 -->
<g id="node9" class="node">
<title>a06v10</title>
<path fill="#ce93d8" stroke="#8e24aa" d="M488.6,-72C488.6,-72 404.6,-72 404.6,-72 398.6,-72 392.6,-66 392.6,-60 392.6,-60 392.6,-12 392.6,-12 392.6,-6 398.6,0 404.6,0 404.6,0 488.6,0 488.6,0 494.6,0 500.6,-6 500.6,-12 500.6,-12 500.6,-60 500.6,-60 500.6,-66 494.6,-72 488.6,-72"/>
<text xml:space="preserve" text-anchor="middle" x="446.6" y="-47.9" font-family="Helvetica,sans-Serif" font-size="8.00">v0.6 → v1.0</text>
<text xml:space="preserve" text-anchor="middle" x="446.6" y="-38.15" font-family="Helvetica,sans-Serif" font-size="8.00">World+Assets</text>
<text xml:space="preserve" text-anchor="middle" x="446.6" y="-28.4" font-family="Helvetica,sans-Serif" font-size="8.00">→ SOC/OPS Center</text>
<text xml:space="preserve" text-anchor="middle" x="446.6" y="-18.65" font-family="Helvetica,sans-Serif" font-size="8.00">(needs Core R3+R4)</text>
</g>
<!-- r3&#45;&gt;a06v10 -->
<g id="edge6" class="edge">
<title>r3&#45;&gt;a06v10</title>
<path fill="none" stroke="#d32f2f" stroke-dasharray="5,2" d="M335.7,-117.82C352.06,-105.64 370.7,-91.77 387.92,-78.95"/>
<polygon fill="#d32f2f" stroke="#d32f2f" points="389.63,-82.04 395.56,-73.26 385.45,-76.42 389.63,-82.04"/>
<text xml:space="preserve" text-anchor="middle" x="364.1" y="-106.19" font-family="Times,serif" font-size="6.00" fill="#d32f2f">required</text>
</g>
<!-- r5 -->
<g id="node5" class="node">
<title>r5</title>
<path fill="#90caf9" stroke="#1565c0" d="M606,-188C606,-188 543.6,-188 543.6,-188 537.6,-188 531.6,-182 531.6,-176 531.6,-176 531.6,-128 531.6,-128 531.6,-122 537.6,-116 543.6,-116 543.6,-116 606,-116 606,-116 612,-116 618,-122 618,-128 618,-128 618,-176 618,-176 618,-182 612,-188 606,-188"/>
<text xml:space="preserve" text-anchor="middle" x="574.8" y="-163.9" font-family="Helvetica,sans-Serif" font-size="8.00">R5</text>
<text xml:space="preserve" text-anchor="middle" x="574.8" y="-154.15" font-family="Helvetica,sans-Serif" font-size="8.00">Ops</text>
<text xml:space="preserve" text-anchor="middle" x="574.8" y="-144.4" font-family="Helvetica,sans-Serif" font-size="8.00">Maturity</text>
<text xml:space="preserve" text-anchor="middle" x="574.8" y="-134.65" font-family="Helvetica,sans-Serif" font-size="8.00">(SLO/SLI)</text>
</g>
<!-- r4&#45;&gt;r5 -->
<g id="edge4" class="edge">
<title>r4&#45;&gt;r5</title>
<path fill="none" stroke="#1565c0" stroke-width="2" d="M489.97,-152C499.55,-152 509.84,-152 519.81,-152"/>
<polygon fill="#1565c0" stroke="#1565c0" stroke-width="2" points="518.3,-155.5 528.3,-152 518.3,-148.5 518.3,-155.5"/>
</g>
<!-- r4&#45;&gt;a06v10 -->
<g id="edge7" class="edge">
<title>r4&#45;&gt;a06v10</title>
<path fill="none" stroke="#d32f2f" stroke-dasharray="5,2" d="M446.6,-115.74C446.6,-105.6 446.6,-94.43 446.6,-83.73"/>
<polygon fill="#d32f2f" stroke="#d32f2f" points="450.1,-83.9 446.6,-73.9 443.1,-83.9 450.1,-83.9"/>
<text xml:space="preserve" text-anchor="middle" x="439.85" y="-92.05" font-family="Times,serif" font-size="6.00" fill="#d32f2f">required</text>
</g>
<!-- a03 -->
<g id="node6" class="node">
<title>a03</title>
<path fill="#a5d6a7" stroke="#2e7d32" d="M74.4,-72C74.4,-72 12,-72 12,-72 6,-72 0,-66 0,-60 0,-60 0,-12 0,-12 0,-6 6,0 12,0 12,0 74.4,0 74.4,0 80.4,0 86.4,-6 86.4,-12 86.4,-12 86.4,-60 86.4,-60 86.4,-66 80.4,-72 74.4,-72"/>
<text xml:space="preserve" text-anchor="middle" x="43.2" y="-47.9" font-family="Helvetica,sans-Serif" font-size="8.00" fill="#1b5e20">v0.3</text>
<text xml:space="preserve" text-anchor="middle" x="43.2" y="-38.15" font-family="Helvetica,sans-Serif" font-size="8.00" fill="#1b5e20">OPS Health</text>
<text xml:space="preserve" text-anchor="middle" x="43.2" y="-28.4" font-family="Helvetica,sans-Serif" font-size="8.00" fill="#1b5e20">Foundation</text>
<text xml:space="preserve" text-anchor="middle" x="43.2" y="-18.65" font-family="Helvetica,sans-Serif" font-size="8.00" fill="#1b5e20">[DONE]</text>
</g>
<!-- a03&#45;&gt;a04 -->
<g id="edge8" class="edge">
<title>a03&#45;&gt;a04</title>
<path fill="none" stroke="#6a1b9a" stroke-width="2" d="M86.83,-36C92.99,-36 99.43,-36 105.83,-36"/>
<polygon fill="#6a1b9a" stroke="#6a1b9a" stroke-width="2" points="104.22,-39.5 114.22,-36 104.22,-32.5 104.22,-39.5"/>
</g>
<!-- a05 -->
<g id="node8" class="node">
<title>a05</title>
<path fill="#e1bee7" stroke="#6a1b9a" d="M323.6,-72C323.6,-72 254,-72 254,-72 248,-72 242,-66 242,-60 242,-60 242,-12 242,-12 242,-6 248,0 254,0 254,0 323.6,0 323.6,0 329.6,0 335.6,-6 335.6,-12 335.6,-12 335.6,-60 335.6,-60 335.6,-66 329.6,-72 323.6,-72"/>
<text xml:space="preserve" text-anchor="middle" x="288.8" y="-47.9" font-family="Helvetica,sans-Serif" font-size="8.00">v0.5</text>
<text xml:space="preserve" text-anchor="middle" x="288.8" y="-38.15" font-family="Helvetica,sans-Serif" font-size="8.00">Economy &amp;</text>
<text xml:space="preserve" text-anchor="middle" x="288.8" y="-28.4" font-family="Helvetica,sans-Serif" font-size="8.00">Resources</text>
<text xml:space="preserve" text-anchor="middle" x="288.8" y="-18.65" font-family="Helvetica,sans-Serif" font-size="8.00">(gather+market)</text>
</g>
<!-- a04&#45;&gt;a05 -->
<g id="edge9" class="edge">
<title>a04&#45;&gt;a05</title>
<path fill="none" stroke="#6a1b9a" stroke-width="2" d="M211.2,-36C217.4,-36 223.82,-36 230.19,-36"/>
<polygon fill="#6a1b9a" stroke="#6a1b9a" stroke-width="2" points="228.51,-39.5 238.51,-36 228.51,-32.5 228.51,-39.5"/>
</g>
<!-- a05&#45;&gt;a06v10 -->
<g id="edge10" class="edge">
<title>a05&#45;&gt;a06v10</title>
<path fill="none" stroke="#6a1b9a" stroke-width="2" d="M335.7,-36C349.86,-36 365.74,-36 380.92,-36"/>
<polygon fill="#6a1b9a" stroke="#6a1b9a" stroke-width="2" points="379.32,-39.5 389.32,-36 379.32,-32.5 379.32,-39.5"/>
</g>
</g>
</svg>
