<?xml version="1.0" encoding="UTF-8" standalone="no"?>
<!DOCTYPE svg PUBLIC "-//W3C//DTD SVG 1.1//EN"
 "http://www.w3.org/Graphics/SVG/1.1/DTD/svg11.dtd">
<!-- Generated by graphviz version 14.1.2 (0)
 -->
<!-- Title: SecurityPosture Pages: 1 -->
<svg width="260pt" height="669pt"
 viewBox="0.00 0.00 260.00 669.00" xmlns="http://www.w3.org/2000/svg" xmlns:xlink="http://www.w3.org/1999/xlink">
<g id="graph0" class="graph" transform="scale(1 1) rotate(0) translate(4 664.73)">
<title>SecurityPosture</title>
<polygon fill="#ffffff" stroke="none" points="-4,4 -4,-664.73 256,-664.73 256,4 -4,4"/>
<g id="clust1" class="cluster">
<title>cluster_layers</title>
<path fill="#1565c0" stroke="#1565c0" d="M20,-8C20,-8 232,-8 232,-8 238,-8 244,-14 244,-20 244,-20 244,-640.73 244,-640.73 244,-646.73 238,-652.73 232,-652.73 232,-652.73 20,-652.73 20,-652.73 14,-652.73 8,-646.73 8,-640.73 8,-640.73 8,-20 8,-20 8,-14 14,-8 20,-8"/>
<text xml:space="preserve" text-anchor="middle" x="126" y="-639.23" font-family="Helvetica,sans-Serif" font-size="10.00" fill="#1565c0">Defense&#45;in&#45;Depth</text>
</g>
<!-- l1 -->
<g id="node1" class="node">
<title>l1</title>
<path fill="#a5d6a7" stroke="#2e7d32" d="M195.07,-623.98C195.07,-623.98 56.93,-623.98 56.93,-623.98 50.93,-623.98 44.92,-617.98 44.92,-611.98 44.92,-611.98 44.92,-578.59 44.92,-578.59 44.92,-572.59 50.92,-566.59 56.92,-566.59 56.92,-566.59 195.07,-566.59 195.07,-566.59 201.07,-566.59 207.07,-572.59 207.07,-578.59 207.07,-578.59 207.07,-611.98 207.07,-611.98 207.07,-617.98 201.07,-623.98 195.07,-623.98"/>
<text xml:space="preserve" text-anchor="middle" x="126" y="-612.06" font-family="Helvetica,sans-Serif" font-size="8.00">Layer 1: Transport</text>
<text xml:space="preserve" text-anchor="middle" x="126" y="-602.31" font-family="Helvetica,sans-Serif" font-size="8.00">HMAC&#45;SHA256 sessions</text>
<text xml:space="preserve" text-anchor="middle" x="126" y="-592.56" font-family="Helvetica,sans-Serif" font-size="8.00">CSRF tokens on mutations</text>
<text xml:space="preserve" text-anchor="middle" x="126" y="-582.81" font-family="Helvetica,sans-Serif" font-size="8.00">Security headers (nosniff, DENY)</text>
<text xml:space="preserve" text-anchor="middle" x="126" y="-573.06" font-family="Helvetica,sans-Serif" font-size="8.00">timingSafeEqual password compare</text>
</g>
<!-- l2 -->
<g id="node2" class="node">
<title>l2</title>
<path fill="#90caf9" stroke="#1565c0" d="M217.2,-530.59C217.2,-530.59 34.8,-530.59 34.8,-530.59 28.8,-530.59 22.8,-524.59 22.8,-518.59 22.8,-518.59 22.8,-494.95 22.8,-494.95 22.8,-488.95 28.8,-482.95 34.8,-482.95 34.8,-482.95 217.2,-482.95 217.2,-482.95 223.2,-482.95 229.2,-488.95 229.2,-494.95 229.2,-494.95 229.2,-518.59 229.2,-518.59 229.2,-524.59 223.2,-530.59 217.2,-530.59"/>
<text xml:space="preserve" text-anchor="middle" x="126" y="-518.67" font-family="Helvetica,sans-Serif" font-size="8.00">Layer 2: Rate Limiting</text>
<text xml:space="preserve" text-anchor="middle" x="126" y="-508.92" font-family="Helvetica,sans-Serif" font-size="8.00">Login: per&#45;client 8/15m + global 32/15m</text>
<text xml:space="preserve" text-anchor="middle" x="126" y="-499.17" font-family="Helvetica,sans-Serif" font-size="8.00">Bridge: per&#45;addon 60/min + global 300/min</text>
<text xml:space="preserve" text-anchor="middle" x="126" y="-489.42" font-family="Helvetica,sans-Serif" font-size="8.00">R4: Redis&#45;backed persistence + proxy&#45;aware IP</text>
</g>
<!-- l1&#45;&gt;l2 -->
<g id="edge1" class="edge">
<title>l1&#45;&gt;l2</title>
<path fill="none" stroke="#1565c0" stroke-width="2" d="M126,-566.43C126,-558.74 126,-550.29 126,-542.26"/>
<polygon fill="#1565c0" stroke="#1565c0" stroke-width="2" points="129.5,-543.96 126,-533.96 122.5,-543.96 129.5,-543.96"/>
</g>
<!-- l3 -->
<g id="node3" class="node">
<title>l3</title>
<path fill="#90caf9" stroke="#1565c0" d="M224.32,-446.95C224.32,-446.95 27.68,-446.95 27.68,-446.95 21.68,-446.95 15.67,-440.95 15.67,-434.95 15.67,-434.95 15.67,-401.56 15.67,-401.56 15.67,-395.56 21.67,-389.56 27.67,-389.56 27.67,-389.56 224.32,-389.56 224.32,-389.56 230.32,-389.56 236.32,-395.56 236.32,-401.56 236.32,-401.56 236.32,-434.95 236.32,-434.95 236.32,-440.95 230.32,-446.95 224.32,-446.95"/>
<text xml:space="preserve" text-anchor="middle" x="126" y="-435.03" font-family="Helvetica,sans-Serif" font-size="8.00">Layer 3: Input Validation</text>
<text xml:space="preserve" text-anchor="middle" x="126" y="-425.28" font-family="Helvetica,sans-Serif" font-size="8.00">JSON body size limit (2MiB)</text>
<text xml:space="preserve" text-anchor="middle" x="126" y="-415.53" font-family="Helvetica,sans-Serif" font-size="8.00">Upload size limit (1GiB)</text>
<text xml:space="preserve" text-anchor="middle" x="126" y="-405.78" font-family="Helvetica,sans-Serif" font-size="8.00">IP allowlisting (ADMIN_ALLOWED_IPS)</text>
<text xml:space="preserve" text-anchor="middle" x="126" y="-396.03" font-family="Helvetica,sans-Serif" font-size="8.00">Addon ID pattern validation (^[a&#45;z0&#45;9&#45;]{{1,63}}$)</text>
</g>
<!-- l2&#45;&gt;l3 -->
<g id="edge2" class="edge">
<title>l2&#45;&gt;l3</title>
<path fill="none" stroke="#1565c0" stroke-width="2" d="M126,-482.59C126,-475.24 126,-466.9 126,-458.74"/>
<polygon fill="#1565c0" stroke="#1565c0" stroke-width="2" points="129.5,-460.47 126,-450.47 122.5,-460.47 129.5,-460.47"/>
</g>
<!-- l4 -->
<g id="node4" class="node">
<title>l4</title>
<path fill="#fff3e0" stroke="#e65100" d="M208.2,-353.56C208.2,-353.56 43.8,-353.56 43.8,-353.56 37.8,-353.56 31.8,-347.56 31.8,-341.56 31.8,-341.56 31.8,-308.17 31.8,-308.17 31.8,-302.17 37.8,-296.17 43.8,-296.17 43.8,-296.17 208.2,-296.17 208.2,-296.17 214.2,-296.17 220.2,-302.17 220.2,-308.17 220.2,-308.17 220.2,-341.56 220.2,-341.56 220.2,-347.56 214.2,-353.56 208.2,-353.56"/>
<text xml:space="preserve" text-anchor="middle" x="126" y="-341.64" font-family="Helvetica,sans-Serif" font-size="8.00">Layer 4: Bridge Access Control</text>
<text xml:space="preserve" text-anchor="middle" x="126" y="-331.89" font-family="Helvetica,sans-Serif" font-size="8.00">Permission gating (ops:read, players:read)</text>
<text xml:space="preserve" text-anchor="middle" x="126" y="-322.14" font-family="Helvetica,sans-Serif" font-size="8.00">Read&#45;only SQL enforcement</text>
<text xml:space="preserve" text-anchor="middle" x="126" y="-312.39" font-family="Helvetica,sans-Serif" font-size="8.00">SHA&#45;256 checksum verification</text>
<text xml:space="preserve" text-anchor="middle" x="126" y="-302.64" font-family="Helvetica,sans-Serif" font-size="8.00">Addon provenance tracking</text>
</g>
<!-- l3&#45;&gt;l4 -->
<g id="edge3" class="edge">
<title>l3&#45;&gt;l4</title>
<path fill="none" stroke="#1565c0" stroke-width="2" d="M126,-389.34C126,-381.79 126,-373.48 126,-365.42"/>
<polygon fill="#1565c0" stroke="#1565c0" stroke-width="2" points="129.5,-366.95 126,-356.95 122.5,-366.95 129.5,-366.95"/>
</g>
<!-- l5 -->
<g id="node5" class="node">
<title>l5</title>
<path fill="#fff3e0" stroke="#e65100" d="M207.45,-260.17C207.45,-260.17 44.55,-260.17 44.55,-260.17 38.55,-260.17 32.55,-254.17 32.55,-248.17 32.55,-248.17 32.55,-214.78 32.55,-214.78 32.55,-208.78 38.55,-202.78 44.55,-202.78 44.55,-202.78 207.45,-202.78 207.45,-202.78 213.45,-202.78 219.45,-208.78 219.45,-214.78 219.45,-214.78 219.45,-248.17 219.45,-248.17 219.45,-254.17 213.45,-260.17 207.45,-260.17"/>
<text xml:space="preserve" text-anchor="middle" x="126" y="-248.25" font-family="Helvetica,sans-Serif" font-size="8.00">Layer 5: Data Protection</text>
<text xml:space="preserve" text-anchor="middle" x="126" y="-238.5" font-family="Helvetica,sans-Serif" font-size="8.00">Secret redaction (JWT, tokens, passwords)</text>
<text xml:space="preserve" text-anchor="middle" x="126" y="-228.75" font-family="Helvetica,sans-Serif" font-size="8.00">JSONL audit logging</text>
<text xml:space="preserve" text-anchor="middle" x="126" y="-219" font-family="Helvetica,sans-Serif" font-size="8.00">R4: Per&#45;addon CSP sandbox</text>
<text xml:space="preserve" text-anchor="middle" x="126" y="-209.25" font-family="Helvetica,sans-Serif" font-size="8.00">R4: Proxy&#45;aware IP detection</text>
</g>
<!-- l4&#45;&gt;l5 -->
<g id="edge4" class="edge">
<title>l4&#45;&gt;l5</title>
<path fill="none" stroke="#1565c0" stroke-width="2" d="M126,-295.95C126,-288.4 126,-280.09 126,-272.03"/>
<polygon fill="#1565c0" stroke="#1565c0" stroke-width="2" points="129.5,-273.56 126,-263.56 122.5,-273.56 129.5,-273.56"/>
</g>
<!-- l6 -->
<g id="node6" class="node">
<title>l6</title>
<path fill="#e1bee7" stroke="#6a1b9a" d="M189.45,-166.78C189.45,-166.78 62.55,-166.78 62.55,-166.78 56.55,-166.78 50.55,-160.78 50.55,-154.78 50.55,-154.78 50.55,-121.39 50.55,-121.39 50.55,-115.39 56.55,-109.39 62.55,-109.39 62.55,-109.39 189.45,-109.39 189.45,-109.39 195.45,-109.39 201.45,-115.39 201.45,-121.39 201.45,-121.39 201.45,-154.78 201.45,-154.78 201.45,-160.78 195.45,-166.78 189.45,-166.78"/>
<text xml:space="preserve" text-anchor="middle" x="126" y="-154.86" font-family="Helvetica,sans-Serif" font-size="8.00">Layer 6: CI/CD Security</text>
<text xml:space="preserve" text-anchor="middle" x="126" y="-145.11" font-family="Helvetica,sans-Serif" font-size="8.00">Gitleaks secret scanning</text>
<text xml:space="preserve" text-anchor="middle" x="126" y="-135.36" font-family="Helvetica,sans-Serif" font-size="8.00">Semgrep static analysis</text>
<text xml:space="preserve" text-anchor="middle" x="126" y="-125.61" font-family="Helvetica,sans-Serif" font-size="8.00">Trivy filesystem vulnerability scan</text>
<text xml:space="preserve" text-anchor="middle" x="126" y="-115.86" font-family="Helvetica,sans-Serif" font-size="8.00">ShellCheck + git diff &#45;&#45;check</text>
</g>
<!-- l5&#45;&gt;l6 -->
<g id="edge5" class="edge">
<title>l5&#45;&gt;l6</title>
<path fill="none" stroke="#1565c0" stroke-width="2" d="M126,-202.56C126,-195.01 126,-186.7 126,-178.64"/>
<polygon fill="#1565c0" stroke="#1565c0" stroke-width="2" points="129.5,-180.17 126,-170.17 122.5,-180.17 129.5,-180.17"/>
</g>
<!-- l7 -->
<g id="node7" class="node">
<title>l7</title>
<path fill="#e1bee7" stroke="#6a1b9a" d="M185.7,-73.39C185.7,-73.39 66.3,-73.39 66.3,-73.39 60.3,-73.39 54.3,-67.39 54.3,-61.39 54.3,-61.39 54.3,-28 54.3,-28 54.3,-22 60.3,-16 66.3,-16 66.3,-16 185.7,-16 185.7,-16 191.7,-16 197.7,-22 197.7,-28 197.7,-28 197.7,-61.39 197.7,-61.39 197.7,-67.39 191.7,-73.39 185.7,-73.39"/>
<text xml:space="preserve" text-anchor="middle" x="126" y="-61.47" font-family="Helvetica,sans-Serif" font-size="8.00">Layer 7: Monitoring &amp; Detection</text>
<text xml:space="preserve" text-anchor="middle" x="126" y="-51.72" font-family="Helvetica,sans-Serif" font-size="8.00">Prometheus alerts (16 rules)</text>
<text xml:space="preserve" text-anchor="middle" x="126" y="-41.97" font-family="Helvetica,sans-Serif" font-size="8.00">R2: Grafana visualizations</text>
<text xml:space="preserve" text-anchor="middle" x="126" y="-32.22" font-family="Helvetica,sans-Serif" font-size="8.00">R2: Alertmanager notifications</text>
<text xml:space="preserve" text-anchor="middle" x="126" y="-22.47" font-family="Helvetica,sans-Serif" font-size="8.00">R3: Structured logging</text>
</g>
<!-- l6&#45;&gt;l7 -->
<g id="edge6" class="edge">
<title>l6&#45;&gt;l7</title>
<path fill="none" stroke="#1565c0" stroke-width="2" d="M126,-109.17C126,-101.62 126,-93.31 126,-85.25"/>
<polygon fill="#1565c0" stroke="#1565c0" stroke-width="2" points="129.5,-86.78 126,-76.78 122.5,-86.78 129.5,-86.78"/>
</g>
</g>
</svg>
