<?xml version="1.0" encoding="UTF-8" standalone="no"?>
<!DOCTYPE svg PUBLIC "-//W3C//DTD SVG 1.1//EN"
 "http://www.w3.org/Graphics/SVG/1.1/DTD/svg11.dtd">
<!-- Generated by graphviz version 14.1.2 (0)
 -->
<!-- Title: StandardsMapping Pages: 1 -->
<svg width="1049pt" height="188pt"
 viewBox="0.00 0.00 1049.00 188.00" xmlns="http://www.w3.org/2000/svg" xmlns:xlink="http://www.w3.org/1999/xlink">
<g id="graph0" class="graph" transform="scale(1 1) rotate(0) translate(4 184.15)">
<title>StandardsMapping</title>
<polygon fill="#ffffff" stroke="none" points="-4,4 -4,-184.15 1045,-184.15 1045,4 -4,4"/>
<g id="clust1" class="cluster">
<title>cluster_standards</title>
<path fill="#1565c0" stroke="#1565c0" d="M20,-89.2C20,-89.2 1021,-89.2 1021,-89.2 1027,-89.2 1033,-95.2 1033,-101.2 1033,-101.2 1033,-160.15 1033,-160.15 1033,-166.15 1027,-172.15 1021,-172.15 1021,-172.15 20,-172.15 20,-172.15 14,-172.15 8,-166.15 8,-160.15 8,-160.15 8,-101.2 8,-101.2 8,-95.2 14,-89.2 20,-89.2"/>
<text xml:space="preserve" text-anchor="middle" x="520.5" y="-158.65" font-family="Helvetica,sans-Serif" font-size="10.00" fill="#1565c0">Industry Standards</text>
</g>
<g id="clust2" class="cluster">
<title>cluster_releases</title>
<path fill="#2e7d32" stroke="#2e7d32" d="M55,-8C55,-8 972,-8 972,-8 978,-8 984,-14 984,-20 984,-20 984,-69.2 984,-69.2 984,-75.2 978,-81.2 972,-81.2 972,-81.2 55,-81.2 55,-81.2 49,-81.2 43,-75.2 43,-69.2 43,-69.2 43,-20 43,-20 43,-14 49,-8 55,-8"/>
<text xml:space="preserve" text-anchor="middle" x="513.5" y="-67.7" font-family="Helvetica,sans-Serif" font-size="10.00" fill="#2e7d32">Maps To</text>
</g>
<!-- red -->
<g id="node1" class="node">
<title>red</title>
<path fill="#e3f2fd" stroke="#1565c0" d="M148,-138.53C148,-138.53 28,-138.53 28,-138.53 22,-138.53 16,-132.53 16,-126.53 16,-126.53 16,-114.08 16,-114.08 16,-108.08 22,-102.08 28,-102.08 28,-102.08 148,-102.08 148,-102.08 154,-102.08 160,-108.08 160,-114.08 160,-114.08 160,-126.53 160,-126.53 160,-132.53 154,-138.53 148,-138.53"/>
<text xml:space="preserve" text-anchor="middle" x="88" y="-127.33" font-family="Helvetica,sans-Serif" font-size="8.00">RED</text>
<text xml:space="preserve" text-anchor="middle" x="88" y="-117.58" font-family="Helvetica,sans-Serif" font-size="8.00">Rate · Errors · Duration</text>
<text xml:space="preserve" text-anchor="middle" x="88" y="-107.83" font-family="Helvetica,sans-Serif" font-size="8.00">API&#45;level monitoring</text>
</g>
<!-- r2d -->
<g id="node8" class="node">
<title>r2d</title>
<path fill="#c8e6c9" stroke="#388e3c" d="M327.8,-52.45C327.8,-52.45 222.2,-52.45 222.2,-52.45 216.2,-52.45 210.2,-46.45 210.2,-40.45 210.2,-40.45 210.2,-28 210.2,-28 210.2,-22 216.2,-16 222.2,-16 222.2,-16 327.8,-16 327.8,-16 333.8,-16 339.8,-22 339.8,-28 339.8,-28 339.8,-40.45 339.8,-40.45 339.8,-46.45 333.8,-52.45 327.8,-52.45"/>
<text xml:space="preserve" text-anchor="middle" x="275" y="-41.25" font-family="Helvetica,sans-Serif" font-size="8.00">R2</text>
<text xml:space="preserve" text-anchor="middle" x="275" y="-31.5" font-family="Helvetica,sans-Serif" font-size="8.00">Grafana + Alertmanager</text>
<text xml:space="preserve" text-anchor="middle" x="275" y="-21.75" font-family="Helvetica,sans-Serif" font-size="8.00">Console exporter</text>
</g>
<!-- red&#45;&gt;r2d -->
<g id="edge1" class="edge">
<title>red&#45;&gt;r2d</title>
<path fill="none" stroke="#1565c0" stroke-dasharray="5,2" d="M160.45,-120C174.47,-120 184.9,-120 184.9,-120 184.9,-120 184.9,-34 184.9,-34 184.9,-34 198.48,-34 198.48,-34"/>
<polygon fill="#1565c0" stroke="#1565c0" points="198.48,-37.5 208.48,-34 198.48,-30.5 198.48,-37.5"/>
</g>
<!-- use -->
<g id="node2" class="node">
<title>use</title>
<path fill="#e3f2fd" stroke="#1565c0" d="M321,-143.4C321,-143.4 201,-143.4 201,-143.4 195,-143.4 189,-137.4 189,-131.4 189,-131.4 189,-109.2 189,-109.2 189,-103.2 195,-97.2 201,-97.2 201,-97.2 321,-97.2 321,-97.2 327,-97.2 333,-103.2 333,-109.2 333,-109.2 333,-131.4 333,-131.4 333,-137.4 327,-143.4 321,-143.4"/>
<text xml:space="preserve" text-anchor="middle" x="261" y="-132.2" font-family="Helvetica,sans-Serif" font-size="8.00">USE</text>
<text xml:space="preserve" text-anchor="middle" x="261" y="-122.45" font-family="Helvetica,sans-Serif" font-size="8.00">Utilization · Saturation</text>
<text xml:space="preserve" text-anchor="middle" x="261" y="-112.7" font-family="Helvetica,sans-Serif" font-size="8.00">· Errors</text>
<text xml:space="preserve" text-anchor="middle" x="261" y="-102.95" font-family="Helvetica,sans-Serif" font-size="8.00">Resource monitoring</text>
</g>
<!-- use&#45;&gt;r2d -->
<g id="edge2" class="edge">
<title>use&#45;&gt;r2d</title>
<path fill="none" stroke="#1565c0" stroke-dasharray="5,2" d="M271.6,-96.78C271.6,-96.78 271.6,-64.32 271.6,-64.32"/>
<polygon fill="#1565c0" stroke="#1565c0" points="275.1,-64.32 271.6,-54.32 268.1,-64.32 275.1,-64.32"/>
</g>
<!-- four -->
<g id="node3" class="node">
<title>four</title>
<path fill="#e3f2fd" stroke="#1565c0" d="M494,-138.53C494,-138.53 374,-138.53 374,-138.53 368,-138.53 362,-132.53 362,-126.53 362,-126.53 362,-114.08 362,-114.08 362,-108.08 368,-102.08 374,-102.08 374,-102.08 494,-102.08 494,-102.08 500,-102.08 506,-108.08 506,-114.08 506,-114.08 506,-126.53 506,-126.53 506,-132.53 500,-138.53 494,-138.53"/>
<text xml:space="preserve" text-anchor="middle" x="434" y="-127.33" font-family="Helvetica,sans-Serif" font-size="8.00">Four Golden Signals</text>
<text xml:space="preserve" text-anchor="middle" x="434" y="-117.58" font-family="Helvetica,sans-Serif" font-size="8.00">Latency · Traffic</text>
<text xml:space="preserve" text-anchor="middle" x="434" y="-107.83" font-family="Helvetica,sans-Serif" font-size="8.00">Errors · Saturation</text>
</g>
<!-- r3d -->
<g id="node9" class="node">
<title>r3d</title>
<path fill="#c8e6c9" stroke="#388e3c" d="M486.8,-52.45C486.8,-52.45 381.2,-52.45 381.2,-52.45 375.2,-52.45 369.2,-46.45 369.2,-40.45 369.2,-40.45 369.2,-28 369.2,-28 369.2,-22 375.2,-16 381.2,-16 381.2,-16 486.8,-16 486.8,-16 492.8,-16 498.8,-22 498.8,-28 498.8,-28 498.8,-40.45 498.8,-40.45 498.8,-46.45 492.8,-52.45 486.8,-52.45"/>
<text xml:space="preserve" text-anchor="middle" x="434" y="-41.25" font-family="Helvetica,sans-Serif" font-size="8.00">R3</text>
<text xml:space="preserve" text-anchor="middle" x="434" y="-31.5" font-family="Helvetica,sans-Serif" font-size="8.00">Prometheus bridge API</text>
<text xml:space="preserve" text-anchor="middle" x="434" y="-21.75" font-family="Helvetica,sans-Serif" font-size="8.00">metrics.query</text>
</g>
<!-- four&#45;&gt;r3d -->
<g id="edge3" class="edge">
<title>four&#45;&gt;r3d</title>
<path fill="none" stroke="#1565c0" stroke-dasharray="5,2" d="M434,-101.62C434,-101.62 434,-64.38 434,-64.38"/>
<polygon fill="#1565c0" stroke="#1565c0" points="437.5,-64.38 434,-54.38 430.5,-64.38 437.5,-64.38"/>
</g>
<!-- soc2 -->
<g id="node4" class="node">
<title>soc2</title>
<path fill="#fff3e0" stroke="#e65100" d="M667,-138.53C667,-138.53 547,-138.53 547,-138.53 541,-138.53 535,-132.53 535,-126.53 535,-126.53 535,-114.08 535,-114.08 535,-108.08 541,-102.08 547,-102.08 547,-102.08 667,-102.08 667,-102.08 673,-102.08 679,-108.08 679,-114.08 679,-114.08 679,-126.53 679,-126.53 679,-132.53 673,-138.53 667,-138.53"/>
<text xml:space="preserve" text-anchor="middle" x="607" y="-127.33" font-family="Helvetica,sans-Serif" font-size="8.00">SOC2 Controls</text>
<text xml:space="preserve" text-anchor="middle" x="607" y="-117.58" font-family="Helvetica,sans-Serif" font-size="8.00">Change Mgmt · Access</text>
<text xml:space="preserve" text-anchor="middle" x="607" y="-107.83" font-family="Helvetica,sans-Serif" font-size="8.00">Testing · Risk · Audit</text>
</g>
<!-- r4d -->
<g id="node10" class="node">
<title>r4d</title>
<path fill="#c8e6c9" stroke="#388e3c" d="M645.8,-52.45C645.8,-52.45 540.2,-52.45 540.2,-52.45 534.2,-52.45 528.2,-46.45 528.2,-40.45 528.2,-40.45 528.2,-28 528.2,-28 528.2,-22 534.2,-16 540.2,-16 540.2,-16 645.8,-16 645.8,-16 651.8,-16 657.8,-22 657.8,-28 657.8,-28 657.8,-40.45 657.8,-40.45 657.8,-46.45 651.8,-52.45 645.8,-52.45"/>
<text xml:space="preserve" text-anchor="middle" x="593" y="-41.25" font-family="Helvetica,sans-Serif" font-size="8.00">R4</text>
<text xml:space="preserve" text-anchor="middle" x="593" y="-31.5" font-family="Helvetica,sans-Serif" font-size="8.00">SOC hardening</text>
<text xml:space="preserve" text-anchor="middle" x="593" y="-21.75" font-family="Helvetica,sans-Serif" font-size="8.00">Redis + CSP</text>
</g>
<!-- soc2&#45;&gt;r4d -->
<g id="edge4" class="edge">
<title>soc2&#45;&gt;r4d</title>
<path fill="none" stroke="#1565c0" stroke-dasharray="5,2" d="M596.4,-101.62C596.4,-101.62 596.4,-64.38 596.4,-64.38"/>
<polygon fill="#1565c0" stroke="#1565c0" points="599.9,-64.38 596.4,-54.38 592.9,-64.38 599.9,-64.38"/>
</g>
<!-- r5d -->
<g id="node11" class="node">
<title>r5d</title>
<path fill="#c8e6c9" stroke="#388e3c" d="M804.8,-52.45C804.8,-52.45 699.2,-52.45 699.2,-52.45 693.2,-52.45 687.2,-46.45 687.2,-40.45 687.2,-40.45 687.2,-28 687.2,-28 687.2,-22 693.2,-16 699.2,-16 699.2,-16 804.8,-16 804.8,-16 810.8,-16 816.8,-22 816.8,-28 816.8,-28 816.8,-40.45 816.8,-40.45 816.8,-46.45 810.8,-52.45 804.8,-52.45"/>
<text xml:space="preserve" text-anchor="middle" x="752" y="-41.25" font-family="Helvetica,sans-Serif" font-size="8.00">R5</text>
<text xml:space="preserve" text-anchor="middle" x="752" y="-31.5" font-family="Helvetica,sans-Serif" font-size="8.00">SLO/SLI framework</text>
<text xml:space="preserve" text-anchor="middle" x="752" y="-21.75" font-family="Helvetica,sans-Serif" font-size="8.00">DORA tracking</text>
</g>
<!-- soc2&#45;&gt;r5d -->
<g id="edge5" class="edge">
<title>soc2&#45;&gt;r5d</title>
<path fill="none" stroke="#1565c0" stroke-dasharray="5,2" d="M679.27,-120C690.03,-120 697.6,-120 697.6,-120 697.6,-120 697.6,-64.35 697.6,-64.35"/>
<polygon fill="#1565c0" stroke="#1565c0" points="701.1,-64.35 697.6,-54.35 694.1,-64.35 701.1,-64.35"/>
</g>
<!-- dora -->
<g id="node5" class="node">
<title>dora</title>
<path fill="#fff3e0" stroke="#e65100" d="M840,-138.53C840,-138.53 720,-138.53 720,-138.53 714,-138.53 708,-132.53 708,-126.53 708,-126.53 708,-114.08 708,-114.08 708,-108.08 714,-102.08 720,-102.08 720,-102.08 840,-102.08 840,-102.08 846,-102.08 852,-108.08 852,-114.08 852,-114.08 852,-126.53 852,-126.53 852,-132.53 846,-138.53 840,-138.53"/>
<text xml:space="preserve" text-anchor="middle" x="780" y="-127.33" font-family="Helvetica,sans-Serif" font-size="8.00">DORA Metrics</text>
<text xml:space="preserve" text-anchor="middle" x="780" y="-117.58" font-family="Helvetica,sans-Serif" font-size="8.00">Deploy Freq · Lead Time</text>
<text xml:space="preserve" text-anchor="middle" x="780" y="-107.83" font-family="Helvetica,sans-Serif" font-size="8.00">MTTR · Change Fail %</text>
</g>
<!-- dora&#45;&gt;r5d -->
<g id="edge6" class="edge">
<title>dora&#45;&gt;r5d</title>
<path fill="none" stroke="#1565c0" stroke-dasharray="5,2" d="M762.4,-101.62C762.4,-101.62 762.4,-64.38 762.4,-64.38"/>
<polygon fill="#1565c0" stroke="#1565c0" points="765.9,-64.38 762.4,-54.38 758.9,-64.38 765.9,-64.38"/>
</g>
<!-- tele -->
<g id="node6" class="node">
<title>tele</title>
<path fill="#f3e5f5" stroke="#6a1b9a" d="M1013,-138.53C1013,-138.53 893,-138.53 893,-138.53 887,-138.53 881,-132.53 881,-126.53 881,-126.53 881,-114.08 881,-114.08 881,-108.08 887,-102.08 893,-102.08 893,-102.08 1013,-102.08 1013,-102.08 1019,-102.08 1025,-108.08 1025,-114.08 1025,-114.08 1025,-126.53 1025,-126.53 1025,-132.53 1019,-138.53 1013,-138.53"/>
<text xml:space="preserve" text-anchor="middle" x="953" y="-127.33" font-family="Helvetica,sans-Serif" font-size="8.00">Game Telemetry</text>
<text xml:space="preserve" text-anchor="middle" x="953" y="-117.58" font-family="Helvetica,sans-Serif" font-size="8.00">Sessions · Combat</text>
<text xml:space="preserve" text-anchor="middle" x="953" y="-107.83" font-family="Helvetica,sans-Serif" font-size="8.00">Economy · Resources</text>
</g>
<!-- ad -->
<g id="node12" class="node">
<title>ad</title>
<path fill="#e1bee7" stroke="#6a1b9a" d="M963.8,-52.23C963.8,-52.23 858.2,-52.23 858.2,-52.23 852.2,-52.23 846.2,-46.23 846.2,-40.23 846.2,-40.23 846.2,-28.22 846.2,-28.22 846.2,-22.23 852.2,-16.23 858.2,-16.23 858.2,-16.23 963.8,-16.23 963.8,-16.23 969.8,-16.23 975.8,-22.23 975.8,-28.23 975.8,-28.23 975.8,-40.23 975.8,-40.23 975.8,-46.23 969.8,-52.23 963.8,-52.23"/>
<text xml:space="preserve" text-anchor="middle" x="911" y="-36.38" font-family="Helvetica,sans-Serif" font-size="8.00">Addon v0.4&#45;v0.6</text>
<text xml:space="preserve" text-anchor="middle" x="911" y="-26.62" font-family="Helvetica,sans-Serif" font-size="8.00">Game telemetry panels</text>
</g>
<!-- tele&#45;&gt;ad -->
<g id="edge7" class="edge">
<title>tele&#45;&gt;ad</title>
<path fill="none" stroke="#1565c0" stroke-dasharray="5,2" d="M928.4,-101.62C928.4,-101.62 928.4,-64.08 928.4,-64.08"/>
<polygon fill="#1565c0" stroke="#1565c0" points="931.9,-64.08 928.4,-54.08 924.9,-64.08 931.9,-64.08"/>
</g>
<!-- r1d -->
<g id="node7" class="node">
<title>r1d</title>
<path fill="#a5d6a7" stroke="#2e7d32" d="M168.8,-52.23C168.8,-52.23 63.2,-52.23 63.2,-52.23 57.2,-52.23 51.2,-46.23 51.2,-40.23 51.2,-40.23 51.2,-28.22 51.2,-28.22 51.2,-22.23 57.2,-16.23 63.2,-16.23 63.2,-16.23 168.8,-16.23 168.8,-16.23 174.8,-16.23 180.8,-22.23 180.8,-28.23 180.8,-28.23 180.8,-40.23 180.8,-40.23 180.8,-46.23 174.8,-52.23 168.8,-52.23"/>
<text xml:space="preserve" text-anchor="middle" x="116" y="-36.38" font-family="Helvetica,sans-Serif" font-size="8.00">R1 (done)</text>
<text xml:space="preserve" text-anchor="middle" x="116" y="-26.62" font-family="Helvetica,sans-Serif" font-size="8.00">Prometheus + alerts</text>
</g>
</g>
</svg>
