<?xml version="1.0" encoding="UTF-8" standalone="no"?>
<!DOCTYPE svg PUBLIC "-//W3C//DTD SVG 1.1//EN"
 "http://www.w3.org/Graphics/SVG/1.1/DTD/svg11.dtd">
<!-- Generated by graphviz version 14.1.2 (0)
 -->
<!-- Title: Timeline Pages: 1 -->
<svg width="1025pt" height="338pt"
 viewBox="0.00 0.00 1025.00 338.00" xmlns="http://www.w3.org/2000/svg" xmlns:xlink="http://www.w3.org/1999/xlink">
<g id="graph0" class="graph" transform="scale(1 1) rotate(0) translate(4 334)">
<title>Timeline</title>
<polygon fill="#ffffff" stroke="none" points="-4,4 -4,-334 1021.2,-334 1021.2,4 -4,4"/>
<g id="clust1" class="cluster">
<title>cluster_core</title>
<path fill="#1565c0" stroke="#1565c0" d="M20,-169C20,-169 869.82,-169 869.82,-169 875.82,-169 881.82,-175 881.82,-181 881.82,-181 881.82,-310 881.82,-310 881.82,-316 875.82,-322 869.82,-322 869.82,-322 20,-322 20,-322 14,-322 8,-316 8,-310 8,-310 8,-181 8,-181 8,-175 14,-169 20,-169"/>
<text xml:space="preserve" text-anchor="middle" x="444.91" y="-308.5" font-family="Helvetica,sans-Serif" font-size="10.00" fill="#1565c0">Core Releases</text>
</g>
<g id="clust2" class="cluster">
<title>cluster_addon</title>
<path fill="#6a1b9a" stroke="#6a1b9a" d="M27.2,-8C27.2,-8 997.2,-8 997.2,-8 1003.2,-8 1009.2,-14 1009.2,-20 1009.2,-20 1009.2,-149 1009.2,-149 1009.2,-155 1003.2,-161 997.2,-161 997.2,-161 27.2,-161 27.2,-161 21.2,-161 15.2,-155 15.2,-149 15.2,-149 15.2,-20 15.2,-20 15.2,-14 21.2,-8 27.2,-8"/>
<text xml:space="preserve" text-anchor="middle" x="512.2" y="-147.5" font-family="Helvetica,sans-Serif" font-size="10.00" fill="#6a1b9a">Addon Releases</text>
</g>
<!-- r1 -->
<g id="node1" class="node">
<title>r1</title>
<path fill="#a5d6a7" stroke="#2e7d32" d="M104.8,-263.8C104.8,-263.8 28,-263.8 28,-263.8 22,-263.8 16,-257.8 16,-251.8 16,-251.8 16,-218.2 16,-218.2 16,-212.2 22,-206.2 28,-206.2 28,-206.2 104.8,-206.2 104.8,-206.2 110.8,-206.2 116.8,-212.2 116.8,-218.2 116.8,-218.2 116.8,-251.8 116.8,-251.8 116.8,-257.8 110.8,-263.8 104.8,-263.8"/>
<text xml:space="preserve" text-anchor="middle" x="66.4" y="-242.03" font-family="Helvetica,sans-Serif" font-size="8.00">R1</text>
<text xml:space="preserve" text-anchor="middle" x="66.4" y="-232.28" font-family="Helvetica,sans-Serif" font-size="8.00">Metrics Stack</text>
<text xml:space="preserve" text-anchor="middle" x="66.4" y="-222.53" font-family="Helvetica,sans-Serif" font-size="8.00">MVP</text>
</g>
<!-- r2 -->
<g id="node2" class="node">
<title>r2</title>
<path fill="#90caf9" stroke="#1565c0" d="M278,-234.8C278,-234.8 186.8,-234.8 186.8,-234.8 180.8,-234.8 174.8,-228.8 174.8,-222.8 174.8,-222.8 174.8,-189.2 174.8,-189.2 174.8,-183.2 180.8,-177.2 186.8,-177.2 186.8,-177.2 278,-177.2 278,-177.2 284,-177.2 290,-183.2 290,-189.2 290,-189.2 290,-222.8 290,-222.8 290,-228.8 284,-234.8 278,-234.8"/>
<text xml:space="preserve" text-anchor="middle" x="232.4" y="-213.03" font-family="Helvetica,sans-Serif" font-size="8.00">R2</text>
<text xml:space="preserve" text-anchor="middle" x="232.4" y="-203.28" font-family="Helvetica,sans-Serif" font-size="8.00">Console Exporter</text>
<text xml:space="preserve" text-anchor="middle" x="232.4" y="-193.53" font-family="Helvetica,sans-Serif" font-size="8.00">+ SOC Foundation</text>
</g>
<!-- r1&#45;&gt;r2 -->
<g id="edge1" class="edge">
<title>r1&#45;&gt;r2</title>
<path fill="none" stroke="#1565c0" stroke-width="2" d="M117.11,-220.5C117.11,-220.5 162.94,-220.5 162.94,-220.5"/>
<polygon fill="#1565c0" stroke="#1565c0" stroke-width="2" points="161.42,-224 171.42,-220.5 161.42,-217 161.42,-224"/>
</g>
<!-- c_done -->
<g id="node6" class="node">
<title>c_done</title>
<path fill="lightgrey" stroke="none" d="M247.4,-293C247.4,-293 217.4,-293 217.4,-293 211.4,-293 205.4,-287 205.4,-281 205.4,-281 205.4,-269 205.4,-269 205.4,-263 211.4,-257 217.4,-257 217.4,-257 247.4,-257 247.4,-257 253.4,-257 259.4,-263 259.4,-269 259.4,-269 259.4,-281 259.4,-281 259.4,-287 253.4,-293 247.4,-293"/>
<text xml:space="preserve" text-anchor="middle" x="232.4" y="-277.35" font-family="Helvetica,sans-Serif" font-size="7.00" fill="#2e7d32">v1.3.x</text>
<text xml:space="preserve" text-anchor="middle" x="232.4" y="-268.35" font-family="Helvetica,sans-Serif" font-size="7.00" fill="#2e7d32">(DONE)</text>
</g>
<!-- r1&#45;&gt;c_done -->
<g id="edge13" class="edge">
<title>r1&#45;&gt;c_done</title>
<path fill="none" stroke="#2e7d32" stroke-dasharray="1,5" d="M117.05,-245.9C165.81,-245.9 232.2,-245.9 232.2,-245.9 232.2,-245.9 232.2,-251.08 232.2,-257.07"/>
</g>
<!-- r3 -->
<g id="node3" class="node">
<title>r3</title>
<path fill="#90caf9" stroke="#1565c0" d="M436.8,-234.8C436.8,-234.8 360,-234.8 360,-234.8 354,-234.8 348,-228.8 348,-222.8 348,-222.8 348,-189.2 348,-189.2 348,-183.2 354,-177.2 360,-177.2 360,-177.2 436.8,-177.2 436.8,-177.2 442.8,-177.2 448.8,-183.2 448.8,-189.2 448.8,-189.2 448.8,-222.8 448.8,-222.8 448.8,-228.8 442.8,-234.8 436.8,-234.8"/>
<text xml:space="preserve" text-anchor="middle" x="398.4" y="-213.03" font-family="Helvetica,sans-Serif" font-size="8.00">R3</text>
<text xml:space="preserve" text-anchor="middle" x="398.4" y="-203.28" font-family="Helvetica,sans-Serif" font-size="8.00">Prometheus</text>
<text xml:space="preserve" text-anchor="middle" x="398.4" y="-193.53" font-family="Helvetica,sans-Serif" font-size="8.00">Bridge API</text>
</g>
<!-- r2&#45;&gt;r3 -->
<g id="edge2" class="edge">
<title>r2&#45;&gt;r3</title>
<path fill="none" stroke="#1565c0" stroke-width="2" d="M290.46,-206C290.46,-206 336.05,-206 336.05,-206"/>
<polygon fill="#1565c0" stroke="#1565c0" stroke-width="2" points="334.53,-209.5 344.53,-206 334.53,-202.5 334.53,-209.5"/>
</g>
<!-- c_tag -->
<g id="node7" class="node">
<title>c_tag</title>
<path fill="lightgrey" stroke="none" d="M420.97,-293C420.97,-293 375.82,-293 375.82,-293 369.82,-293 363.82,-287 363.82,-281 363.82,-281 363.82,-269 363.82,-269 363.82,-263 369.82,-257 375.82,-257 375.82,-257 420.97,-257 420.97,-257 426.97,-257 432.97,-263 432.97,-269 432.97,-269 432.97,-281 432.97,-281 432.97,-287 426.97,-293 420.97,-293"/>
<text xml:space="preserve" text-anchor="middle" x="398.4" y="-272.85" font-family="Helvetica,sans-Serif" font-size="7.00" fill="#616161">core&#45;metrics&#45;r2</text>
</g>
<!-- r2&#45;&gt;c_tag -->
<g id="edge16" class="edge">
<title>r2&#45;&gt;c_tag</title>
<path fill="none" stroke="#616161" stroke-dasharray="1,5" d="M274.2,-235.26C274.2,-254.07 274.2,-275 274.2,-275 274.2,-275 327.37,-275 364.13,-275"/>
</g>
<!-- a04 -->
<g id="node13" class="node">
<title>a04</title>
<path fill="#e1bee7" stroke="#6a1b9a" d="M436.8,-73.8C436.8,-73.8 360,-73.8 360,-73.8 354,-73.8 348,-67.8 348,-61.8 348,-61.8 348,-28.2 348,-28.2 348,-22.2 354,-16.2 360,-16.2 360,-16.2 436.8,-16.2 436.8,-16.2 442.8,-16.2 448.8,-22.2 448.8,-28.2 448.8,-28.2 448.8,-61.8 448.8,-61.8 448.8,-67.8 442.8,-73.8 436.8,-73.8"/>
<text xml:space="preserve" text-anchor="middle" x="398.4" y="-52.02" font-family="Helvetica,sans-Serif" font-size="8.00">v0.4</text>
<text xml:space="preserve" text-anchor="middle" x="398.4" y="-42.27" font-family="Helvetica,sans-Serif" font-size="8.00">Game Activity</text>
<text xml:space="preserve" text-anchor="middle" x="398.4" y="-32.52" font-family="Helvetica,sans-Serif" font-size="8.00">&amp; Combat</text>
</g>
<!-- r2&#45;&gt;a04 -->
<g id="edge10" class="edge">
<title>r2&#45;&gt;a04</title>
<path fill="none" stroke="#d32f2f" stroke-dasharray="5,2" d="M284.2,-176.81C284.2,-132.81 284.2,-54.6 284.2,-54.6 284.2,-54.6 336.13,-54.6 336.13,-54.6"/>
<polygon fill="#d32f2f" stroke="#d32f2f" points="336.13,-58.1 346.13,-54.6 336.13,-51.1 336.13,-58.1"/>
</g>
<!-- r4 -->
<g id="node4" class="node">
<title>r4</title>
<path fill="#90caf9" stroke="#1565c0" d="M584.8,-234.8C584.8,-234.8 522.4,-234.8 522.4,-234.8 516.4,-234.8 510.4,-228.8 510.4,-222.8 510.4,-222.8 510.4,-189.2 510.4,-189.2 510.4,-183.2 516.4,-177.2 522.4,-177.2 522.4,-177.2 584.8,-177.2 584.8,-177.2 590.8,-177.2 596.8,-183.2 596.8,-189.2 596.8,-189.2 596.8,-222.8 596.8,-222.8 596.8,-228.8 590.8,-234.8 584.8,-234.8"/>
<text xml:space="preserve" text-anchor="middle" x="553.6" y="-213.03" font-family="Helvetica,sans-Serif" font-size="8.00">R4</text>
<text xml:space="preserve" text-anchor="middle" x="553.6" y="-203.28" font-family="Helvetica,sans-Serif" font-size="8.00">SOC</text>
<text xml:space="preserve" text-anchor="middle" x="553.6" y="-193.53" font-family="Helvetica,sans-Serif" font-size="8.00">Hardening</text>
</g>
<!-- r3&#45;&gt;r4 -->
<g id="edge3" class="edge">
<title>r3&#45;&gt;r4</title>
<path fill="none" stroke="#1565c0" stroke-width="2" d="M449.22,-206C449.22,-206 498.45,-206 498.45,-206"/>
<polygon fill="#1565c0" stroke="#1565c0" stroke-width="2" points="496.93,-209.5 506.93,-206 496.93,-202.5 496.93,-209.5"/>
</g>
<!-- c_tag2 -->
<g id="node8" class="node">
<title>c_tag2</title>
<path fill="lightgrey" stroke="none" d="M576.17,-293C576.17,-293 531.02,-293 531.02,-293 525.02,-293 519.02,-287 519.02,-281 519.02,-281 519.02,-269 519.02,-269 519.02,-263 525.02,-257 531.02,-257 531.02,-257 576.17,-257 576.17,-257 582.17,-257 588.17,-263 588.17,-269 588.17,-269 588.17,-281 588.17,-281 588.17,-287 582.17,-293 576.17,-293"/>
<text xml:space="preserve" text-anchor="middle" x="553.6" y="-272.85" font-family="Helvetica,sans-Serif" font-size="7.00" fill="#616161">core&#45;metrics&#45;r3</text>
</g>
<!-- r3&#45;&gt;c_tag2 -->
<g id="edge17" class="edge">
<title>r3&#45;&gt;c_tag2</title>
<path fill="none" stroke="#616161" stroke-dasharray="1,5" d="M441.2,-235.26C441.2,-254.07 441.2,-275 441.2,-275 441.2,-275 486.21,-275 519.27,-275"/>
</g>
<!-- a10 -->
<g id="node16" class="node">
<title>a10</title>
<path fill="#ce93d8" stroke="#8e24aa" d="M877.2,-73.8C877.2,-73.8 814.8,-73.8 814.8,-73.8 808.8,-73.8 802.8,-67.8 802.8,-61.8 802.8,-61.8 802.8,-28.2 802.8,-28.2 802.8,-22.2 808.8,-16.2 814.8,-16.2 814.8,-16.2 877.2,-16.2 877.2,-16.2 883.2,-16.2 889.2,-22.2 889.2,-28.2 889.2,-28.2 889.2,-61.8 889.2,-61.8 889.2,-67.8 883.2,-73.8 877.2,-73.8"/>
<text xml:space="preserve" text-anchor="middle" x="846" y="-52.02" font-family="Helvetica,sans-Serif" font-size="8.00">v1.0</text>
<text xml:space="preserve" text-anchor="middle" x="846" y="-42.27" font-family="Helvetica,sans-Serif" font-size="8.00">SOC/OPS</text>
<text xml:space="preserve" text-anchor="middle" x="846" y="-32.52" font-family="Helvetica,sans-Serif" font-size="8.00">Center</text>
</g>
<!-- r3&#45;&gt;a10 -->
<g id="edge11" class="edge">
<title>r3&#45;&gt;a10</title>
<path fill="none" stroke="#d32f2f" stroke-dasharray="5,2" d="M433.2,-176.74C433.2,-139.85 433.2,-81.2 433.2,-81.2 433.2,-81.2 808.2,-81.2 808.2,-81.2 808.2,-81.2 808.2,-80.5 808.2,-80.5"/>
<polygon fill="#d32f2f" stroke="#d32f2f" points="811.7,-85.73 808.2,-75.73 804.7,-85.73 811.7,-85.73"/>
</g>
<!-- r5 -->
<g id="node5" class="node">
<title>r5</title>
<path fill="#90caf9" stroke="#1565c0" d="M732.8,-234.8C732.8,-234.8 670.4,-234.8 670.4,-234.8 664.4,-234.8 658.4,-228.8 658.4,-222.8 658.4,-222.8 658.4,-189.2 658.4,-189.2 658.4,-183.2 664.4,-177.2 670.4,-177.2 670.4,-177.2 732.8,-177.2 732.8,-177.2 738.8,-177.2 744.8,-183.2 744.8,-189.2 744.8,-189.2 744.8,-222.8 744.8,-222.8 744.8,-228.8 738.8,-234.8 732.8,-234.8"/>
<text xml:space="preserve" text-anchor="middle" x="701.6" y="-213.03" font-family="Helvetica,sans-Serif" font-size="8.00">R5</text>
<text xml:space="preserve" text-anchor="middle" x="701.6" y="-203.28" font-family="Helvetica,sans-Serif" font-size="8.00">Ops</text>
<text xml:space="preserve" text-anchor="middle" x="701.6" y="-193.53" font-family="Helvetica,sans-Serif" font-size="8.00">Maturity</text>
</g>
<!-- r4&#45;&gt;r5 -->
<g id="edge4" class="edge">
<title>r4&#45;&gt;r5</title>
<path fill="none" stroke="#1565c0" stroke-width="2" d="M597.2,-206C597.2,-206 646.54,-206 646.54,-206"/>
<polygon fill="#1565c0" stroke="#1565c0" stroke-width="2" points="645.02,-209.5 655.02,-206 645.02,-202.5 645.02,-209.5"/>
</g>
<!-- c_tag3 -->
<g id="node9" class="node">
<title>c_tag3</title>
<path fill="lightgrey" stroke="none" d="M716.67,-293C716.67,-293 686.52,-293 686.52,-293 680.52,-293 674.52,-287 674.52,-281 674.52,-281 674.52,-269 674.52,-269 674.52,-263 680.52,-257 686.52,-257 686.52,-257 716.67,-257 716.67,-257 722.67,-257 728.67,-263 728.67,-269 728.67,-269 728.67,-281 728.67,-281 728.67,-287 722.67,-293 716.67,-293"/>
<text xml:space="preserve" text-anchor="middle" x="701.6" y="-272.85" font-family="Helvetica,sans-Serif" font-size="7.00" fill="#616161">core&#45;soc&#45;r4</text>
</g>
<!-- r4&#45;&gt;c_tag3 -->
<g id="edge18" class="edge">
<title>r4&#45;&gt;c_tag3</title>
<path fill="none" stroke="#616161" stroke-dasharray="1,5" d="M592.2,-235.26C592.2,-254.07 592.2,-275 592.2,-275 592.2,-275 642.16,-275 674.56,-275"/>
</g>
<!-- r4&#45;&gt;a10 -->
<g id="edge12" class="edge">
<title>r4&#45;&gt;a10</title>
<path fill="none" stroke="#d32f2f" stroke-dasharray="5,2" d="M586.2,-177C586.2,-165.34 586.2,-154.6 586.2,-154.6 586.2,-154.6 813.2,-154.6 813.2,-154.6 813.2,-154.6 813.2,-85.6 813.2,-85.6"/>
<polygon fill="#d32f2f" stroke="#d32f2f" points="816.7,-85.6 813.2,-75.6 809.7,-85.6 816.7,-85.6"/>
</g>
<!-- c_tag4 -->
<g id="node10" class="node">
<title>c_tag4</title>
<path fill="lightgrey" stroke="none" d="M861.83,-224C861.83,-224 830.17,-224 830.17,-224 824.17,-224 818.17,-218 818.17,-212 818.17,-212 818.17,-200 818.17,-200 818.17,-194 824.17,-188 830.17,-188 830.17,-188 861.83,-188 861.83,-188 867.83,-188 873.83,-194 873.83,-200 873.83,-200 873.83,-212 873.83,-212 873.83,-218 867.83,-224 861.83,-224"/>
<text xml:space="preserve" text-anchor="middle" x="846" y="-203.85" font-family="Helvetica,sans-Serif" font-size="7.00" fill="#616161">core&#45;ops&#45;r5</text>
</g>
<!-- r5&#45;&gt;c_tag4 -->
<g id="edge19" class="edge">
<title>r5&#45;&gt;c_tag4</title>
<path fill="none" stroke="#616161" stroke-dasharray="1,5" d="M744.92,-206C768.68,-206 797.44,-206 818.19,-206"/>
</g>
<!-- a02 -->
<g id="node11" class="node">
<title>a02</title>
<path fill="#a5d6a7" stroke="#2e7d32" d="M97.6,-102.8C97.6,-102.8 35.2,-102.8 35.2,-102.8 29.2,-102.8 23.2,-96.8 23.2,-90.8 23.2,-90.8 23.2,-57.2 23.2,-57.2 23.2,-51.2 29.2,-45.2 35.2,-45.2 35.2,-45.2 97.6,-45.2 97.6,-45.2 103.6,-45.2 109.6,-51.2 109.6,-57.2 109.6,-57.2 109.6,-90.8 109.6,-90.8 109.6,-96.8 103.6,-102.8 97.6,-102.8"/>
<text xml:space="preserve" text-anchor="middle" x="66.4" y="-81.03" font-family="Helvetica,sans-Serif" font-size="8.00">v0.2</text>
<text xml:space="preserve" text-anchor="middle" x="66.4" y="-71.28" font-family="Helvetica,sans-Serif" font-size="8.00">Player</text>
<text xml:space="preserve" text-anchor="middle" x="66.4" y="-61.52" font-family="Helvetica,sans-Serif" font-size="8.00">Operations</text>
</g>
<!-- a03 -->
<g id="node12" class="node">
<title>a03</title>
<path fill="#a5d6a7" stroke="#2e7d32" d="M267.2,-73.8C267.2,-73.8 197.6,-73.8 197.6,-73.8 191.6,-73.8 185.6,-67.8 185.6,-61.8 185.6,-61.8 185.6,-28.2 185.6,-28.2 185.6,-22.2 191.6,-16.2 197.6,-16.2 197.6,-16.2 267.2,-16.2 267.2,-16.2 273.2,-16.2 279.2,-22.2 279.2,-28.2 279.2,-28.2 279.2,-61.8 279.2,-61.8 279.2,-67.8 273.2,-73.8 267.2,-73.8"/>
<text xml:space="preserve" text-anchor="middle" x="232.4" y="-52.02" font-family="Helvetica,sans-Serif" font-size="8.00">v0.3</text>
<text xml:space="preserve" text-anchor="middle" x="232.4" y="-42.27" font-family="Helvetica,sans-Serif" font-size="8.00">OPS Health</text>
<text xml:space="preserve" text-anchor="middle" x="232.4" y="-32.52" font-family="Helvetica,sans-Serif" font-size="8.00">Foundation</text>
</g>
<!-- a02&#45;&gt;a03 -->
<g id="edge5" class="edge">
<title>a02&#45;&gt;a03</title>
<path fill="none" stroke="#6a1b9a" stroke-width="2" d="M110.01,-59.5C110.01,-59.5 173.78,-59.5 173.78,-59.5"/>
<polygon fill="#6a1b9a" stroke="#6a1b9a" stroke-width="2" points="172.27,-63 182.27,-59.5 172.27,-56 172.27,-63"/>
</g>
<!-- a_done1 -->
<g id="node17" class="node">
<title>a_done1</title>
<path fill="lightgrey" stroke="none" d="M247.4,-132C247.4,-132 217.4,-132 217.4,-132 211.4,-132 205.4,-126 205.4,-120 205.4,-120 205.4,-108 205.4,-108 205.4,-102 211.4,-96 217.4,-96 217.4,-96 247.4,-96 247.4,-96 253.4,-96 259.4,-102 259.4,-108 259.4,-108 259.4,-120 259.4,-120 259.4,-126 253.4,-132 247.4,-132"/>
<text xml:space="preserve" text-anchor="middle" x="232.4" y="-111.85" font-family="Helvetica,sans-Serif" font-size="7.00" fill="#2e7d32">DONE</text>
</g>
<!-- a02&#45;&gt;a_done1 -->
<g id="edge14" class="edge">
<title>a02&#45;&gt;a_done1</title>
<path fill="none" stroke="#2e7d32" stroke-dasharray="1,5" d="M109.96,-88.6C159.09,-88.6 232.2,-88.6 232.2,-88.6 232.2,-88.6 232.2,-91.88 232.2,-96.08"/>
</g>
<!-- a03&#45;&gt;a04 -->
<g id="edge6" class="edge">
<title>a03&#45;&gt;a04</title>
<path fill="none" stroke="#6a1b9a" stroke-width="2" d="M279.52,-35.4C279.52,-35.4 336.16,-35.4 336.16,-35.4"/>
<polygon fill="#6a1b9a" stroke="#6a1b9a" stroke-width="2" points="334.64,-38.9 344.64,-35.4 334.64,-31.9 334.64,-38.9"/>
</g>
<!-- a_done2 -->
<g id="node18" class="node">
<title>a_done2</title>
<path fill="lightgrey" stroke="none" d="M413.4,-132C413.4,-132 383.4,-132 383.4,-132 377.4,-132 371.4,-126 371.4,-120 371.4,-120 371.4,-108 371.4,-108 371.4,-102 377.4,-96 383.4,-96 383.4,-96 413.4,-96 413.4,-96 419.4,-96 425.4,-102 425.4,-108 425.4,-108 425.4,-120 425.4,-120 425.4,-126 419.4,-132 413.4,-132"/>
<text xml:space="preserve" text-anchor="middle" x="398.4" y="-111.85" font-family="Helvetica,sans-Serif" font-size="7.00" fill="#2e7d32">DONE</text>
</g>
<!-- a03&#45;&gt;a_done2 -->
<g id="edge15" class="edge">
<title>a03&#45;&gt;a_done2</title>
<path fill="none" stroke="#2e7d32" stroke-dasharray="1,5" d="M269.2,-74.26C269.2,-93.07 269.2,-114 269.2,-114 269.2,-114 333.79,-114 371.63,-114"/>
</g>
<!-- a05 -->
<g id="node14" class="node">
<title>a05</title>
<path fill="#e1bee7" stroke="#6a1b9a" d="M588.4,-73.8C588.4,-73.8 518.8,-73.8 518.8,-73.8 512.8,-73.8 506.8,-67.8 506.8,-61.8 506.8,-61.8 506.8,-28.2 506.8,-28.2 506.8,-22.2 512.8,-16.2 518.8,-16.2 518.8,-16.2 588.4,-16.2 588.4,-16.2 594.4,-16.2 600.4,-22.2 600.4,-28.2 600.4,-28.2 600.4,-61.8 600.4,-61.8 600.4,-67.8 594.4,-73.8 588.4,-73.8"/>
<text xml:space="preserve" text-anchor="middle" x="553.6" y="-52.02" font-family="Helvetica,sans-Serif" font-size="8.00">v0.5</text>
<text xml:space="preserve" text-anchor="middle" x="553.6" y="-42.27" font-family="Helvetica,sans-Serif" font-size="8.00">Economy</text>
<text xml:space="preserve" text-anchor="middle" x="553.6" y="-32.52" font-family="Helvetica,sans-Serif" font-size="8.00">&amp; Resources</text>
</g>
<!-- a04&#45;&gt;a05 -->
<g id="edge7" class="edge">
<title>a04&#45;&gt;a05</title>
<path fill="none" stroke="#6a1b9a" stroke-width="2" d="M449.22,-45C449.22,-45 494.84,-45 494.84,-45"/>
<polygon fill="#6a1b9a" stroke="#6a1b9a" stroke-width="2" points="493.32,-48.5 503.32,-45 493.32,-41.5 493.32,-48.5"/>
</g>
<!-- a_tag1 -->
<g id="node19" class="node">
<title>a_tag1</title>
<path fill="lightgrey" stroke="none" d="M568.6,-132C568.6,-132 538.6,-132 538.6,-132 532.6,-132 526.6,-126 526.6,-120 526.6,-120 526.6,-108 526.6,-108 526.6,-102 532.6,-96 538.6,-96 538.6,-96 568.6,-96 568.6,-96 574.6,-96 580.6,-102 580.6,-108 580.6,-108 580.6,-120 580.6,-120 580.6,-126 574.6,-132 568.6,-132"/>
<text xml:space="preserve" text-anchor="middle" x="553.6" y="-111.85" font-family="Helvetica,sans-Serif" font-size="7.00" fill="#616161">v0.4.0</text>
</g>
<!-- a04&#45;&gt;a_tag1 -->
<g id="edge20" class="edge">
<title>a04&#45;&gt;a_tag1</title>
<path fill="none" stroke="#616161" stroke-dasharray="1,5" d="M441.2,-74.26C441.2,-93.07 441.2,-114 441.2,-114 441.2,-114 493.42,-114 526.68,-114"/>
</g>
<!-- a06 -->
<g id="node15" class="node">
<title>a06</title>
<path fill="#e1bee7" stroke="#6a1b9a" d="M732.8,-73.8C732.8,-73.8 670.4,-73.8 670.4,-73.8 664.4,-73.8 658.4,-67.8 658.4,-61.8 658.4,-61.8 658.4,-28.2 658.4,-28.2 658.4,-22.2 664.4,-16.2 670.4,-16.2 670.4,-16.2 732.8,-16.2 732.8,-16.2 738.8,-16.2 744.8,-22.2 744.8,-28.2 744.8,-28.2 744.8,-61.8 744.8,-61.8 744.8,-67.8 738.8,-73.8 732.8,-73.8"/>
<text xml:space="preserve" text-anchor="middle" x="701.6" y="-52.02" font-family="Helvetica,sans-Serif" font-size="8.00">v0.6</text>
<text xml:space="preserve" text-anchor="middle" x="701.6" y="-42.27" font-family="Helvetica,sans-Serif" font-size="8.00">World</text>
<text xml:space="preserve" text-anchor="middle" x="701.6" y="-32.52" font-family="Helvetica,sans-Serif" font-size="8.00">&amp; Assets</text>
</g>
<!-- a05&#45;&gt;a06 -->
<g id="edge8" class="edge">
<title>a05&#45;&gt;a06</title>
<path fill="none" stroke="#6a1b9a" stroke-width="2" d="M600.84,-45C600.84,-45 646.81,-45 646.81,-45"/>
<polygon fill="#6a1b9a" stroke="#6a1b9a" stroke-width="2" points="645.3,-48.5 655.3,-45 645.3,-41.5 645.3,-48.5"/>
</g>
<!-- a_tag2 -->
<g id="node20" class="node">
<title>a_tag2</title>
<path fill="lightgrey" stroke="none" d="M716.6,-132C716.6,-132 686.6,-132 686.6,-132 680.6,-132 674.6,-126 674.6,-120 674.6,-120 674.6,-108 674.6,-108 674.6,-102 680.6,-96 686.6,-96 686.6,-96 716.6,-96 716.6,-96 722.6,-96 728.6,-102 728.6,-108 728.6,-108 728.6,-120 728.6,-120 728.6,-126 722.6,-132 716.6,-132"/>
<text xml:space="preserve" text-anchor="middle" x="701.6" y="-111.85" font-family="Helvetica,sans-Serif" font-size="7.00" fill="#616161">v0.5.0</text>
</g>
<!-- a05&#45;&gt;a_tag2 -->
<g id="edge21" class="edge">
<title>a05&#45;&gt;a_tag2</title>
<path fill="none" stroke="#616161" stroke-dasharray="1,5" d="M591.2,-74.26C591.2,-93.07 591.2,-114 591.2,-114 591.2,-114 642.2,-114 674.88,-114"/>
</g>
<!-- a06&#45;&gt;a10 -->
<g id="edge9" class="edge">
<title>a06&#45;&gt;a10</title>
<path fill="none" stroke="#6a1b9a" stroke-width="2" d="M744.92,-45C744.92,-45 791.19,-45 791.19,-45"/>
<polygon fill="#6a1b9a" stroke="#6a1b9a" stroke-width="2" points="789.68,-48.5 799.68,-45 789.68,-41.5 789.68,-48.5"/>
</g>
<!-- a_tag3 -->
<g id="node21" class="node">
<title>a_tag3</title>
<path fill="lightgrey" stroke="none" d="M861,-132C861,-132 831,-132 831,-132 825,-132 819,-126 819,-120 819,-120 819,-108 819,-108 819,-102 825,-96 831,-96 831,-96 861,-96 861,-96 867,-96 873,-102 873,-108 873,-108 873,-120 873,-120 873,-126 867,-132 861,-132"/>
<text xml:space="preserve" text-anchor="middle" x="846" y="-111.85" font-family="Helvetica,sans-Serif" font-size="7.00" fill="#616161">v0.6.0</text>
</g>
<!-- a06&#45;&gt;a_tag3 -->
<g id="edge22" class="edge">
<title>a06&#45;&gt;a_tag3</title>
<path fill="none" stroke="#616161" stroke-dasharray="1,5" d="M736.2,-74.26C736.2,-93.07 736.2,-114 736.2,-114 736.2,-114 786.63,-114 819.14,-114"/>
</g>
<!-- a_tag4 -->
<g id="node22" class="node">
<title>a_tag4</title>
<path fill="lightgrey" stroke="none" d="M989.2,-63C989.2,-63 959.2,-63 959.2,-63 953.2,-63 947.2,-57 947.2,-51 947.2,-51 947.2,-39 947.2,-39 947.2,-33 953.2,-27 959.2,-27 959.2,-27 989.2,-27 989.2,-27 995.2,-27 1001.2,-33 1001.2,-39 1001.2,-39 1001.2,-51 1001.2,-51 1001.2,-57 995.2,-63 989.2,-63"/>
<text xml:space="preserve" text-anchor="middle" x="974.2" y="-42.85" font-family="Helvetica,sans-Serif" font-size="7.00" fill="#616161">v1.0.0</text>
</g>
<!-- a10&#45;&gt;a_tag4 -->
<g id="edge23" class="edge">
<title>a10&#45;&gt;a_tag4</title>
<path fill="none" stroke="#616161" stroke-dasharray="1,5" d="M889.4,-45C908.58,-45 930.53,-45 947.29,-45"/>
</g>
</g>
</svg>
